<?xml version="1.0" encoding="utf-8"?>
<!-- Generator: Adobe Illustrator 24.1.0, SVG Export Plug-In . SVG Version: 6.00 Build 0)  -->
<svg version="1.1" id="圖層_1" xmlns="http://www.w3.org/2000/svg" xmlns:xlink="http://www.w3.org/1999/xlink" x="0px" y="0px"
	 viewBox="0 0 49 52" style="enable-background:new 0 0 49 52;" xml:space="preserve">
<g>
	<path d="M36.37,30.29c0.53,0,0.99-0.34,1.16-0.84l4.67-14.47c0.12-0.37,0.05-0.77-0.17-1.09c-0.23-0.31-0.59-0.5-0.98-0.5H11.82
		V7.82c0-0.67-0.54-1.22-1.22-1.22H6.53c-0.67,0-1.22,0.54-1.22,1.22s0.54,1.22,1.22,1.22h2.85v5.57c0,0.1,0.03,0.19,0.06,0.28
		c0.01,0.04,0,0.08,0.01,0.12l5.05,14.27v4.01c0,0.67,0.54,1.21,1.22,1.21h20.95c0.67,0,1.22-0.54,1.22-1.21
		c0-0.67-0.54-1.22-1.22-1.22H16.94v-1.79H36.37z M39.38,15.82l-3.89,12.04H16.58l-4.26-12.04H39.38z"/>
	<path d="M18.06,37.51c-1.96,0-3.55,1.59-3.55,3.55c0,1.96,1.59,3.55,3.55,3.55s3.55-1.59,3.55-3.55
		C21.61,39.1,20.02,37.51,18.06,37.51z M18.06,42.18c-0.62,0-1.12-0.5-1.12-1.12c0-0.62,0.5-1.12,1.12-1.12s1.12,0.5,1.12,1.12
		C19.18,41.68,18.68,42.18,18.06,42.18z"/>
	<path d="M33.28,37.51c-1.96,0-3.55,1.59-3.55,3.55c0,1.96,1.59,3.55,3.55,3.55s3.55-1.59,3.55-3.55
		C36.84,39.1,35.24,37.51,33.28,37.51z M33.28,42.18c-0.62,0-1.12-0.5-1.12-1.12c0-0.62,0.5-1.12,1.12-1.12s1.12,0.5,1.12,1.12
		C34.4,41.68,33.9,42.18,33.28,42.18z"/>
</g>
</svg>
