<?xml version="1.0" encoding="utf-8"?>
<!-- Generator: Adobe Illustrator 24.1.0, SVG Export Plug-In . SVG Version: 6.00 Build 0)  -->
<svg version="1.1" id="圖層_1" xmlns="http://www.w3.org/2000/svg" xmlns:xlink="http://www.w3.org/1999/xlink" x="0px" y="0px"
	 viewBox="0 0 242 309" style="enable-background:new 0 0 242 309;" xml:space="preserve">
<style type="text/css">
	.st0{fill:url(#SVGID_1_);}
	.st1{fill:url(#SVGID_2_);}
	.st2{fill:url(#SVGID_3_);}
	.st3{fill:url(#SVGID_4_);}
	.st4{fill:url(#SVGID_5_);}
	.st5{fill:url(#SVGID_6_);}
	.st6{fill:url(#SVGID_7_);}
	.st7{fill:url(#SVGID_8_);}
</style>
<g>
	<g>
		<linearGradient id="SVGID_1_" gradientUnits="userSpaceOnUse" x1="206.3252" y1="38.5406" x2="82.9074" y2="259.1757">
			<stop  offset="0" style="stop-color:#70BD6B"/>
			<stop  offset="0.2298" style="stop-color:#4CC7F1"/>
			<stop  offset="0.5075" style="stop-color:#73788D"/>
			<stop  offset="0.7731" style="stop-color:#FFF051"/>
			<stop  offset="1" style="stop-color:#F1858E"/>
		</linearGradient>
		<path class="st0" d="M223.28,181.54c-3.7-4.86-8.33-8.86-13.64-11.83c-0.12,0.3-0.24,0.6-0.37,0.89c2.31-0.36,4.7-0.59,6.98-1.11
			c1.14-0.26,3.21-1.21,2.14-2.69c-0.49-0.67-1.38-1.09-2.08-1.51c-0.96-0.58-1.96-1.09-2.98-1.53c-2.02-0.87-4.12-1.5-6.28-1.89
			c0.34,0.22,0.68,0.43,1.02,0.65c0.03-0.3,0.21-0.43,0.31-0.7c0.16-0.45,0.05-1.13,0.05-1.61c0.01-1.21,0.03-2.41,0.06-3.62
			c0.05-2.39,0.12-4.79,0.21-7.18c0.18-4.67,0.42-9.34,0.69-14c0.54-9.37,1.19-18.73,1.61-28.11c0.24-5.39,0.41-10.78,0.45-16.17
			c0-0.41-0.73-0.6-1.02-0.65c-6.67-1.02-13.43-1.27-20.15-0.68c-3.28,0.29-6.53,0.75-9.76,1.43c-1.46,0.31-2.96,0.6-4.39,1.04
			c-1.15,0.35-2.08,0.94-2.28,2.21c-0.23,1.52,0.03,3.22,0.07,4.75c0.04,1.64,0.07,3.28,0.06,4.91c-0.02,3.48-0.09,6.96-0.16,10.44
			c-0.13,6.99-0.32,13.97-0.57,20.96c-0.28,8.05-0.63,16.09-1.06,24.13c-0.02,0.32,0.45,0.49,0.68,0.56c2.8,0.86,5.76,0,7.47-2.45
			c2.04-2.93,1.48-6.83,1.07-10.16c-0.5-4.09-1-8.18-1.5-12.27c-0.25-2.01-0.49-4.02-0.74-6.03c-0.24-1.93-0.37-3.91-0.76-5.81
			c-0.74-3.57-4.03-5.44-6.68-7.56c-1.51-1.21-2.98-2.56-4.6-3.62c-1.41-0.92-3.01-1.19-4.67-1.15c-3.94,0.08-7.89,0.51-11.82,0.77
			c-2,0.13-4,0.26-6,0.4c-0.98,0.06-2.05,0.02-3.02,0.21c-0.7,0.14-1.14,0.69-1.56,1.24c-2.02,2.63-2.22,6.28-1.89,9.46
			c0.45,4.35,1.88,8.61,0.96,13c-0.13,0.62,1.54,0.71,1.79,0.71c1.6-0.01,3.19-0.01,4.79-0.02c0.25,0,1.1-0.07,1.11-0.48
			c0.26-9.07,0.51-18.15,0.77-27.22c0.12-4.33,0.35-8.7-0.12-13.02c-0.18-1.63-0.24-3.94-1.28-5.29c-1.02-1.34-2.92-1.4-4.45-1.42
			c-4.23-0.05-8.48,0.34-12.64,1.11c-1.03,0.19-2.05,0.41-3.06,0.64c-0.75,0.17-1.63,0.32-2.22,0.87c-0.58,0.55-0.66,1.35-0.77,2.1
			c-0.17,1.18-0.33,2.37-0.48,3.56c-1.14,8.83-1.8,17.73-1.98,26.63c-0.21,10.11,0.2,20.22,1.21,30.27
			c0.08,0.76,1.64,0.75,2.14,0.68c1.95-0.28,3.9-0.55,5.85-0.83c0.25-0.04,0.71-0.13,0.76-0.45c1.77-11.41,1.53-23.05,1.64-34.57
			c0.11-11.66,0.21-23.32,0.32-34.98c0.06-6.63,0.12-13.26,0.18-19.89c0-0.41-0.73-0.61-1.02-0.65c-2.39-0.34-4.78-0.67-7.17-1.01
			c-0.26-0.04-1.9-0.22-1.88,0.42c0.07,2,0.14,3.99,0.2,5.99c0.74-0.11,1.48-0.22,2.22-0.33c-2.19-0.69-4.46-1.09-6.75-1.15
			c0.47,0.23,0.93,0.47,1.4,0.7c-0.39-3.4-0.34-6.82,0.15-10.21c0.08-0.52-1.14-0.68-1.4-0.7c-2.81-0.26-6.29-0.71-8.94,0.53
			c-1.79,0.84-1.46,2.77-1.62,4.51c-0.27,3.11-0.55,6.23-0.82,9.34c0.25-0.15,0.5-0.3,0.76-0.45c-4.16,0.68-8.32,1.37-12.47,2.05
			c-0.19,0.03-0.77,0.14-0.76,0.45c0.38,9.83-0.3,19.66-0.72,29.48c-0.41,9.67-0.49,19.37,0.12,29.04
			c0.34,5.45,0.91,10.89,1.75,16.29c0.12,0.75,1.61,0.77,2.14,0.68c2.59-0.45,5.17-0.89,7.76-1.34c0.2-0.04,0.76-0.13,0.76-0.45
			c-0.07-11.13-0.15-22.25-0.22-33.38c-0.04-5.56-0.07-11.13-0.11-16.69c-0.01-1.77,0.4-4.32-1.41-5.37
			c-1.94-1.13-4.71-0.37-6.8-0.21c-5.67,0.43-11.39,0.67-16.88,2.3c-0.14,0.04-0.46,0.18-0.46,0.38c0.1,6.97-0.68,13.92-0.51,20.89
			c0.18,7.09,0.88,14.14,1.43,21.21c0.28,3.59,0.51,7.19,0.67,10.8c0.14,3.16,0.37,6.67-0.59,9.73c-0.96,3.07-3.5,3.89-6.43,3.49
			c-1.15-0.16-2.77-0.23-3.41-1.34c-0.7-1.2-0.54-3.23-0.47-4.56c0.18-3.32,1.22-6.64,3.11-9.37c0.05-0.07,0.68-0.82,0.67-0.85
			c-0.71-0.39-0.93-0.36-0.65,0.07c0.09,0.22,0.15,0.44,0.19,0.67c0.2,0.85,0.32,1.72,0.46,2.58c0.33,2.02,0.58,4.04,0.77,6.08
			c0.15-0.13,0.3-0.25,0.46-0.38c-5,1.74-10.19,2.8-15.47,3.09c0.6,0.24,1.19,0.47,1.79,0.71c0.67-6.01,1.17-12.03,1.49-18.06
			c0.15-2.94,0.26-5.89,0.33-8.83c0.03-1.43,0.07-2.87,0.07-4.31c-0.01-0.99-0.15-1.86-1.04-2.42c-1.98-1.26-4.71-0.43-6.8,0.03
			c-2.82,0.61-5.61,1.34-8.37,2.22c-0.63,0.2-1.26,0.39-1.88,0.62c-0.53,0.19-0.63,0.32-0.78,0.86c-0.4,1.42-0.43,2.94-0.39,4.41
			c0.06,2.44,0.35,4.9-0.18,7.31c-0.55,2.48-1.95,4.58-4.59,4.96c-2.5,0.37-5.08,0.02-7.3,1.47c0.82,0.26,1.64,0.53,2.45,0.79
			c2.1-1.39,5.13,0.23,6.99,1.38c2.25,1.4,4.86,3.62,4.58,6.56c-0.44,4.57-5.36,6.48-9.06,7.64c-3.85,1.2-7.35,2.66-10.13,5.71
			c-2.85,3.14-4.55,7.29-4.62,11.55c-0.01,0.74,1.71,0.76,2.14,0.68c6.68-1.3,13.36-2.61,20.04-3.91
			c6.59-1.29,13.19-2.63,19.86-3.39c11.23-1.29,22.73-1.45,33.93,0.22c11.16,1.66,22.68,5.17,31.63,12.35
			c8.99,7.22,13.22,18.26,15.31,29.34c1.09,5.77,2.15,11.94,1.25,17.8c-0.81,5.29-4,10.82-9.47,12.26c-4.51,1.19-7.96-2.6-9.66-6.36
			c-1.99-4.39-2.41-9.27-2.68-14.03c-0.62-10.8-0.75-23.14,5.1-32.68c3.55-5.81,9.1-10.07,15.08-13.12
			c6.72-3.43,14.13-5.42,21.59-6.34c7.43-0.91,15.05-0.72,22.38,0.87c6.54,1.42,13.03,4.06,18.06,8.6
			c7.38,6.64,10.52,16.78,9.37,26.54c-1.28,10.81-6.78,20.77-13.24,29.3c-6.77,8.93-15.04,16.58-24.01,23.22
			c-8.95,6.62-18.56,12.29-28.27,17.69c-2.49,1.38-4.99,2.75-7.49,4.11c-2.45,1.34-4.93,2.99-7.56,3.94
			c-1.65,0.6-2.95,0.28-4.49-0.45c-1.43-0.68-2.83-1.44-4.26-2.14c-2.6-1.29-5.23-2.53-7.86-3.76
			c-10.92-5.08-22.03-9.83-32.48-15.88c-8.74-5.06-17-11-23.38-18.95c-10.25-12.79-17.03-31.73-7.39-46.81
			c2.52-3.95,5.91-7.23,9.71-9.92c0.92-0.65-1.25-0.99-1.57-0.99c-13.32,0.01-26.53,4.5-37.02,12.8c-0.88,0.69,1.84,1.28,2.45,0.79
			c10.02-7.93,22.49-12.39,35.24-12.4c-0.52-0.33-1.05-0.66-1.57-0.99c-7.63,5.4-13.31,13.13-14.56,22.6
			c-1.15,8.73,1.37,17.62,5.44,25.28c4.27,8.04,10.38,15.17,17.57,20.69c9.91,7.61,21.13,13.23,32.41,18.47
			c5.71,2.65,11.46,5.21,17.14,7.93c2.8,1.34,5.54,2.85,8.36,4.13c2.95,1.34,5.94,1.58,8.96,0.31c2.68-1.13,5.22-2.72,7.77-4.11
			c2.56-1.39,5.11-2.79,7.65-4.21c5.19-2.89,10.34-5.87,15.38-9.03c9.74-6.11,19.09-12.95,27.25-21.11
			c8.1-8.11,15.27-17.61,19.55-28.35c4.13-10.36,4.97-22.12-0.87-32.02c-3.89-6.59-9.96-11.01-16.96-13.79
			c-7.35-2.92-15.37-4.05-23.24-4.08c-8.16-0.03-16.4,1.2-24.15,3.78c-6.97,2.32-13.75,5.81-19.06,11c-2.45,2.4-4.56,5.18-6.04,8.29
			c-2.55,5.33-3.63,11.31-4.01,17.17c-0.39,6.04-0.23,12.28,0.48,18.3c0.52,4.49,1.59,9.45,4.56,13c3.06,3.65,8.07,5.01,12.6,3.63
			c5.28-1.62,8.74-6.45,9.85-11.73c1.3-6.19,0.12-12.87-1.03-19c-1.07-5.64-2.61-11.25-5.1-16.43c-2.51-5.23-6.04-9.89-10.56-13.53
			c-4.71-3.78-10.21-6.56-15.84-8.66c-11.16-4.16-23.24-5.59-35.08-5.68c-5.96-0.04-11.92,0.3-17.85,0.95
			c-6.85,0.75-13.6,2.11-20.36,3.43c-6.75,1.32-13.51,2.64-20.26,3.96c0.71,0.23,1.43,0.45,2.14,0.68c0.07-4.34,1.83-8.5,4.83-11.61
			c1.57-1.63,3.46-2.91,5.56-3.73c2.33-0.92,4.8-1.46,7.11-2.45c3.33-1.43,7.34-4.88,6.14-9.01c-0.83-2.85-3.91-4.94-6.39-6.2
			c-2.91-1.49-7.36-2.83-10.36-0.84c-0.53,0.35,0.1,0.72,0.46,0.84c0.54,0.19,1.48,0.29,2-0.05c1.94-1.27,4.38-0.8,6.56-1.19
			c2.06-0.36,3.85-1.36,4.86-3.27c2.44-4.57,0.22-9.87,1.6-14.67c-0.15,0.13-0.3,0.25-0.46,0.38c3.79-1.3,7.65-2.36,11.57-3.13
			c0.61-0.12,1.2-0.45,1.61-0.01c0.48,0.52,0.22,2.13,0.22,2.75c-0.02,1.96-0.07,3.93-0.13,5.89c-0.26,8-0.84,15.99-1.74,23.95
			c-0.07,0.63,1.48,0.73,1.79,0.71c5.72-0.31,11.36-1.4,16.77-3.28c0.12-0.04,0.48-0.18,0.46-0.38c-0.19-2.03-0.44-4.06-0.77-6.08
			c-0.21-1.27-0.21-3.49-1.32-4.38c-1.08-0.88-3.03-0.81-4.08,0.06c-1.22,1-2.01,2.75-2.62,4.18c-1.33,3.11-1.99,6.77-1.41,10.14
			c0.57,3.3,4.58,3.6,7.31,3.84c2.85,0.24,6.3-0.13,7.93-2.85c0.88-1.47,1.12-3.22,1.26-4.9c0.17-2.08,0.14-4.18,0.05-6.26
			c-0.35-8.35-1.23-16.67-1.77-25.01c-0.3-4.7-0.45-9.39-0.27-14.1c0.18-4.67,0.51-9.33,0.44-14.01c-0.15,0.13-0.3,0.25-0.46,0.38
			c4.52-1.34,9.22-1.65,13.89-1.98c1.12-0.08,2.24-0.16,3.36-0.26c0.54-0.05,1.07-0.1,1.61-0.15c0.68-0.06,0.72-0.18,1.04,0.46
			c0.41,0.82,0.28,1.95,0.29,2.84c0.01,1.22,0.02,2.44,0.02,3.66c0.07,10.13,0.13,20.27,0.2,30.4c0.04,5.72,0.08,11.43,0.11,17.15
			c0.25-0.15,0.5-0.3,0.76-0.45c-2.59,0.45-5.17,0.89-7.76,1.34c0.71,0.23,1.43,0.45,2.14,0.68c-1.5-9.62-2.11-19.36-2.18-29.09
			c-0.07-9.74,0.51-19.45,0.91-29.18c0.22-5.51,0.33-11.03,0.12-16.54c-0.25,0.15-0.5,0.3-0.76,0.45c4.16-0.68,8.32-1.37,12.47-2.05
			c0.23-0.04,0.73-0.13,0.76-0.45c0.23-2.58,0.45-5.16,0.68-7.74c0.11-1.29,0.23-2.58,0.34-3.87c0.06-0.69,0.04-1.15,0.66-1.52
			c0.97-0.58,2.4-0.51,3.48-0.5c1.08,0,2.16,0.1,3.23,0.19c-0.47-0.23-0.93-0.47-1.4-0.7c-0.49,3.39-0.54,6.8-0.15,10.21
			c0.06,0.53,1.01,0.69,1.4,0.7c1.82,0.05,3.57,0.33,5.31,0.87c0.32,0.1,2.24,0.41,2.22-0.33c-0.07-2-0.14-3.99-0.2-5.99
			c-0.63,0.14-1.25,0.28-1.88,0.42c2.39,0.34,4.78,0.67,7.17,1.01c-0.34-0.22-0.68-0.43-1.02-0.65c-0.21,23.34-0.2,46.7-0.67,70.03
			c-0.13,6.49-0.47,12.98-1.47,19.4c0.25-0.15,0.5-0.3,0.76-0.45c-1.95,0.28-3.9,0.55-5.85,0.83c0.71,0.23,1.43,0.45,2.14,0.68
			c-1.64-16.39-1.68-32.93-0.08-49.32c0.2-2.08,0.43-4.17,0.69-6.25c0.23-1.9,0.3-4,0.81-5.84c0.3-1.06,1.31-1.13,2.25-1.34
			c0.99-0.22,1.98-0.41,2.98-0.58c2.02-0.35,4.06-0.6,6.11-0.74c0.94-0.06,1.88-0.11,2.81-0.13c0.76-0.02,2.08-0.27,2.79,0.06
			c0.72,0.33,0.92,1.5,1.06,2.19c0.21,1,0.35,2.01,0.46,3.03c0.44,4.02,0.26,8.08,0.15,12.12c-0.27,9.38-0.53,18.75-0.8,28.13
			c0.37-0.16,0.74-0.32,1.11-0.48c-1.6,0.01-3.19,0.01-4.79,0.02c0.6,0.24,1.19,0.47,1.79,0.71c0.93-4.45-0.55-8.77-0.98-13.18
			c-0.34-3.48-0.02-7.4,2.65-9.93c-0.35,0.11-0.7,0.22-1.04,0.33c5.18-0.34,10.36-0.68,15.55-1.03c1.26-0.08,2.52-0.17,3.78-0.25
			c1.4-0.09,2.23-0.04,3.4,0.86c2.07,1.59,4.07,3.26,6.1,4.89c1.89,1.52,3.58,2.78,4.08,5.3c0.51,2.57,0.68,5.24,1,7.84
			c0.63,5.13,1.26,10.27,1.88,15.4c0.32,2.65,0.79,5.42,0.18,8.06c-0.28,1.21-0.81,2.31-1.66,3.22c-0.53,0.57-1.69,1.59-2.54,1.33
			c0.23,0.19,0.45,0.37,0.68,0.56c0.7-13.35,1.21-26.71,1.52-40.07c0.15-6.51,0.37-13.05,0.22-19.56c-0.03-1.38-0.08-2.76-0.11-4.14
			c-0.01-0.64-0.1-1.35,0.16-1.95c0.34-0.79,1.18-0.92,1.93-1.11c3.04-0.78,6.14-1.35,9.26-1.76c7.13-0.92,14.38-0.85,21.48,0.24
			c-0.34-0.22-0.68-0.43-1.02-0.65c-0.15,18.87-1.9,37.66-2.68,56.5c-0.11,2.69-0.2,5.38-0.26,8.07c-0.03,1.28-0.05,2.56-0.07,3.84
			c-0.01,0.61,0.13,1.46-0.02,2.04c-0.09,0.35-0.31,0.56-0.35,0.95c-0.03,0.41,0.76,0.6,1.02,0.65c3.13,0.57,6.53,1.73,9.08,3.71
			c1.68,1.31-1.04,1.83-1.91,1.97c-1.82,0.29-3.65,0.57-5.47,0.86c-0.6,0.09-1.08,0.5-0.37,0.89c5.04,2.81,9.44,6.65,12.94,11.25
			c0.37,0.49,1.18,0.57,1.75,0.55C222.41,182.17,223.64,182.01,223.28,181.54L223.28,181.54z"/>
	</g>
	<g>
		<linearGradient id="SVGID_2_" gradientUnits="userSpaceOnUse" x1="189.8046" y1="29.0996" x2="66.3392" y2="249.8199">
			<stop  offset="0" style="stop-color:#70BD6B"/>
			<stop  offset="0.2298" style="stop-color:#4CC7F1"/>
			<stop  offset="0.5075" style="stop-color:#73788D"/>
			<stop  offset="0.7731" style="stop-color:#FFF051"/>
			<stop  offset="1" style="stop-color:#F1858E"/>
		</linearGradient>
		<path class="st1" d="M180.63,39.07c-2.46-0.39-5.01-0.75-7.48-0.2c-2.29,0.52-4.11,2.02-5.12,4.14
			c-2.12,4.46-0.23,10.07,2.93,13.52c3.24,3.54,8.62,5.59,13.25,3.73c4.54-1.82,6.13-6.84,6.09-11.4c-0.03-2.51-0.58-5.03-2.22-6.99
			c-1.59-1.88-3.92-3.17-6.34-3.56c-0.65-0.11-1.29-0.15-1.95-0.14c-0.57,0.01-0.65,0.45-0.25,0.79c0.52,0.44,1.29,0.64,1.96,0.63
			c0.39-0.01-0.21-0.02,0.19,0c0.12,0.01,0.25,0.01,0.37,0.03c0.03,0,0.43,0.07,0.14,0.02c0.08,0.01,0.16,0.03,0.24,0.05
			c0.05,0.01,0.45,0.11,0.11,0.02c0.12,0.03,0.24,0.07,0.36,0.11c0.08,0.03,0.16,0.05,0.24,0.08c-0.34-0.12,0.16,0.07,0.22,0.1
			c0.02,0.01,0.39,0.19,0.14,0.06c0.09,0.05,0.18,0.1,0.27,0.15c0.09,0.05,0.18,0.11,0.27,0.16c-0.01-0.01,0.33,0.22,0.17,0.11
			c0.38,0.27,0.74,0.58,1.05,0.91c1.49,1.6,2.11,3.73,2.25,5.89c0.26,3.98-0.78,8.82-4.36,11.08c-0.78,0.49-1.65,0.82-2.55,1.01
			c-0.42,0.09-0.85,0.13-1.28,0.15c-0.13,0.01-0.26,0.01-0.39,0.01c0.19,0-0.23-0.01-0.21-0.01c-0.09-0.01-0.17-0.01-0.26-0.02
			c-0.05,0-0.55-0.07-0.29-0.03c-0.23-0.04-0.46-0.09-0.7-0.14c-0.24-0.05,0.33,0.11-0.06-0.02c-0.12-0.04-0.25-0.08-0.37-0.12
			c-0.04-0.01-0.44-0.17-0.12-0.04c-0.08-0.03-0.16-0.07-0.24-0.1c-0.12-0.05-0.24-0.11-0.35-0.16c-0.08-0.04-0.16-0.08-0.23-0.11
			c0.12,0.06,0.11,0.06-0.03-0.02c-0.81-0.48-1.42-0.92-2.15-1.62c-2.98-2.9-4.8-7.74-3.63-11.85c0.62-2.17,2.07-4.09,4.24-4.84
			c0.98-0.34,2.15-0.46,3.09-0.43c1.23,0.03,2.37,0.2,3.42,0.37c0.29,0.05,1.3,0.2,1.18-0.37C182.1,39.48,181.05,39.13,180.63,39.07
			L180.63,39.07z"/>
	</g>
	<g>
		<linearGradient id="SVGID_3_" gradientUnits="userSpaceOnUse" x1="170.5353" y1="18.1018" x2="46.3071" y2="240.1857">
			<stop  offset="0" style="stop-color:#70BD6B"/>
			<stop  offset="0.2298" style="stop-color:#4CC7F1"/>
			<stop  offset="0.5075" style="stop-color:#73788D"/>
			<stop  offset="0.7731" style="stop-color:#FFF051"/>
			<stop  offset="1" style="stop-color:#F1858E"/>
		</linearGradient>
		<path class="st2" d="M165.45,36.02c-1.76-1.39-3.52-2.77-5.29-4.16c-0.5-0.39-1.39-0.42-1.98-0.29c-0.35,0.08-1.07,0.37-0.55,0.78
			c1.76,1.39,3.52,2.77,5.29,4.16c0.5,0.39,1.39,0.42,1.98,0.29C165.25,36.72,165.97,36.42,165.45,36.02L165.45,36.02z"/>
	</g>
	<g>
		<linearGradient id="SVGID_4_" gradientUnits="userSpaceOnUse" x1="183.6282" y1="25.6118" x2="60.0641" y2="246.5085">
			<stop  offset="0" style="stop-color:#70BD6B"/>
			<stop  offset="0.2298" style="stop-color:#4CC7F1"/>
			<stop  offset="0.5075" style="stop-color:#73788D"/>
			<stop  offset="0.7731" style="stop-color:#FFF051"/>
			<stop  offset="1" style="stop-color:#F1858E"/>
		</linearGradient>
		<path class="st3" d="M184.19,30.72c-0.45-2.36-0.55-4.77-0.29-7.16c0.07-0.64-2.76-0.46-2.86,0.49c-0.26,2.39-0.17,4.8,0.29,7.16
			c0.1,0.52,1.19,0.4,1.53,0.33C183.17,31.48,184.29,31.24,184.19,30.72L184.19,30.72z"/>
	</g>
	<g>
		<linearGradient id="SVGID_5_" gradientUnits="userSpaceOnUse" x1="201.9185" y1="35.9826" x2="79.0842" y2="255.5748">
			<stop  offset="0" style="stop-color:#70BD6B"/>
			<stop  offset="0.2298" style="stop-color:#4CC7F1"/>
			<stop  offset="0.5075" style="stop-color:#73788D"/>
			<stop  offset="0.7731" style="stop-color:#FFF051"/>
			<stop  offset="1" style="stop-color:#F1858E"/>
		</linearGradient>
		<path class="st4" d="M193.58,45.13c2.35,0,4.7,0,7.06,0c0.34,0,0.71,0,1.03-0.13c0.15-0.06,0.43-0.18,0.44-0.4
			c0.02-0.52-1.13-0.65-1.43-0.65c-2.35,0-4.7,0-7.06,0c-0.34,0-0.71,0-1.03,0.13c-0.15,0.06-0.43,0.18-0.44,0.4
			C192.13,45,193.28,45.13,193.58,45.13L193.58,45.13z"/>
	</g>
	<g>
		<linearGradient id="SVGID_6_" gradientUnits="userSpaceOnUse" x1="207.7375" y1="38.9842" x2="83.4348" y2="261.2014">
			<stop  offset="0" style="stop-color:#70BD6B"/>
			<stop  offset="0.2298" style="stop-color:#4CC7F1"/>
			<stop  offset="0.5075" style="stop-color:#73788D"/>
			<stop  offset="0.7731" style="stop-color:#FFF051"/>
			<stop  offset="1" style="stop-color:#F1858E"/>
		</linearGradient>
		<path class="st5" d="M189.56,61.69c2,1.6,4,3.21,6,4.81c0.49,0.4,1.39,0.42,1.98,0.29c0.35-0.08,1.06-0.37,0.55-0.78
			c-2-1.6-4-3.21-6-4.81c-0.49-0.4-1.39-0.42-1.98-0.29C189.76,60.99,189.05,61.28,189.56,61.69L189.56,61.69z"/>
	</g>
	<g>
		<linearGradient id="SVGID_7_" gradientUnits="userSpaceOnUse" x1="195.9253" y1="32.519" x2="72.3961" y2="253.3534">
			<stop  offset="0" style="stop-color:#70BD6B"/>
			<stop  offset="0.2298" style="stop-color:#4CC7F1"/>
			<stop  offset="0.5075" style="stop-color:#73788D"/>
			<stop  offset="0.7731" style="stop-color:#FFF051"/>
			<stop  offset="1" style="stop-color:#F1858E"/>
		</linearGradient>
		<path class="st6" d="M174.12,66c-0.47,2.55-0.95,5.11-1.42,7.66c-0.1,0.53,0.79,0.91,1.17,1.04c0.24,0.08,1.47,0.45,1.56-0.06
			c0.47-2.55,0.95-5.11,1.42-7.66c0.1-0.53-0.79-0.91-1.17-1.04C175.44,65.86,174.21,65.49,174.12,66L174.12,66z"/>
	</g>
	<g>
		<linearGradient id="SVGID_8_" gradientUnits="userSpaceOnUse" x1="178.2786" y1="22.7324" x2="55.1987" y2="242.7634">
			<stop  offset="0" style="stop-color:#70BD6B"/>
			<stop  offset="0.2298" style="stop-color:#4CC7F1"/>
			<stop  offset="0.5075" style="stop-color:#73788D"/>
			<stop  offset="0.7731" style="stop-color:#FFF051"/>
			<stop  offset="1" style="stop-color:#F1858E"/>
		</linearGradient>
		<path class="st7" d="M162.97,53.9c-2.88,0.27-5.67,1.12-8.17,2.61c-0.53,0.31,0,0.72,0.37,0.88c0.51,0.21,1.46,0.47,1.99,0.15
			c1.12-0.67,2.31-1.22,3.54-1.63c0.56-0.19,1.13-0.33,1.7-0.46c0.64-0.14,1.27-0.23,1.82-0.29c0.35-0.03,1.1-0.22,0.65-0.7
			C164.47,54.02,163.55,53.85,162.97,53.9L162.97,53.9z"/>
	</g>
</g>
</svg>
