<?xml version="1.0" encoding="utf-8"?>
<!-- Generator: Adobe Illustrator 24.1.0, SVG Export Plug-In . SVG Version: 6.00 Build 0)  -->
<svg version="1.1" id="圖層_1" xmlns="http://www.w3.org/2000/svg" xmlns:xlink="http://www.w3.org/1999/xlink" x="0px" y="0px"
	 viewBox="0 0 42 43" style="enable-background:new 0 0 42 43;" xml:space="preserve">
<style type="text/css">
	.st0{fill-rule:evenodd;clip-rule:evenodd;}
</style>
<g>
	<g>
		<path d="M92.57,10.44c-1.17,0-2.12,0.95-2.12,2.12c0,1.17,0.95,2.12,2.12,2.12c1.17,0,2.12-0.95,2.12-2.12
			C94.69,11.39,93.74,10.44,92.57,10.44z M83.16,13.16c-4.9,0-8.89,3.99-8.89,8.89s3.99,8.89,8.89,8.89s8.89-3.99,8.89-8.89
			S88.06,13.16,83.16,13.16z M83.16,27.74c-3.14,0-5.7-2.55-5.7-5.7c0-3.14,2.55-5.69,5.7-5.69c3.14,0,5.69,2.55,5.69,5.69
			C88.86,25.19,86.3,27.74,83.16,27.74z M101.1,14.66c0-5.99-4.85-10.84-10.84-10.84H75.95c-5.99,0-10.84,4.85-10.84,10.84v14.31
			c0,5.99,4.86,10.84,10.84,10.84h14.31c5.99,0,10.84-4.85,10.84-10.84V14.66z M97.71,28.97c0,4.11-3.33,7.45-7.45,7.45H75.95
			c-4.11,0-7.45-3.33-7.45-7.45V14.66c0-4.11,3.33-7.45,7.45-7.45h14.31c4.11,0,7.45,3.33,7.45,7.45V28.97z"/>
	</g>
	<g>
		<g>
			<g>
				<path d="M163.05,10.86c-1.11,0.5-2.34,0.81-3.54,1.01c0.57-0.1,1.41-1.13,1.75-1.54c0.51-0.64,0.94-1.36,1.18-2.14
					c0.03-0.06,0.05-0.14-0.01-0.18c-0.08-0.03-0.13-0.01-0.19,0.02c-1.34,0.72-2.73,1.24-4.2,1.61c-0.12,0.03-0.21,0-0.29-0.08
					c-0.12-0.14-0.24-0.27-0.37-0.38c-0.62-0.53-1.28-0.94-2.03-1.25c-0.98-0.4-2.06-0.57-3.12-0.5c-1.03,0.07-2.04,0.36-2.96,0.84
					c-0.92,0.48-1.74,1.15-2.39,1.95c-0.67,0.83-1.17,1.81-1.43,2.86c-0.25,1.01-0.23,2-0.08,3.02c0.02,0.17,0.01,0.19-0.14,0.17
					c-5.77-0.86-10.55-2.92-14.43-7.35c-0.17-0.19-0.26-0.19-0.4,0.01c-1.7,2.55-0.87,6.64,1.25,8.65c0.28,0.27,0.57,0.54,0.89,0.78
					c-0.11,0.02-1.53-0.13-2.78-0.78c-0.17-0.11-0.25-0.05-0.27,0.15c-0.02,0.28,0.01,0.53,0.05,0.83c0.33,2.58,2.11,4.97,4.56,5.9
					c0.29,0.12,0.61,0.23,0.93,0.28c-0.56,0.12-1.13,0.21-2.73,0.08c-0.2-0.04-0.28,0.06-0.2,0.25c1.2,3.28,3.8,4.25,5.74,4.81
					c0.26,0.05,0.52,0.05,0.78,0.11c-0.02,0.02-0.03,0.02-0.05,0.05c-0.64,0.98-2.88,1.71-3.92,2.08c-1.89,0.66-3.95,0.96-5.95,0.76
					c-0.32-0.05-0.39-0.04-0.47,0c-0.09,0.05-0.01,0.13,0.09,0.21c0.41,0.27,0.82,0.51,1.24,0.74c1.27,0.67,2.59,1.21,3.98,1.59
					c7.15,1.97,15.2,0.52,20.57-4.81c4.22-4.19,5.69-9.97,5.69-15.75c0-0.23,0.27-0.35,0.43-0.47c1.1-0.82,1.97-1.81,2.79-2.91
					c0.18-0.25,0.17-0.47,0.17-0.56c0-0.02,0-0.03,0-0.03C163.18,10.76,163.19,10.79,163.05,10.86z"/>
			</g>
			<g>
				<path class="st0" d="M138.57,36.11C141.54,36.11,138.72,36.11,138.57,36.11C138.96,36.11,138.56,36.11,138.57,36.11z"/>
			</g>
			<g>
				<path class="st0" d="M138.57,36.11C138.53,36.11,138,36.11,138.57,36.11C138.57,36.11,138.48,36.11,138.57,36.11z"/>
			</g>
			<g>
				<path class="st0" d="M139.75,36.14C139.75,36.08,140.37,36.14,139.75,36.14C139.75,36.11,139.83,36.14,139.75,36.14z"/>
			</g>
			<g>
				<path class="st0" d="M152.13,7.44c-0.04,0.03-0.09,0.03-0.14,0C152.04,7.44,152.09,7.44,152.13,7.44z"/>
			</g>
		</g>
	</g>
	<g>
		<g>
			<path class="st0" d="M15.85,21.96v17.4c0,0.25,0.2,0.45,0.45,0.45h6.46c0.25,0,0.45-0.2,0.45-0.45V21.67h4.69
				c0.24,0,0.43-0.18,0.45-0.42l0.45-5.33c0.02-0.26-0.19-0.49-0.45-0.49h-5.14v-3.78c0-0.89,0.72-1.6,1.6-1.6h3.61
				c0.25,0,0.45-0.2,0.45-0.45V4.27c0-0.25-0.2-0.45-0.45-0.45h-6.1c-3.58,0-6.48,2.9-6.48,6.48v5.14h-3.23
				c-0.25,0-0.45,0.2-0.45,0.45v5.33c0,0.25,0.2,0.45,0.45,0.45h3.23V21.96z"/>
		</g>
	</g>
</g>
</svg>
