<?xml version="1.0" encoding="utf-8"?>
<!-- Generator: Adobe Illustrator 24.1.0, SVG Export Plug-In . SVG Version: 6.00 Build 0)  -->
<svg version="1.1" id="圖層_1" xmlns="http://www.w3.org/2000/svg" xmlns:xlink="http://www.w3.org/1999/xlink" x="0px" y="0px"
	 viewBox="0 0 242 309" style="enable-background:new 0 0 242 309;" xml:space="preserve">
<style type="text/css">
	.st0{fill:url(#SVGID_1_);}
</style>
<g>
	<linearGradient id="SVGID_1_" gradientUnits="userSpaceOnUse" x1="171.5005" y1="276.7859" x2="85.8035" y2="40.8411">
		<stop  offset="0" style="stop-color:#70BD6B"/>
		<stop  offset="0.2973" style="stop-color:#F1858E"/>
		<stop  offset="0.6699" style="stop-color:#4CC7F1"/>
		<stop  offset="0.6841" style="stop-color:#55C9E9"/>
		<stop  offset="0.8392" style="stop-color:#B0DE98"/>
		<stop  offset="0.9479" style="stop-color:#E9EB65"/>
		<stop  offset="1" style="stop-color:#FFF051"/>
	</linearGradient>
	<path class="st0" d="M55.26,92.33c1.39,3.41,0.05,7.08-1.28,10.3c-1.3,3.15-2.78,6.42-2.66,9.9c0.15,4.46,2.92,8.06,7.16,9.48
		c3.86,1.29,8.14,0.96,12.15,1.06c2.01,0.05,3.9,0.27,5.83,0.85c2.29,0.69,5.25,1.84,6.26,4.19c1.2,2.79-0.34,6.43-2.96,7.84
		c-1.25,0.68-2.77,0.88-4.16,0.59c-0.27-0.06-1.98-0.47-2.03-0.91c0.02,0.2,0.73-0.51,0.73-0.51c0.36-0.17,1.05-0.16,0.87-0.4
		c0.4,0.55-0.52,1.9-0.83,2.27c-0.45,0.54-1.03,0.99-1.67,1.31c-1.24,0.62-2.7,0.73-4.04,0.4c-1.07-0.26-2.78-1.01-2.43-2.38
		c0.33-1.29,2.1-1.98,3.23-2.32c2.56-0.76,5.87-1.24,8.48-0.52c3.13,0.86,3.59,3.72,3.43,6.56c-0.15,2.65-0.62,5.73-1.91,8.08
		c-1.35,2.46-3.8,4.03-6.18,5.41c-2.45,1.42-5.41,2.59-7.26,4.79c-2.04,2.43-1.91,5.9-2.05,8.88c-0.34,7.6-0.17,15.22,0.5,22.8
		c0.55,6.27,1.24,12.75,4,18.5c2.67,5.56,7.28,9.23,13.06,11.29c3.12,1.12,6.39,1.84,9.62,2.61c3.64,0.86,7.31,1.61,11.05,1.86
		c7.33,0.5,14.47-1.25,21.43-3.35c7.19-2.17,14.39-4.39,21.42-7.02c2.6-0.97,5.5-1.87,7.33-4.06c2.11-2.52,2.28-6.57,2.75-9.67
		c1.1-7.27,1.54-14.64,1.3-21.99c-0.11-3.31,0.02-7.03-0.95-10.23c-0.92-3-3.2-4.61-6.03-5.67c-13.95-5.23-28.42-9.15-43.11-11.72
		c-3.57-0.62-7.15-1.16-10.74-1.63c0.65,0.88,1.29,1.76,1.94,2.65c0.13-2.7,0.27-5.4,0.4-8.09c0.06-1.25,0.12-2.49,0.19-3.74
		c0.05-1-0.18-2.68,0.56-3.47c0.76-0.81,2.67-0.83,3.73-1.04c1.32-0.26,2.65-0.52,3.97-0.79c2.65-0.52,5.3-1.05,7.95-1.57
		c2.13-0.42,5.11-1.41,7.17-0.31c1.54,0.82,1.5,3.12,0.38,4.28c-0.64,0.66-3.05,1.51-3.46,0.66c-0.35-0.73,0.58-2.05,1.02-2.55
		c0.66-0.75,1.55-1.35,2.47-1.73c4.05-1.7,9.6,0.28,11.88,3.91c-0.02-0.56-0.05-1.11-0.07-1.67c-4.53,5.42-12.07,7.21-18.79,5.33
		c-7.2-2.01-12.58-7.92-16.17-14.17c-0.06,0.59-0.12,1.17-0.18,1.76c10.71-2.83,21.58-5.35,32.53-7.13
		c2.54-0.41,5.27-0.71,7.69,0.37c2.21,0.99,3.99,2.78,6.01,4.09c3.69,2.4,8.29,4.51,12.76,4.82c2.64,0.18,4-1.33,4.61-3.75
		c0.74-2.91,1.13-5.93,1.38-8.92c0.1-1.15-1.08-2.6-2.24-2.67c-8.57-0.51-9.64-12-11.18-18.19c-0.88-3.53-1.9-7.15-4.83-9.56
		c-2.38-1.96-5.45-2.61-8.36-3.42c-3.91-1.09-7.66-2.7-11.54-3.91c-4.41-1.38-8.88-2.55-13.4-3.51c-8.32-1.77-16.98-3.08-25.5-3.05
		c-4.56,0.01-9.13,0.65-13.29,2.57c-4.04,1.86-7.55,4.93-12.12,5.44c0.72,0.99,1.45,1.97,2.17,2.96
		c6.2-12.32,12.59-25.16,23.06-34.52c12.18-10.89,28.62-14.3,44.49-15.88c8.48-0.85,16.98-0.58,24.95,2.71
		c6.77,2.79,12.61,7.77,18.06,12.53c5.65,4.92,10.82,10.55,14.18,17.27c3.72,7.46,4.78,15.9,5.34,24.1
		c0.65,9.57,1.17,19.29,0.37,28.86c-0.41,4.91-1.19,9.84-2.69,14.55c-1.11,3.51-3.78,8.79-8.4,7.15c0.45,0.35,0.9,0.7,1.36,1.05
		c0.34,0.53,0.03,0.12,0.15-0.08c0.12-0.19,0.16-0.52,0.28-0.74c0.25-0.47,0.65-0.89,1.11-1.17c0.87-0.53,1.99-0.56,2.62,0.33
		c1.37,1.97,0.17,5.24-1.13,6.91c-1.6,2.06-4.34,3.14-6.9,2.35c-2.71-0.84-3.27-3.5-3.1-6.02c0.32-4.95,3.2-10.01,7.38-12.77
		c2.96-1.95,7.6-2.93,10.82-0.94c2.13,1.31,2.78,4.04,3.11,6.35c0.47,3.29,0.23,6.68-0.22,9.96c-0.4,2.93-1.01,5.84-1.85,8.68
		c-1.27,4.27-3.75,7.86-7.01,10.88c-6.18,5.75-14.49,9.68-18.78,17.24c-2.2,3.88-2.96,8.59-3.31,12.97
		c-0.35,4.47-0.26,9.05,0.44,13.49c0.77,4.9,3.02,9.69,6.83,12.98c2.06,1.78,4.48,2.47,6.83,3.74c1.02,0.55,1.84,1.22,1.43,2.5
		c-0.43,1.35-2.91,0.81-4.06,0.87c-6.48,0.33-12.78,2.09-18.9,4.1c-5.97,1.96-11.9,4.06-17.76,6.32
		c-5.95,2.29-11.83,4.77-17.56,7.54c-4.88,2.36-9.66,4.84-14.68,6.91c-9.71,4.01-19.86,7.4-28.76,13.06
		c-2.07,1.32-4.05,2.78-5.9,4.39c-0.94,0.82,0.62,2.63,1.37,3.01c9.42,4.81,19.9-0.33,25.32-8.48c1.38-2.08,2.49-4.33,3.37-6.66
		c0.26-0.71,0.22-0.82,0.9-0.95c0.56-0.1,1.23-0.05,1.79-0.04c1.17,0.02,2.33,0.13,3.48,0.33c4.55,0.77,8.82,2.79,12.33,5.74
		c3.86,3.24,6.61,7.65,7.63,12.57c0.16-0.31,0.31-0.63,0.47-0.94c-5.81,1.67-10.19-2.72-13.38-6.91c-3.2-4.19-6.5-8.13-10.5-11.61
		c-7.64-6.64-16.97-11.33-26.88-13.54c-1.66-0.37-0.04,2.95,1.15,3.21c10.25,2.29,19.86,7.31,27.4,14.58
		c3.9,3.76,6.71,8.33,10.39,12.26c3.38,3.62,8.41,6.74,13.57,5.26c0.44-0.13,0.56-0.52,0.47-0.94
		c-2.8-13.64-16.38-24.46-30.57-23.15c-0.19,0.03-0.33,0.13-0.42,0.3c-1.91,5.53-5.02,10.79-9.92,14.21
		c-4.9,3.41-11.62,4.59-17.08,1.8c0.46,1,0.91,2.01,1.37,3.01c7.3-6.38,16.5-10.17,25.42-13.75c4.5-1.81,9.03-3.55,13.46-5.51
		c4.92-2.18,9.62-4.79,14.51-7.02c10.89-4.96,22.23-9.18,33.67-12.7c5.77-1.77,11.74-3.19,17.81-3.23c1.17-0.01,2.03,0.26,2.75-0.79
		c0.54-0.78,0.64-1.8,0.52-2.72c-0.29-2.15-1.68-4.08-3.46-5.29c-2.07-1.42-4.63-1.9-6.64-3.43c-1.8-1.38-3.09-3.32-3.92-5.4
		c-1.59-3.96-1.76-8.53-1.73-12.74c0.03-4.46,0.42-9.08,1.86-13.34c1.29-3.82,3.74-6.92,6.7-9.62c5.88-5.37,13.36-9.14,17.82-15.93
		c3.4-5.17,4.58-12.13,5.06-18.2c0.45-5.71,0.07-12.52-4.34-16.77c-2.18-2.1-5.02-3-8.03-2.9c-4.44,0.15-8.16,2.68-10.76,6.12
		c-2.7,3.58-4.38,8.44-3.61,12.92c0.74,4.29,4.09,8.24,8.68,8.46c4.67,0.22,8.19-4.01,8.28-8.43c0.06-3.36-2.75-9.3-7.03-8.21
		c-4.34,1.1-3.58,7.54,0.7,8.02c5.22,0.59,7.68-5.02,8.85-9.06c3.28-11.27,3.11-23.11,2.59-34.72c-0.5-10.99-0.91-22.38-5.44-32.61
		c-4.16-9.39-11.37-16.92-19.21-23.43c-3.91-3.25-7.92-6.53-12.35-9.05c-4.31-2.46-9.18-4.09-14.07-4.92
		c-5.71-0.96-11.54-0.67-17.27-0.06c-5.79,0.61-11.58,1.46-17.25,2.82c-10.04,2.4-19.53,6.5-27.19,13.47
		c-6.89,6.26-12.08,14.11-16.56,22.18c-2.27,4.09-4.38,8.27-6.49,12.44c-0.52,1.03,1.05,3.08,2.17,2.96
		c3.86-0.43,7.05-2.61,10.35-4.46c3.64-2.03,7.53-3.1,11.7-3.42c8.76-0.67,17.93,0.81,26.5,2.52c4.33,0.87,8.63,1.92,12.86,3.17
		c4.25,1.25,8.34,2.94,12.57,4.24c2.67,0.82,6.25,1.16,8.35,3.17c1.29,1.24,1.69,3.38,2.12,5.03c0.54,2.07,0.94,4.17,1.42,6.25
		c1.68,7.21,5.64,16.61,14.34,17.13c-0.75-0.89-1.49-1.78-2.24-2.67c-0.22,2.6-0.57,5.18-1.11,7.73c-0.21,1-0.42,2.24-1.15,3.02
		c-0.88,0.94-2.22,0.82-3.38,0.62c-4.73-0.81-8.99-2.97-12.77-5.83c-1.68-1.27-3.39-2.52-5.42-3.18c-2.19-0.71-4.56-0.6-6.81-0.27
		c-5.22,0.75-10.42,1.89-15.58,2.99c-5.96,1.28-11.88,2.71-17.77,4.26c-0.79,0.21-0.45,1.27-0.18,1.76
		c4.12,7.18,10.08,13.87,18.13,16.7c7.3,2.57,16.13,0.99,21.18-5.06c0.39-0.47,0.24-1.18-0.07-1.67c-3.01-4.78-8.69-8.51-14.6-7.25
		c-2.47,0.53-5.07,2.36-5.54,4.96c-0.45,2.44,1.18,5.11,3.43,6.09c1.98,0.86,4.52,0.28,5.64-1.62c1.35-2.31,0.28-5.32-1.24-7.26
		c-1.96-2.5-4.78-3.18-7.84-2.74c-3.82,0.55-7.62,1.48-11.41,2.23c-2.17,0.43-4.43,0.73-6.57,1.31c-1.69,0.46-2.16,1.6-2.27,3.23
		c-0.31,4.56-0.46,9.13-0.68,13.7c-0.05,0.96,0.9,2.51,1.94,2.65c15.89,2.07,31.55,5.68,46.72,10.82c1.82,0.61,3.63,1.25,5.43,1.91
		c1.83,0.67,3.82,0.99,4.22,3.11c0.74,3.89,0.65,8.1,0.65,12.05c0,7.91-0.52,16.2-2.41,23.91c-0.89,3.65-3.77,5.07-7.04,6.32
		c-3.76,1.44-7.58,2.73-11.41,3.96c-7.62,2.45-15.36,5.23-23.32,6.4c-8.17,1.21-15.92-0.47-23.82-2.46
		c-3.24-0.82-6.54-1.72-9.43-3.44c-2.9-1.73-4.89-4.3-6.16-7.38c-2.74-6.67-3.04-14.47-3.42-21.56c-0.23-4.14-0.29-8.29-0.2-12.44
		c0.04-1.98,0.12-3.95,0.23-5.93c0.1-1.84,0.14-3.81,1.1-5.44c1.57-2.68,5.25-3.97,7.83-5.48c2.47-1.45,4.91-3.14,6.31-5.7
		c1.36-2.49,1.9-5.86,2.05-8.66c0.16-2.83-0.32-5.73-2-8.09c-1.74-2.44-4.31-3.85-7.31-4.07c-2.75-0.2-5.97,0.18-8.5,1.29
		c-2.82,1.24-3.54,3.82-2.01,6.46c1.41,2.42,4.01,4.19,6.84,4.39c2.77,0.2,5.84-1.22,6.65-4.03c0.71-2.45-1.08-6.07-3.79-6.48
		c-1.2-0.18-2.38,0.5-2.82,1.63c-0.53,1.37,0.32,2.93,1.19,3.94c1.94,2.24,5.26,3.31,8.15,2.47c2.87-0.84,4.74-3.32,5.24-6.19
		c0.52-2.98-0.66-5.97-2.64-8.19c-3.31-3.72-8.55-5.23-13.4-5.42c-4.25-0.17-9.16,0.48-13.13-1.36c-5.88-2.72-0.32-11.78,1.01-15.79
		c1.07-3.22,1.5-6.57,0.19-9.78c-0.28-0.69-0.96-1.82-1.82-1.9C55.11,90.94,55,91.68,55.26,92.33L55.26,92.33z"/>
</g>
</svg>
