<?xml version="1.0" encoding="utf-8"?>
<!-- Generator: Adobe Illustrator 24.1.0, SVG Export Plug-In . SVG Version: 6.00 Build 0)  -->
<svg version="1.1" id="圖層_1" xmlns="http://www.w3.org/2000/svg" xmlns:xlink="http://www.w3.org/1999/xlink" x="0px" y="0px"
	 viewBox="0 0 242 309" style="enable-background:new 0 0 242 309;" xml:space="preserve">
<style type="text/css">
	.st0{fill:url(#SVGID_1_);}
</style>
<g>
	<linearGradient id="SVGID_1_" gradientUnits="userSpaceOnUse" x1="47.2849" y1="263.4858" x2="173.1883" y2="63.961">
		<stop  offset="0" style="stop-color:#70BD6B"/>
		<stop  offset="0.2973" style="stop-color:#F1858E"/>
		<stop  offset="0.6699" style="stop-color:#4CC7F1"/>
		<stop  offset="0.6841" style="stop-color:#55C9E9"/>
		<stop  offset="0.8392" style="stop-color:#B0DE98"/>
		<stop  offset="0.9479" style="stop-color:#E9EB65"/>
		<stop  offset="1" style="stop-color:#FFF051"/>
	</linearGradient>
	<path class="st0" d="M64.19,113.47c1.91,0.68,4.34,0.12,6.32-0.01c2.35-0.15,4.71-0.32,7.06-0.45c0.32-0.02,1.34,0.2,0.85-0.26
		c0.24,0.23,0.33,0.89,0.43,1.18c0.27,0.83,0.53,1.67,0.74,2.52c0.46,1.82,0.79,3.78,0.44,5.65c-0.74,4-4.42,5.53-8.14,5.68
		c-0.4,0.02-0.85,0.05-1.25-0.01c-0.12-0.02-0.24-0.03-0.37-0.05c-0.61-0.25-0.5-0.1,0.35,0.44c0.28,0.04,1.02-0.53,1.35-0.61
		c0.49-0.12,0.99-0.14,1.49-0.1c2.05,0.15,3.95,1.32,5.64,2.37c-0.33-0.86-0.66-1.72-0.99-2.58c-2.04,3.7-5.82,5.73-8.87,8.5
		c-3.45,3.13-5.06,7.05-5.42,11.64c-0.42,5.32,0.27,10.79,0.9,16.07c0.66,5.59,1.57,11.15,2.63,16.67
		c1.02,5.35,2.49,10.66,3.31,16.04c0.68,4.44,0.95,9,3.31,12.95c4.94,8.3,13.98,13.96,23.69,14.25c5.48,0.16,10.87-1.04,16.1-2.54
		c5.36-1.53,10.7-3.18,16.03-4.82c4.64-1.43,9.26-3.03,13.54-5.34c3.84-2.08,8.81-5,9.52-9.69c0.83-5.51,0.89-11.26,1.04-16.82
		c0.15-5.63,0.18-11.3-0.13-16.93c-0.26-4.78-1.25-9.46-4.58-13.1c-2.91-3.17-7.02-4.95-11.18-5.79c-5.41-1.1-10.98-0.49-16.44-1.15
		c-5.33-0.64-10.22-2.82-15.03-5.06c-2.33-1.08-4.68-1.55-7.21-1.92c-2.53-0.38-5.06-0.86-7.11-2.49c-1.78-1.41-2.77-3.3-2.77-5.57
		c0-2.16,0.56-4.28,0.62-6.44c0.06-2.01-0.45-3.98-1.78-5.54c-0.07,0.77-0.14,1.54-0.21,2.32c6.1-0.86,12.36-1.33,18.53-1.01
		c1.34,0.07,4.82,0.46,2.81,2.43c-0.62,0.61-1.76,1.06-2.45,0.34c-0.67-0.7-0.39-2.01-0.12-2.8c-0.22,0.23-0.43,0.46-0.65,0.7
		c5.99-1.55,12.12-1.96,18.27-1.23c-0.55-0.44-1.11-0.89-1.66-1.33c1.53,3.12-2.84,5.34-5.2,5.76c-3.48,0.63-7.14,0.66-10.66,0.94
		c-3.13,0.24-6.72,0.58-9.6-0.92c-2.5-1.3-3.71-3.91-4.38-6.51c-0.71-2.76-0.98-5.69-1.06-8.54c-0.05-1.52,0.04-3.28,1.22-4.41
		c1.05-1.01,2.61-1.28,4.01-1.37c3.75-0.23,7.6,0.09,11.35,0.16c3.92,0.07,7.83,0.14,11.75,0.21c7.94,0.14,15.87,0.29,23.81,0.43
		c3.62,0.07,7.34,0.39,10.95,0.16c2.58-0.16,4.85-1.98,3.45-4.71c-1.41-2.76-5.24-3.46-8.03-3.78c-3.51-0.41-7.05-0.03-10.56,0.22
		c-7.61,0.53-15.31,0.45-22.86-0.81c-7.47-1.25-14.76-3.78-21.15-7.87c-3.05-1.95-5.85-4.23-8.34-6.85
		c-2.11-2.22-4.15-5.97-7.73-5.5c-0.3,0.04-0.61,0.41-0.65,0.7c-1.3,10.01-9.23,18.23-19,20.56c-10.7,2.56-23.01-1.36-30.55-9.26
		c-3.4-3.56-5.71-8.18-5.67-13.16c0.04-5.5,2.9-10.84,6.34-15c6.42-7.76,16.51-12.29,26.52-12.75c6.78-0.31,13.54,1,19.87,3.37
		c3.19,1.19,6.27,2.63,9.24,4.29c2.81,1.57,5.92,3.2,7.77,5.91c0.4,0.59,1.35,1.23,2.06,0.76c7.14-4.82,14.31-9.66,21.92-13.74
		c7.38-3.96,15.51-7.58,23.9-8.64c4.39-0.55,8.72-0.06,12.79,1.72c4,1.75,7.69,4.26,11.42,6.51c8.04,4.84,16.07,9.69,24.11,14.53
		c12.43,7.5,27.8,16.26,28.25,32.63c0.1,3.61-0.74,6.96-2.48,10.12c-0.51,0.93-0.37,1.74-0.34,2.78c0.06,1.77-0.15,3.56-0.26,5.33
		c-0.3,4.68-0.61,9.35-0.91,14.03c-0.12,1.82-0.44,3.61-0.59,5.43c-0.13,1.56-0.2,3.13-0.52,4.66c-0.53,2.54-3.43,7.27-6.53,5.1
		c-1.39-0.97-2.27-2.69-3.36-3.95c-1.24-1.42-2.7-2.53-4.53-3.08c-3.49-1.06-7.35-0.29-10.31,1.8c-3.07,2.17-4.19,5.38-5.7,8.64
		c-1.59,3.46-4.32,6.29-5.13,10.11c-0.68,3.24,0.36,6.98,3.67,8.36c2.8,1.16,6.62,0.02,8.56-2.25c2.14-2.51,0.7-6.31-1.7-8.1
		c-2.8-2.09-6.46-1.01-8.63,1.46c-2.33,2.64-2.9,6.56-1.01,9.6c1.62,2.59,4.7,4.18,7.77,3.86c3.5-0.37,6.29-3.17,7.84-6.14
		c3.43-6.57,2.1-15.64-4.86-19.36c-6.84-3.66-12.78,1.86-15.85,7.63c-1.87,3.52-3.28,7.35-4.31,11.19
		c-0.97,3.59-1.89,7.55-1.67,11.29c0.2,3.5,1.78,6.86,5.24,8.18c1.55,0.59,3.25,0.75,4.86,1.15c1.57,0.39,3.13,0.86,4.63,1.47
		c2.56,1.05,5.23,2.65,6.07,5.45c1.27,4.25,2.01,8.73,3,13.06c0.79,3.44,1.43,7.89,5.09,9.5c1.27,0.56,2.81,0.67,3.98-0.19
		c1.3-0.96,1.62-2.67,1.76-4.17c0.4-4.28,0.58-8.59,0.87-12.88c-0.34,0.36-0.68,0.73-1.03,1.09c-0.41,0-0.22-0.45-0.02,0.23
		c0.08,0.28,0.22,0.58,0.34,0.85c0.21,0.47,0.46,0.92,0.77,1.33c0.74,1,1.78,1.8,2.93,2.27c1.99,0.81,4.5,0.64,6.1-0.9
		c0.98-0.94,1.48-2.22,1.92-3.47c0.62-1.76,1.15-3.56,1.65-5.35c0.95-3.37,1.76-6.78,2.42-10.22c0.66-3.44,1.17-6.92,1.52-10.41
		c0.3-2.91,0.35-5.5-0.83-8.24c-2.27-5.25-7.59-8.23-13.25-6.86c-5.9,1.43-9.88,6.46-12.2,11.76c-1.3,2.97-2.21,6.06-3.23,9.13
		c-1.08,3.26-2.26,6.48-3.42,9.71c-4.19,11.67-8.67,25.09-4.49,37.41c3.83,11.29,14.24,17.68,23.05,24.86
		c0.2-0.87,0.4-1.75,0.6-2.62c-3.5-1.46-7.29-0.66-10.45,1.26c-3.58,2.17-5.96,5.73-8.34,9.06c-2.38,3.32-4.99,6.26-8.42,8.55
		c-3.16,2.11-6.67,3.59-10.3,4.68c-7.85,2.35-16.17,2.99-24.31,3.45c-9.35,0.52-19.02,0.44-28.03-2.38
		c-8.27-2.59-16.22-7.53-20.61-15.16c-0.15,0.63-0.31,1.27-0.46,1.9c4.4-0.38,8.59-1.66,12.49-3.72c1.4-0.74-0.67-3.72-2.14-2.94
		c-3.7,1.96-7.72,3.09-11.89,3.45c-0.86,0.07-0.74,1.42-0.46,1.9c9,15.63,27.49,20.51,44.46,20.44c8.71-0.03,17.66-0.59,26.23-2.22
		c7.52-1.43,15.16-4.08,20.86-9.36c3.61-3.35,5.91-7.7,9.15-11.35c2.97-3.36,7.8-6.39,12.38-4.47c1.77,0.74,1.49-1.9,0.6-2.62
		c-6.8-5.54-15.14-10.53-19.67-18.27c-5.64-9.65-3.33-21.65-0.2-31.72c1.83-5.9,4.12-11.65,6.08-17.51
		c1.82-5.43,3.28-11.36,7.28-15.69c3.2-3.46,9.59-6.65,13.95-3.23c4.51,3.54,2.74,10.12,2.01,14.91
		c-1.05,6.87-2.47,14.03-5.01,20.53c-0.5,1.29-1.25,2.44-2.66,2.81c-0.96,0.25-2.2,0.16-3-0.49c-0.73-0.58-0.87-1.68-1.32-2.47
		c-0.61-1.07-1.58-2.08-2.9-2.08c-0.71,0-0.98,0.44-1.03,1.09c-0.27,4.03-0.45,8.08-0.81,12.1c-0.11,1.22-0.26,3.19-1.82,3.4
		c-1.93,0.25-2.42-2.3-2.74-3.64c-0.92-3.8-1.75-7.62-2.62-11.44c-0.74-3.23-1.24-6.34-3.51-8.89c-3.98-4.48-9.8-5.19-15.25-6.69
		c-1.49-0.41-2.29-1.08-2.69-2.57c-0.41-1.53-0.31-3.21-0.12-4.77c0.46-3.77,1.36-7.51,2.59-11.1c1.86-5.41,5.11-13.8,11.66-14.88
		c3.15-0.52,6.23,1.46,7.52,4.28c1.5,3.3,0.94,7.36-0.7,10.5c-1.39,2.66-3.96,5.45-7.23,5.38c-1.21-0.03-2.59-0.47-3.37-1.42
		c-1.12-1.36-0.67-3.42,0.1-4.84c0.77-1.41,2.05-2.66,3.63-3.13c1.29-0.38,2.98-0.22,3.31,1.33c0.57,2.72-4.74,4.77-6.76,3.63
		c-1.24-0.7-0.94-2.53-0.67-3.68c0.41-1.77,1.3-3.34,2.25-4.87c0.9-1.44,1.87-2.84,2.58-4.38c0.71-1.55,1.26-3.16,2.11-4.65
		c1.65-2.88,4.49-4.92,7.82-5.39c1.63-0.23,3.5-0.07,4.95,0.78c1.49,0.88,2.36,2.55,3.43,3.84c2,2.4,4.97,4.45,8.04,2.62
		c2.22-1.31,3.66-3.54,4.24-6.01c0.66-2.78,0.61-5.73,1.02-8.56c0.58-4,0.59-8.15,0.86-12.19c0.21-3.24,0.67-6.56,0.55-9.8
		c-0.01-0.43-0.11-0.93-0.05-1.36c0.07-0.49,0.09-0.09,0.07-0.04c0.14-0.27,0.3-0.52,0.45-0.79c0.75-1.42,1.33-2.95,1.72-4.5
		c1.53-6.14,0.26-12.82-2.47-18.44C211.73,70.69,198,63.81,186.38,56.8c-7.09-4.28-14.19-8.55-21.28-12.83
		c-6.52-3.93-12.95-8.22-20.85-8.23c-7.49-0.01-14.85,2.63-21.59,5.66c-6.95,3.12-13.5,7.01-19.89,11.15
		c-3.09,2-6.13,4.06-9.18,6.11c0.69,0.25,1.37,0.5,2.06,0.76c-1.83-2.67-4.49-4.47-7.24-6.11c-2.77-1.65-5.64-3.14-8.6-4.43
		c-6.02-2.62-12.49-4.41-19.07-4.82c-11.42-0.71-23.17,3.1-31.19,11.42c-4.02,4.18-7.29,9.5-8.25,15.28
		c-0.93,5.65,0.72,11.22,3.94,15.89c6.68,9.7,19.36,15.41,31.05,14.77c12.62-0.7,24.04-9.93,25.7-22.72
		c-0.22,0.23-0.43,0.46-0.65,0.7c0.99-0.13,1.7,0.82,2.27,1.49c0.79,0.94,1.58,1.87,2.41,2.77c1.51,1.61,3.15,3.1,4.88,4.48
		c3.49,2.77,7.31,5.06,11.37,6.9c8.99,4.06,18.93,5.62,28.74,5.74c5.22,0.06,10.39-0.51,15.59-0.67c2.6-0.08,5.28,0,7.78,0.78
		c0.46,0.14,0.96,0.28,1.39,0.51c0.52,0.28,0.14,0.06,0.08,0.13c-0.09,0.1-0.25,0.26-0.38,0.3c-1,0.37-1.86,0.45-2.94,0.43
		c-11.05-0.2-22.1-0.4-33.15-0.6c-5.52-0.1-11.05-0.2-16.57-0.3c-3.68-0.07-9.24-1.08-12.12,1.91c-2.76,2.86-1.7,8.19-1.19,11.72
		c0.55,3.84,1.6,7.73,4.25,10.69c2.95,3.29,7.17,4.17,11.43,4.03c2.34-0.08,4.67-0.31,7-0.5c2.47-0.19,5.03-0.21,7.46-0.74
		c3.69-0.81,7.06-3.87,6.18-7.95c-0.2-0.92-0.63-2.07-1.48-2.58c-0.97-0.58-2.48-0.47-3.57-0.54c-2.48-0.16-4.96-0.13-7.44,0.07
		c-2.65,0.21-5.28,0.63-7.86,1.27c-1.08,0.27-1.47,0.52-1.7,1.65c-0.18,0.89-0.15,1.84,0.05,2.72c0.77,3.37,4.77,6.57,7.86,3.62
		c3-2.86,0.14-7.06-3.12-8.04c-2.01-0.6-4.16-0.51-6.23-0.52c-2.65,0-5.3,0.1-7.95,0.28c-2.63,0.18-5.25,0.47-7.86,0.83
		c-1.09,0.15-0.64,1.82-0.21,2.32c1.29,1.52,0.83,3.7,0.58,5.53c-0.26,1.96-0.54,3.93-0.2,5.89c0.74,4.18,4.11,7.58,7.96,9.16
		c2.16,0.88,4.51,1.13,6.8,1.49c2.52,0.4,4.62,1.31,6.92,2.36c4.48,2.05,9.09,3.84,14.02,4.43c8.31,0.99,20.46-1.35,26.08,6.68
		c2.76,3.94,2.42,9.51,2.52,14.09c0.11,5.44,0.05,10.88-0.2,16.31c-0.12,2.67-0.28,5.33-0.48,7.99c-0.2,2.67-0.18,5.3-2.2,7.3
		c-3.22,3.2-7.53,5.42-11.7,7.12c-4.47,1.81-9.12,3.13-13.73,4.52c-5.15,1.55-10.28,3.26-15.52,4.45
		c-4.93,1.12-10.04,1.67-15.04,0.68c-4.59-0.91-8.53-3.35-11.87-6.54c-1.64-1.57-3.19-3.34-4.28-5.34c-0.99-1.82-1.42-3.87-1.76-5.9
		c-0.35-2.11-0.56-4.24-0.93-6.35c-0.45-2.55-1.1-5.07-1.64-7.6c-2.23-10.51-4.09-21.11-4.82-31.84c-0.31-4.63-0.68-9.82,1.75-13.99
		c2.01-3.47,5.66-5.45,8.58-8.06c1.39-1.25,2.63-2.64,3.54-4.28c0.49-0.89-0.22-2.1-0.99-2.58c-1.92-1.19-3.94-2.33-6.18-2.77
		c-1.79-0.36-4.38-0.18-5.59,1.41c-1.2,1.58-0.11,3.69,1.4,4.6c1.57,0.95,3.57,0.76,5.31,0.54c4.19-0.51,7.68-3.06,8.28-7.41
		c0.29-2.11,0.02-4.25-0.46-6.31c-0.45-1.92-0.94-4.3-2.14-5.91c-1.61-2.16-4.34-1.46-6.67-1.31c-1.47,0.09-2.94,0.19-4.42,0.28
		c-1.49,0.1-3.79,0.66-5.2,0.15C61.99,109.64,62.73,112.94,64.19,113.47L64.19,113.47z"/>
</g>
</svg>
