<?xml version="1.0" encoding="utf-8"?>
<!-- Generator: Adobe Illustrator 24.1.0, SVG Export Plug-In . SVG Version: 6.00 Build 0)  -->
<svg version="1.1" id="圖層_1" xmlns="http://www.w3.org/2000/svg" xmlns:xlink="http://www.w3.org/1999/xlink" x="0px" y="0px"
	 viewBox="0 0 242 309" style="enable-background:new 0 0 242 309;" xml:space="preserve">
<style type="text/css">
	.st0{fill:url(#SVGID_1_);}
</style>
<g>
	<linearGradient id="SVGID_1_" gradientUnits="userSpaceOnUse" x1="69.4395" y1="59.4162" x2="181.6005" y2="279.3826">
		<stop  offset="0" style="stop-color:#70BD6B"/>
		<stop  offset="0.2973" style="stop-color:#F1858E"/>
		<stop  offset="0.6699" style="stop-color:#4CC7F1"/>
		<stop  offset="0.6841" style="stop-color:#55C9E9"/>
		<stop  offset="0.8392" style="stop-color:#B0DE98"/>
		<stop  offset="0.9479" style="stop-color:#E9EB65"/>
		<stop  offset="1" style="stop-color:#FFF051"/>
	</linearGradient>
	<path class="st0" d="M157.24,30.51c4.2,9.38,8.47,20.93,0.79,29.78c-6.25,7.2-17.55,11.22-26.96,9.46
		c-0.6-0.11-1.21-0.27-1.76-0.52c-0.8-0.36-0.84-0.5-0.69-1.4c0.2-1.18,0.96-2.22,1.9-2.95c2.4-1.86,5.76-1.31,8.54-0.87
		c-0.64-0.66-1.28-1.31-1.92-1.97c0.96,2-0.93,4.12-2.37,5.3c-1.66,1.36-3.59,2.19-5.6,2.87c-3.86,1.32-7.91,2-11.96,2.46
		c-7.7,0.88-15.61,0.91-23.04,3.32C87.92,78.01,82.04,82,78.7,87.74c-1.29,2.22-2.44,4.55-3.32,6.97c-0.76,2.08-1.5,4.53-0.85,6.74
		c0.71,2.4,2.65,4.07,5.15,4.03c2.56-0.04,5.11-0.06,7.67,0.03c3.21,0.12,6.43,0.37,9.6,0.92c2.75,0.47,5.67,1.13,8.08,2.58
		c0.62,0.37,1.41,0.97,1.59,1.38c0.59,1.3,0.46,3.21,0.6,4.62c0.22,2.16,0.38,4.51-0.63,6.51c-0.99,1.95-3.04,2.92-5.09,3.34
		c-4.29,0.88-9.19,0.67-13.47-0.14c-2.47-0.47-4.88-1.28-7.11-2.44c-0.45-0.24-1.52-0.61-1.75-1.09c-0.36-0.72,0.25-0.81,0.76-0.76
		c1.27,0.14,2.52,1.06,3.56,1.73c3.68,2.38,7.6,3.45,12,3.32c2.25-0.07,4.48-0.42,6.65-0.99c0.88-0.23,1.73-0.51,2.59-0.79
		c0.62-0.2,1.26-0.44,1.92-0.41c0.28,0.01-0.05-0.63,0.18-0.13c0.06,0.14-0.01,0.39-0.02,0.54c-0.17,2.38-0.67,4.77-0.93,7.15
		c-0.25,2.28-0.8,5.03-0.22,7.31c0.28,1.11,1.08,2.34,2.14,2.84c-0.45-1-0.89-1.99-1.34-2.99c-5.08-1.51-10.17-3.03-15.25-4.54
		c-4.83-1.44-9.69-3.12-14.72-3.71c-2.04-0.24-4.76-0.63-6.42,0.92c-1.31,1.22-1.68,3.12-1.95,4.81c-0.86,5.34-1.63,10.7-2.45,16.05
		c-0.81,5.31-1.87,10.65-2.39,16c-0.41,4.15,0.76,7.77,3.01,11.24c2.23,3.45,5.13,6.34,7.85,9.4c3.34,3.75,6.59,7.58,10.03,11.25
		c1.74,1.86,3.51,3.7,5.3,5.52c1.48,1.5,2.97,3.32,4.91,4.25c1.97,0.95,4.4,0.76,6.53,0.88c2.74,0.15,5.47,0.31,8.21,0.46
		c10.16,0.57,20.94,2.05,30.92-0.65c4.79-1.3,9.24-3.6,13.63-5.84c2.2-1.12,4.38-2.29,6.47-3.6c0.93-0.58,1.84-1.19,2.73-1.84
		c0.96-0.69,2.27-1.47,3.01-2.41c0.59-0.75,0.41-1.87,0.46-2.83c0.08-1.32,0.15-2.65,0.22-3.97c0.13-2.5,0.25-5,0.37-7.5
		c0.24-5.14,0.47-10.29,0.71-15.43c0.12-2.58,0.25-5.16,0.4-7.74c0.11-2.05,0.69-4.39-0.42-6.23c-1.28-2.12-3.21-2.01-5.45-2.27
		c-2.66-0.32-5.32-0.63-7.98-0.95c-4.91-0.58-10.09-0.18-14.87-1.54c-4.58-1.3-8.8-3.72-12.7-6.39c-1.84-1.25-3.62-2.59-5.36-3.98
		c0.43,0.81,0.85,1.62,1.28,2.44c1-2.66,1.74-5.41,2.16-8.23c0.2-1.33,0.25-2.66,0.4-3.99c0.13-1.14,1.15-1.74,2.12-2.26
		c3.61-1.92,8.32-1.28,11.94,0.23c1.8,0.75,4.06,1.86,4.74,3.83c0.81,2.33-0.23,4.87-2.41,5.98c-0.95,0.48-2.09,0.65-3.09,0.24
		c-0.39-0.16-0.34,0.02-0.43-0.56c-0.09-0.52-0.12-1.05-0.05-1.57c0.26-2.15,1.75-3.71,3.7-4.52c3.95-1.63,8.85-0.16,12.28,2.07
		c1.26,0.82,2.58,1.72,2.36,3.39c-0.25,1.82-1.88,3.3-3.46,4.05c-3.63,1.7-8.35,1.03-12.09,0.08c-4.61-1.18-8.21-4-11.14-7.71
		c-1.6-2.03-2.84-4.45-3.01-7.07c-0.2-3.13,2.02-5.2,3.86-7.45c0.96-1.18,1.92-2.36,2.89-3.53c0.87-1.07,1.77-2.57,3.18-2.96
		c1.31-0.36,2.61,0.24,3.8,0.74c1.51,0.63,3.01,1.27,4.51,1.91c5.66,2.4,11.31,4.81,16.95,7.25c4.9,2.13,9.81,4.37,14.1,7.59
		c0.49,0.37,1.19,0.75,1.56,1.25c0.23,0.31,0.19,0.57,0.14,1.2c-0.15,1.61-0.36,3.21-0.56,4.81c-0.37,3-0.76,6-1.11,9
		c-0.35,2.98-0.66,5.96-0.88,8.95c-0.2,2.68-0.58,5.56,0.28,8.16c1.2,3.64,6.16,8.06,8.94,3.22c2.01-3.5,0.68-9.44-3.91-10.05
		c-4.51-0.6-6.96,5.44-7.4,9.02c-0.47,3.88,1.85,8.85,6.21,9.17c4.96,0.36,7.88-5.34,9.5-9.18c1.88-4.47,3.13-9.95,1.95-14.77
		c-0.97-3.96-4.35-8.18-8.85-7.32c-4.56,0.87-7.99,5.06-10.14,8.9c-2.28,4.07-3.4,8.75-3.32,13.4c0.1,5.45,2.85,10.36,3.06,15.75
		c0.22,5.7-1.57,11.33-3.15,16.74c-1.68,5.76-2.91,11.66-3.87,17.58c-0.39,2.4-1.34,5.43-0.34,7.76c0.97,2.26,3.16,3.69,5.05,5.09
		c2.37,1.75,4.81,3.42,7.36,4.9c2,1.16,4.43,2.43,6.83,2.21c1.53-0.14,1.46-1.53,1.84-2.7c0.4-1.25,0.9-2.47,1.36-3.69
		c1.55-4.05,2.96-8.15,4.03-12.36c2.4-9.48,3.36-19.41,4.4-29.11c1.07-10.02,1.9-20.06,2.63-30.1c0.59-8.07,1.24-16.16,1.56-24.25
		c0.56-14.5-0.02-29.22-2.75-43.49c-2.44-12.72-6.7-26.6-16.57-35.6c-4.2-3.83-9.41-6.34-15.09-6.9c-3.3-0.33-6.68-0.23-9.88-1.27
		c-0.77-0.25-1.69-0.68-2.22-1.06c0.07,0.05-0.21-0.2-0.27-0.25c0.14,0.11,0.1,0.14,0.12,0.12c-0.02,0.02-0.16-0.32,0,0
		c0.13,0.25,0.01,0.02-0.02-0.05c-0.2-0.35,0.11,0.26-0.09-0.18c-0.19-0.43-0.04-0.03-0.19-0.5c-0.09-0.29-0.18-0.59-0.27-0.88
		c-0.2-0.65-0.41-1.29-0.69-1.91c-0.8-1.75-2.11-3.29-3.75-4.31c-2.3-1.42-5.1-1.95-7.74-2.31c-4.39-0.6-8.89-0.74-13.32-0.58
		c-15.17,0.55-29.74,6.06-40.69,16.72c-11.4,11.1-17.8,25.98-21.88,41.12c-3.9,14.48-6.49,29.33-8.64,44.15
		c-2.49,17.15-4.26,34.43-5.19,51.74c-0.81,15.19-1.15,30.57,0.52,45.71c0.33,2.98,0.76,5.94,1.32,8.88
		c1.11,5.84,1.73,11.75,2.73,17.6c0.4,2.33,0.9,4.61,2.9,6.13c1.83,1.39,4.68,1.53,6.86,1.95c5.93,1.13,11.93,2.02,17.94,2.49
		c10.1,0.78,21.45-0.5,28.38-8.78c1.39-1.67,2.9-3.79,3.35-5.94c0.44-2.12-0.48-4.12-1.86-5.69c-1.41-1.6-3.31-2.52-5.27-3.27
		c-2.82-1.07-5.64-2.13-8.46-3.2c-5.01-1.89-10.1-3.65-15.02-5.76c-4.07-1.75-8.29-3.98-10.47-8.01c0.09,0.49,0.19,0.99,0.28,1.48
		c3.27-1.34,6.72-0.06,9.92,0.85c3.21,0.92,6.45,1.74,9.72,2.47c6.83,1.54,13.76,2.66,20.73,3.37c6.74,0.69,13.74,1.32,20.51,0.76
		c5.72-0.48,11.49-2.41,15.1-7.12c1.8-2.34,2.68-4.98,2.89-7.91c0.21-2.95-0.1-6.42,2.15-8.68c-0.33-0.14-0.67-0.27-1-0.41
		c3.74,3.3,5.96,8.42,5.06,13.44c-0.84,4.67-4.24,8.06-8.29,10.24c-8.39,4.53-19.5,3.92-26.09,11.63c-0.64,0.75,1.14,3.11,2,3.05
		c5.1-0.33,10.24-0.88,15.36-0.82c4.58,0.05,9.16,0.57,13.64,1.5c8.91,1.84,17.89,5.38,24.7,11.55c-0.33-0.88-0.66-1.76-0.99-2.65
		c-10.26-1.08-21.35-2.08-30.74,3.09c-4.79,2.63-9.03,6.06-13.97,8.46c-4.87,2.37-10.04,4.1-15.36,5.14c-3,0.58-6.03,0.95-9.08,1.09
		c-3.08,0.14-6.31,0.24-9.14-1.17c-0.76-0.38-0.47,0.76-0.34,1.07c0.31,0.75,0.94,1.54,1.68,1.91c4.58,2.28,10.63,1.43,15.51,0.74
		c5.3-0.75,10.52-2.18,15.47-4.23c5.07-2.1,9.56-4.99,14.13-8c4.75-3.13,9.76-5.03,15.44-5.62c6.07-0.62,12.18-0.02,18.22,0.62
		c1.03,0.11-0.8-2.47-0.99-2.65c-6.98-6.31-15.86-10.08-24.95-12.16c-4.64-1.06-9.38-1.66-14.14-1.78
		c-5.42-0.14-10.86,0.44-16.26,0.8c0.67,1.02,1.33,2.03,2,3.05c5.84-6.84,15.29-7.07,23.1-10.23c3.63-1.47,7.16-3.61,9.39-6.91
		c2.25-3.34,2.75-7.32,1.89-11.21c-1.03-4.69-3.86-8.99-7.43-12.14c-0.15-0.14-0.75-0.67-1-0.41c-1.81,1.82-2.1,4.28-2.25,6.73
		c-0.17,2.77-0.26,5.41-1.57,7.94c-2.81,5.43-8.77,8.1-14.58,8.81c-6.7,0.82-13.73,0.15-20.42-0.48c-6.97-0.66-13.91-1.72-20.75-3.2
		c-3.98-0.86-7.92-1.87-11.82-3c-3.17-0.92-6.42-1.84-9.62-0.54c-0.44,0.18,0.19,1.31,0.28,1.48c4.74,8.74,14.69,11.6,23.37,14.88
		c2.73,1.03,5.45,2.06,8.18,3.09c2.48,0.94,5.15,1.69,7.5,2.94c1.17,0.62,1.56,0.98,1.27,2.38c-0.26,1.26-0.95,2.47-1.62,3.55
		c-1.22,1.96-2.84,3.68-4.64,5.12c-8.8,7-20.55,6.3-31.07,5c-2.86-0.35-5.7-0.77-8.54-1.26c-1.37-0.24-2.74-0.49-4.1-0.75
		c-1.35-0.27-3.12-0.35-4.36-1c-0.46-0.24,0.03,0.1,0.06,0.2c-0.13-0.37-0.17-0.83-0.24-1.22c-0.12-0.68-0.23-1.37-0.34-2.05
		c-0.23-1.47-0.45-2.93-0.66-4.4c-0.42-2.94-0.81-5.88-1.3-8.8c-1.09-6.51-2.09-12.93-2.51-19.53c-0.47-7.42-0.55-14.86-0.43-22.29
		c0.29-16.91,1.62-33.8,3.58-50.59c1.85-15.79,4.23-31.56,7.57-47.11c3.03-14.12,6.77-28.34,14.32-40.8
		c7.93-13.09,19.98-23.22,34.78-27.52c7.68-2.23,15.71-2.82,23.67-2.43c3.55,0.17,7.31,0.4,10.69,1.6c0.76,0.27,1.82,0.78,2.28,1.11
		c0.34,0.25,0.42,0.4,0.27,0.21c0.23,0.3,0.06,0.07,0.06,0.06c0.13,0.28,0.12,0.21,0.09,0.14c0.06,0.12,0.12,0.25,0.17,0.38
		c0.09,0.25-0.07-0.2,0.05,0.13c0.1,0.29,0.19,0.59,0.28,0.89c0.19,0.62,0.38,1.24,0.63,1.84c0.73,1.69,1.93,3.2,3.47,4.21
		c4.83,3.15,11.2,1.77,16.54,3.19c11.8,3.13,17.65,14.8,20.97,25.59c4.24,13.79,5.46,28.5,5.61,42.87
		c0.17,15.91-1.33,31.88-2.65,47.72c-0.83,9.91-1.78,19.81-3.09,29.66c-1.23,9.25-2.85,18.29-6.08,27.08
		c-0.89,2.42-1.96,4.79-2.6,7.29c-0.17,0.65-0.12,1-0.95,1.14c-0.6,0.1-1.32-0.04-1.9-0.16c-1.38-0.29-2.68-0.92-3.9-1.62
		c-2.47-1.42-4.83-3.04-7.13-4.73c-0.54-0.4-1.08-0.81-1.62-1.22c-0.22-0.17-0.54-0.35-0.72-0.56c-0.65-0.79-0.12,0-0.18-0.58
		c-0.15-1.45,0.42-3.28,0.64-4.72c0.46-2.95,1.01-5.89,1.63-8.82c1.17-5.48,2.96-10.78,4.25-16.22c1.26-5.27,1.74-10.56,0.31-15.83
		c-0.71-2.63-1.63-5.2-1.95-7.92c-0.28-2.44-0.19-4.9,0.26-7.32c0.86-4.62,2.95-9.07,6.19-12.5c2.53-2.68,9.79-7.13,11.03-1.03
		c1.01,4.96-0.69,10.69-2.89,15.12c-1.13,2.27-2.52,4.71-4.71,6.11c-0.96,0.61-2.06,0.98-3.2,0.93c-1.48-0.05-2.15-0.5-2.25-1.94
		c-0.27-3.5,2.45-11.23,7.12-9.99c0.25,0.07,0.44,0.16,0.67,0.26c-0.42-0.2-0.34-1.04-0.26,0.21c0.04,0.64-0.07,1.29-0.23,1.9
		c-0.29,1.1-0.79,2.23-1.69,2.95c-0.8,0.65-2.37,1.07-3.17,0.14c-0.84-0.97-0.53-3.34-0.48-4.51c0.25-6.03,1.07-12.04,1.82-18.02
		c0.35-2.79,0.86-5.62,0.97-8.43c0.09-2.23-1.35-3.96-2.97-5.33c-3.96-3.35-8.54-5.82-13.24-7.97c-5.22-2.39-10.54-4.58-15.82-6.83
		c-2.73-1.16-5.45-2.32-8.18-3.48c-2.1-0.89-4.64-2.18-6.67-0.46c-0.98,0.83-1.75,2.01-2.56,3.01c-1.03,1.26-2.05,2.51-3.08,3.77
		c-1.55,1.89-3.2,3.62-3.34,6.19c-0.25,4.72,2.66,9.3,5.63,12.71c2.98,3.44,6.5,6.6,10.91,7.98c3.59,1.12,7.6,1.8,11.34,1.2
		c3.13-0.5,6.86-2.57,6.72-6.23c-0.14-3.51-3.45-6.49-6.25-8.15c-3.27-1.93-7.28-3.27-11.1-2.55c-3.93,0.74-6.74,3.99-5.7,8.08
		c0.9,3.52,4.52,6.85,8.19,4.79c4.24-2.37,2.8-7.77,0.42-10.93c-2.34-3.1-6.06-4.98-9.79-5.81c-3.46-0.77-7.58-0.73-10.53,1.49
		c-0.73,0.55-1.14,0.99-1.24,1.91c-0.15,1.32-0.19,2.65-0.39,3.97c-0.42,2.82-1.16,5.57-2.16,8.23c-0.27,0.73,0.8,2.05,1.28,2.44
		c5.91,4.72,12.5,9.44,19.94,11.35c3.92,1.01,7.94,0.76,11.94,1.15c2.23,0.22,4.46,0.52,6.69,0.79c1.23,0.15,2.45,0.29,3.68,0.44
		c0.88,0.1,2.79-0.02,3.53,0.52c-0.4-0.45-0.8-0.91-1.2-1.36c0.06,0.12,0.13,0.24,0.19,0.36c-0.13-0.36-0.27-0.72-0.4-1.08
		c0.25,1.72-0.11,3.63-0.21,5.36c-0.11,2.01-0.21,4.01-0.31,6.02c-0.19,3.98-0.37,7.95-0.55,11.93c-0.18,3.86-0.36,7.72-0.56,11.58
		c-0.1,1.86-0.02,3.83-0.31,5.66c-0.27,1.68-2.49,2.85-3.83,3.79c-3.15,2.2-6.57,3.98-10,5.7c-3.44,1.72-6.91,3.48-10.6,4.64
		c-7.62,2.4-15.74,1.92-23.61,1.48c-4.16-0.23-8.31-0.46-12.47-0.7c-1.93-0.11-3.85-0.21-5.78-0.32c-1.96-0.11-3.9-0.03-5.48-1.37
		c-2.91-2.46-5.48-5.51-8.07-8.3c-2.74-2.95-5.43-5.96-8.05-9.02c-3.7-4.32-9.46-8.79-10.29-14.76c-0.53-3.85,0.69-8.12,1.27-11.92
		c0.65-4.26,1.3-8.53,1.95-12.79c0.34-2.23,0.68-4.47,1.02-6.7c0.29-1.92,0.46-3.92,0.98-5.8c0.58-2.11,1.79-3.44,4.07-3.57
		c2.05-0.12,4.19,0.25,6.19,0.65c4.54,0.9,8.97,2.42,13.4,3.74c4.41,1.31,8.82,2.63,13.24,3.94c0.76,0.23,0.52-0.66,0.34-1.07
		c-0.31-0.74-0.94-1.56-1.68-1.91c0.27,0.13,1.4,2.27,1.52,1.73c0.04-0.18-0.04-0.47-0.05-0.66c-0.03-0.57-0.01-1.15,0.02-1.73
		c0.06-1.38,0.21-2.77,0.36-4.14c0.26-2.3,0.65-4.58,0.9-6.87c0.36-3.33-2.47-6.9-5.96-5.86c-4.21,1.25-8.28,2.25-12.72,1.8
		c-2.48-0.25-4.87-0.94-6.99-2.26c-1.99-1.25-3.91-2.68-6.35-2.77c-0.15,0-0.24,0.07-0.29,0.21c-0.9,2.14,0.93,4.55,2.45,5.92
		c1.93,1.73,4.6,2.82,7.04,3.58c4.96,1.56,10.5,1.85,15.65,1.2c2.09-0.26,4.37-0.83,5.87-2.4c1.59-1.67,1.94-3.99,1.91-6.2
		c-0.03-2.17-0.26-4.48-0.64-6.61c-0.27-1.51-1.04-2.9-2.01-4.07c-4.16-5.04-12.02-5.8-18.07-6.26c-3.28-0.25-6.57-0.31-9.85-0.26
		c-0.56,0.01-1.12,0.04-1.68,0.04c-0.29,0-0.64-0.09-0.93-0.07c-0.39,0.03-0.48-0.42-0.12,0.21c0.5,0.86,0.21-0.11,0.21-0.49
		c-0.01-0.69,0.12-1.38,0.27-2.06c1.33-5.87,4.7-11.65,9.29-15.52c7.23-6.08,16.55-7.24,25.63-8.03c4.6-0.4,9.22-0.76,13.75-1.7
		c4.36-0.9,9.54-2.15,12.57-5.66c1.36-1.57,1.97-3.46,1.24-5.47c-0.34-0.95-0.93-2.1-1.86-2.58c-1.03-0.53-2.74-0.5-3.89-0.54
		c-2.48-0.09-5.05,0.49-6.57,2.61c-1.27,1.77-1.27,3.83-0.2,5.69c2.57,4.51,8.07,4.61,12.69,4.24c5.46-0.45,10.85-2.27,15.42-5.3
		c4.23-2.81,7.81-6.8,9.12-11.81c1.43-5.46,0.21-11.26-1.61-16.47c-0.96-2.76-2.11-5.44-3.3-8.11c-0.27-0.6-0.96-1.8-1.68-1.91
		C156.85,29.32,157.01,30,157.24,30.51L157.24,30.51z"/>
</g>
</svg>
