<?xml version="1.0" encoding="utf-8"?>
<!-- Generator: Adobe Illustrator 24.1.0, SVG Export Plug-In . SVG Version: 6.00 Build 0)  -->
<svg version="1.1" id="圖層_1" xmlns="http://www.w3.org/2000/svg" xmlns:xlink="http://www.w3.org/1999/xlink" x="0px" y="0px"
	 viewBox="0 0 203 160" style="enable-background:new 0 0 203 160;" xml:space="preserve">
<style type="text/css">
	.st0{fill:url(#SVGID_1_);}
	.st1{fill:url(#SVGID_2_);}
	.st2{fill:url(#SVGID_3_);}
	.st3{fill:#A6A8AB;}
	.st4{fill:url(#SVGID_4_);}
	.st5{fill:url(#SVGID_5_);}
	.st6{fill:url(#SVGID_6_);}
	.st7{fill:url(#SVGID_7_);}
	.st8{fill:url(#SVGID_8_);}
	.st9{fill:url(#SVGID_9_);}
</style>
<g>
	<g>
		<linearGradient id="SVGID_1_" gradientUnits="userSpaceOnUse" x1="-3990.0408" y1="315.0997" x2="-3990.0408" y2="424.4746">
			<stop  offset="7.204385e-04" style="stop-color:#70BD6B"/>
			<stop  offset="0.9981" style="stop-color:#4CC7F1"/>
		</linearGradient>
		<path class="st0" d="M-3945.14,420.25c-3.78-4.1-5.69-9.59-5.69-16.33v-66.1c-1.09-3.97-1.98-6.86-2.71-8.82
			c-1.32-3.55-3.57-6.74-6.7-9.49c-2.67-2.34-7.39-5.14-14.77-5.14c-5.71,0-10.57,1.6-14.45,4.75c-3.29,2.68-5.72,5.96-7.22,9.76
			c-0.86,2.17-1.76,5.02-2.73,8.69l-0.42-1.87c-1.06-4.98-2.38-8.89-4.02-11.95c-3.21-5.96-9.41-9.38-16.99-9.38
			c-5.47,0-10.38,1.97-14.21,5.71c-3.91,3.81-5.98,8.74-5.98,14.25c0,2.82,0.52,6.18,1.65,10.58l14.21,57.47
			c0.45,1.79,0.96,3.74,1.52,5.8c0.82,3.02,1.94,5.76,3.33,8.13c1.92,3.28,4.53,5.89,7.74,7.74c3.23,1.87,7.04,2.81,11.31,2.81
			c6.92,0,11.5-2.64,14.13-4.85c3.18-2.68,5.49-5.88,6.87-9.51c0.79-2.07,1.72-5.05,2.93-9.39c0.01-0.03,0.01-0.05,0.02-0.08
			l2.24-8.2l2.2,8.17c0.01,0.04,0.02,0.09,0.04,0.13c1.25,4.44,2.19,7.44,2.94,9.45c1.37,3.64,3.7,6.84,6.92,9.51
			c2.62,2.17,7.19,4.76,14.07,4.76c4.08,0,7.33-0.87,9.87-2.05C-3941.31,423.71-3943.36,422.19-3945.14,420.25z"/>
		<linearGradient id="SVGID_2_" gradientUnits="userSpaceOnUse" x1="-3902.5408" y1="426.8546" x2="-3902.5408" y2="314.3763">
			<stop  offset="0" style="stop-color:#F1858E"/>
			<stop  offset="1" style="stop-color:#FFF051"/>
		</linearGradient>
		<path class="st1" d="M-3866.03,333.35c0-5.42-2.14-10.37-6.03-13.91c-3.68-3.36-8.55-5.06-14.49-5.06h-41.3h-1.5
			c5.37,0,10.23,1.93,14.07,5.57c3.95,3.75,6.12,8.86,6.12,14.39c0,2.66-0.5,5.89-1.63,10.5l-14.22,57.52
			c-1.08,4.33-1.98,7.49-2.76,9.68c-1.33,3.74-3.56,7.02-6.64,9.75c-1.15,1.01-2.68,2.11-4.65,3.03c2.79,1.35,5.91,2.05,9.25,2.05
			c5.99,0,11.26-2.25,15.24-6.52c3.81-4.08,5.74-9.6,5.74-16.41v-16.25h16.6c5.7,0,10.43-1.63,14.07-4.84
			c3.96-3.5,6.15-8.46,6.15-13.96c0-5.43-2.12-10.35-5.98-13.87c-1.3-1.19-2.76-2.16-4.35-2.93c4.06-0.63,7.5-2.22,10.27-4.75
			C-3868.17,343.78-3866.03,338.82-3866.03,333.35z"/>
		<linearGradient id="SVGID_3_" gradientUnits="userSpaceOnUse" x1="-3929.9983" y1="426.8546" x2="-3929.9983" y2="314.3764">
			<stop  offset="0" style="stop-color:#73788D"/>
			<stop  offset="0.999" style="stop-color:#6EB448"/>
		</linearGradient>
		<path class="st2" d="M-3915.28,319.94c-3.83-3.64-8.7-5.57-14.07-5.57c-6.89,0-11.22,2.84-13.63,5.22
			c-2.57,2.52-4.42,5.48-5.51,8.8c-0.63,1.9-1.24,4.3-1.88,7.33l-0.47,2.1v66.1c0,6.74,1.92,12.23,5.69,16.33
			c1.78,1.93,3.83,3.46,6.1,4.55c1.97-0.92,3.5-2.02,4.65-3.03c3.07-2.73,5.31-6.01,6.64-9.75c0.78-2.19,1.68-5.34,2.76-9.68
			l14.22-57.52c1.12-4.6,1.63-7.84,1.63-10.5C-3909.16,328.81-3911.33,323.7-3915.28,319.94z"/>
	</g>
	<g>
		<path class="st3" d="M-4019.49,439.6c-0.38,0-0.66,0.1-0.86,0.29c-0.2,0.19-0.34,0.42-0.42,0.66c-0.08,0.25-0.17,0.59-0.26,1.02
			l-1.87,8.34l-2.11-7.81c-0.18-0.64-0.31-1.1-0.42-1.38c-0.1-0.28-0.29-0.54-0.56-0.77c-0.27-0.24-0.65-0.36-1.14-0.36
			c-0.48,0-0.86,0.11-1.14,0.34c-0.28,0.23-0.48,0.5-0.6,0.81c-0.12,0.31-0.26,0.77-0.42,1.36l-2.09,7.81l-1.87-8.34
			c-0.14-0.64-0.3-1.13-0.48-1.47c-0.18-0.34-0.54-0.51-1.06-0.51c-0.38,0-0.7,0.13-0.96,0.38c-0.26,0.25-0.39,0.56-0.39,0.94
			c0,0.29,0.07,0.72,0.21,1.28l2.38,9.62c0.07,0.29,0.15,0.6,0.24,0.93c0.09,0.33,0.21,0.62,0.35,0.87
			c0.14,0.24,0.33,0.43,0.56,0.57c0.23,0.13,0.52,0.2,0.88,0.2c0.44,0,0.8-0.11,1.06-0.34c0.27-0.22,0.45-0.48,0.56-0.76
			c0.11-0.28,0.25-0.75,0.43-1.4l2.34-8.57l2.31,8.57c0.19,0.67,0.33,1.14,0.44,1.42c0.1,0.28,0.29,0.52,0.56,0.75
			c0.27,0.22,0.62,0.33,1.06,0.33c0.47,0,0.83-0.11,1.09-0.34c0.26-0.23,0.44-0.49,0.55-0.79c0.11-0.3,0.24-0.78,0.4-1.43l2.38-9.62
			c0.14-0.58,0.21-1.01,0.21-1.28c0-0.38-0.13-0.69-0.4-0.94C-4018.8,439.73-4019.12,439.6-4019.49,439.6z"/>
		<path class="st3" d="M-4000.9,445.06c-0.47-0.48-1.03-0.85-1.69-1.11s-1.39-0.39-2.19-0.39c-0.79,0-1.52,0.13-2.17,0.39
			c-0.66,0.26-1.21,0.62-1.68,1.1c-0.46,0.47-0.82,1.05-1.06,1.71c-0.25,0.67-0.37,1.41-0.37,2.21c0,0.8,0.12,1.53,0.37,2.19
			c0.24,0.66,0.6,1.23,1.07,1.71c0.47,0.48,1.03,0.86,1.67,1.12c0.64,0.26,1.37,0.39,2.17,0.39c0.81,0,1.54-0.13,2.19-0.39
			c0.65-0.26,1.21-0.62,1.68-1.11c0.47-0.48,0.83-1.06,1.07-1.73c0.25-0.67,0.37-1.4,0.37-2.19c0-0.8-0.12-1.53-0.37-2.19
			C-4000.08,446.11-4000.43,445.54-4000.9,445.06z M-4002.85,451.49c-0.48,0.61-1.12,0.91-1.92,0.91c-0.53,0-1-0.14-1.39-0.41
			c-0.39-0.28-0.7-0.67-0.91-1.19c-0.21-0.52-0.32-1.13-0.32-1.82c0-0.7,0.11-1.32,0.32-1.84c0.21-0.53,0.52-0.92,0.92-1.19
			c0.4-0.27,0.85-0.4,1.37-0.4c0.81,0,1.45,0.3,1.92,0.91c0.48,0.6,0.72,1.45,0.72,2.53
			C-4002.14,450.04-4002.38,450.88-4002.85,451.49z"/>
		<path class="st3" d="M-3983.89,443.98c-0.53-0.28-1.07-0.42-1.63-0.42s-1.01,0.14-1.34,0.42c-0.33,0.28-0.66,0.69-0.98,1.24
			c-0.02-0.55-0.13-0.96-0.32-1.24c-0.19-0.28-0.51-0.42-0.95-0.42c-0.86,0-1.3,0.6-1.3,1.79v7.41c0,0.53,0.12,0.94,0.37,1.21
			c0.25,0.27,0.56,0.41,0.95,0.41c0.39,0,0.71-0.14,0.96-0.4c0.25-0.27,0.38-0.67,0.38-1.21v-2.22c0-0.8,0.03-1.48,0.08-2.03
			c0.05-0.56,0.15-1.03,0.28-1.44c0.14-0.4,0.33-0.71,0.58-0.91c0.25-0.2,0.56-0.31,0.95-0.31c0.29,0,0.62,0.06,0.99,0.18
			c0.37,0.12,0.61,0.18,0.71,0.18c0.26,0,0.5-0.11,0.73-0.32c0.22-0.21,0.34-0.48,0.34-0.8
			C-3983.11,444.63-3983.37,444.26-3983.89,443.98z"/>
		<path class="st3" d="M-3965.89,451.81l-2.73-4.29l1.41-1.3c0.72-0.65,1.08-1.17,1.08-1.56c0-0.32-0.11-0.58-0.33-0.79
			c-0.22-0.21-0.5-0.32-0.83-0.32c-0.28,0-0.52,0.07-0.71,0.21c-0.19,0.14-0.48,0.41-0.85,0.8l-2.99,3.14v-6.45
			c0-0.55-0.12-0.96-0.36-1.24c-0.24-0.28-0.57-0.42-0.97-0.42c-0.42,0-0.75,0.15-0.97,0.46c-0.23,0.31-0.34,0.76-0.34,1.35v11.34
			c0,0.53,0.12,0.94,0.35,1.21c0.23,0.27,0.56,0.41,0.96,0.41c0.35,0,0.66-0.14,0.93-0.41c0.27-0.28,0.4-0.67,0.4-1.18v-2.11
			l1.44-1.36l2.35,3.86c0.3,0.46,0.54,0.78,0.71,0.95c0.18,0.18,0.43,0.26,0.75,0.26c0.38,0,0.68-0.12,0.91-0.37
			c0.23-0.24,0.35-0.58,0.35-1c0-0.15-0.04-0.31-0.13-0.47C-3965.55,452.37-3965.69,452.13-3965.89,451.81z"/>
		<path class="st3" d="M-3947.53,439.85h-6.82c-0.41,0-0.75,0.06-1.01,0.18c-0.26,0.12-0.46,0.31-0.58,0.57
			c-0.12,0.26-0.18,0.6-0.18,1.02v10.99c0,0.59,0.13,1.03,0.4,1.33c0.27,0.29,0.62,0.44,1.05,0.44c0.42,0,0.77-0.14,1.04-0.43
			c0.27-0.29,0.4-0.73,0.4-1.33v-4.71h4.76c0.44,0,0.76-0.1,0.98-0.29c0.22-0.19,0.33-0.46,0.33-0.79c0-0.33-0.11-0.6-0.33-0.79
			s-0.55-0.3-0.99-0.3h-4.76v-3.65h5.7c0.46,0,0.8-0.1,1.03-0.31c0.22-0.2,0.34-0.48,0.34-0.81c0-0.33-0.11-0.6-0.34-0.8
			C-3946.73,439.95-3947.07,439.85-3947.53,439.85z"/>
		<path class="st3" d="M-3928.08,450.68c0.01-0.53,0.01-1.02,0.01-1.45c0-0.44,0.01-0.96,0.01-1.59c0-0.99-0.14-1.78-0.41-2.38
			c-0.28-0.6-0.75-1.03-1.42-1.31s-1.59-0.41-2.76-0.41c-1.05,0-1.92,0.14-2.62,0.43c-0.7,0.29-1.22,0.65-1.55,1.09
			c-0.33,0.44-0.5,0.9-0.5,1.36c0,0.3,0.11,0.54,0.33,0.74c0.22,0.19,0.48,0.29,0.77,0.29c0.33,0,0.55-0.06,0.65-0.18
			s0.27-0.37,0.52-0.75c0.24-0.38,0.54-0.66,0.88-0.85c0.34-0.19,0.85-0.28,1.52-0.28c0.79,0,1.3,0.16,1.55,0.49
			c0.25,0.33,0.39,0.84,0.42,1.54c-0.56,0.16-1.08,0.3-1.55,0.41c-0.48,0.11-1.05,0.24-1.72,0.38c-0.67,0.14-1.09,0.22-1.26,0.26
			c-0.81,0.18-1.44,0.52-1.9,1.03c-0.46,0.51-0.69,1.13-0.69,1.86c0,0.54,0.14,1.04,0.42,1.5c0.28,0.46,0.68,0.83,1.19,1.1
			c0.52,0.27,1.12,0.4,1.8,0.4c0.75,0,1.42-0.13,2.02-0.38c0.6-0.25,1.22-0.62,1.87-1.13c0.3,0.49,0.58,0.86,0.85,1.12
			s0.54,0.39,0.81,0.39c0.32,0,0.61-0.11,0.87-0.34c0.26-0.22,0.38-0.47,0.38-0.75c0-0.16-0.08-0.51-0.25-1.05
			C-3928,451.7-3928.08,451.18-3928.08,450.68z M-3930.67,449.41c0,0.92-0.12,1.59-0.36,1.99c-0.21,0.36-0.53,0.66-0.98,0.89
			c-0.45,0.23-0.93,0.35-1.46,0.35c-0.49,0-0.89-0.14-1.2-0.42c-0.31-0.28-0.46-0.63-0.46-1.03c0-0.39,0.13-0.69,0.39-0.91
			c0.26-0.22,0.53-0.36,0.82-0.44c0.29-0.07,0.8-0.19,1.54-0.35c0.74-0.16,1.31-0.31,1.7-0.45V449.41z"/>
		<path class="st3" d="M-3909.98,449.92c-0.27,0-0.5,0.08-0.69,0.25c-0.19,0.17-0.36,0.4-0.53,0.7c-0.29,0.51-0.63,0.88-1.01,1.13
			c-0.38,0.25-0.84,0.37-1.37,0.37c-0.4,0-0.76-0.08-1.09-0.23c-0.33-0.15-0.61-0.38-0.85-0.67c-0.23-0.3-0.41-0.65-0.54-1.07
			c-0.12-0.42-0.18-0.88-0.18-1.38c0-1.07,0.24-1.9,0.72-2.52c0.48-0.61,1.11-0.92,1.9-0.92c0.55,0,1,0.12,1.35,0.37
			c0.35,0.25,0.69,0.62,1.02,1.11c0.18,0.25,0.35,0.44,0.49,0.55c0.15,0.11,0.33,0.17,0.55,0.17c0.34,0,0.63-0.11,0.86-0.33
			c0.24-0.22,0.36-0.49,0.36-0.81c0-0.31-0.11-0.65-0.32-1.01c-0.21-0.36-0.52-0.7-0.92-1.02c-0.4-0.32-0.89-0.58-1.46-0.78
			c-0.57-0.2-1.21-0.3-1.9-0.3c-1.11,0-2.07,0.23-2.86,0.69c-0.8,0.46-1.41,1.11-1.83,1.94c-0.42,0.84-0.63,1.8-0.63,2.89
			c0,1.61,0.46,2.9,1.38,3.85c0.92,0.96,2.21,1.44,3.85,1.44c0.77,0,1.47-0.1,2.09-0.31s1.13-0.48,1.53-0.82
			c0.41-0.34,0.71-0.7,0.91-1.08c0.2-0.38,0.3-0.73,0.3-1.06c0-0.28-0.11-0.54-0.32-0.79
			C-3909.38,450.05-3909.65,449.92-3909.98,449.92z"/>
		<path class="st3" d="M-3890.5,449.32c0.38-0.2,0.57-0.63,0.57-1.3c0-0.72-0.19-1.43-0.56-2.12c-0.37-0.7-0.93-1.26-1.67-1.7
			c-0.74-0.44-1.64-0.66-2.67-0.66c-0.8,0-1.53,0.13-2.18,0.39c-0.66,0.26-1.21,0.62-1.66,1.11c-0.45,0.48-0.79,1.06-1.02,1.73
			c-0.23,0.67-0.35,1.4-0.35,2.19c0,1.67,0.47,2.99,1.42,3.97c0.95,0.97,2.28,1.46,3.99,1.46c0.75,0,1.41-0.1,1.98-0.29
			c0.57-0.2,1.05-0.44,1.43-0.74s0.66-0.6,0.85-0.93c0.19-0.32,0.28-0.6,0.28-0.84c0-0.27-0.08-0.48-0.25-0.63
			c-0.17-0.15-0.39-0.22-0.66-0.22c-0.25,0-0.45,0.06-0.58,0.18c-0.33,0.31-0.6,0.56-0.81,0.74c-0.21,0.18-0.44,0.35-0.68,0.51
			c-0.25,0.16-0.5,0.28-0.76,0.35c-0.26,0.07-0.55,0.11-0.87,0.11c-0.47,0-0.91-0.12-1.3-0.35c-0.39-0.23-0.71-0.58-0.95-1.04
			c-0.24-0.46-0.36-0.99-0.37-1.6h5.2C-3891.43,449.62-3890.89,449.52-3890.5,449.32z M-3897.33,448.11
			c0.09-0.9,0.35-1.57,0.77-2.03c0.43-0.46,0.97-0.69,1.63-0.69c0.7,0,1.26,0.23,1.68,0.68c0.43,0.45,0.67,1.13,0.74,2.04H-3897.33z
			"/>
		<path class="st3" d="M-3871.23,439.99c-0.22-0.26-0.53-0.38-0.93-0.38c-0.4,0-0.71,0.14-0.93,0.42c-0.22,0.28-0.33,0.69-0.33,1.24
			v3.93c-0.5-0.55-1.01-0.95-1.54-1.21c-0.53-0.26-1.17-0.39-1.94-0.39c-1.32,0-2.39,0.46-3.21,1.39c-0.81,0.93-1.22,2.22-1.22,3.89
			c0,0.79,0.1,1.52,0.31,2.19c0.2,0.68,0.51,1.26,0.9,1.76c0.4,0.5,0.87,0.89,1.41,1.15c0.54,0.27,1.13,0.4,1.77,0.4
			c0.48,0,0.92-0.07,1.33-0.2c0.41-0.13,0.78-0.33,1.13-0.58c0.35-0.26,0.7-0.59,1.06-1v0.26c0,0.49,0.12,0.86,0.36,1.13
			c0.24,0.26,0.54,0.39,0.9,0.39c0.37,0,0.67-0.13,0.91-0.38c0.23-0.25,0.35-0.63,0.35-1.14v-11.73
			C-3870.91,440.62-3871.02,440.25-3871.23,439.99z M-3873.91,450.83c-0.23,0.5-0.54,0.88-0.93,1.12c-0.39,0.24-0.81,0.37-1.28,0.37
			c-0.46,0-0.89-0.13-1.28-0.38c-0.39-0.26-0.7-0.64-0.92-1.15c-0.22-0.51-0.34-1.12-0.34-1.84c0-0.68,0.11-1.28,0.32-1.8
			c0.21-0.52,0.51-0.91,0.89-1.19c0.38-0.28,0.82-0.41,1.31-0.41c0.47,0,0.9,0.14,1.29,0.4c0.39,0.27,0.7,0.66,0.94,1.17
			c0.23,0.51,0.35,1.12,0.35,1.83C-3873.57,449.7-3873.68,450.33-3873.91,450.83z"/>
	</g>
</g>
<g>
	<g>
		<linearGradient id="SVGID_4_" gradientUnits="userSpaceOnUse" x1="-3990.0408" y1="315.0997" x2="-3990.0408" y2="424.4746">
			<stop  offset="7.204385e-04" style="stop-color:#70BD6B"/>
			<stop  offset="0.9981" style="stop-color:#4CC7F1"/>
		</linearGradient>
		<path class="st4" d="M-3945.14,420.25c-3.78-4.1-5.69-9.59-5.69-16.33v-66.1c-1.09-3.97-1.98-6.86-2.71-8.82
			c-1.32-3.55-3.57-6.74-6.7-9.49c-2.67-2.34-7.39-5.14-14.77-5.14c-5.71,0-10.57,1.6-14.45,4.75c-3.29,2.68-5.72,5.96-7.22,9.76
			c-0.86,2.17-1.76,5.02-2.73,8.69l-0.42-1.87c-1.06-4.98-2.38-8.89-4.02-11.95c-3.21-5.96-9.41-9.38-16.99-9.38
			c-5.47,0-10.38,1.97-14.21,5.71c-3.91,3.81-5.98,8.74-5.98,14.25c0,2.82,0.52,6.18,1.65,10.58l14.21,57.47
			c0.45,1.79,0.96,3.74,1.52,5.8c0.82,3.02,1.94,5.76,3.33,8.13c1.92,3.28,4.53,5.89,7.74,7.74c3.23,1.87,7.04,2.81,11.31,2.81
			c6.92,0,11.5-2.64,14.13-4.85c3.18-2.68,5.49-5.88,6.87-9.51c0.79-2.07,1.72-5.05,2.93-9.39c0.01-0.03,0.01-0.05,0.02-0.08
			l2.24-8.2l2.2,8.17c0.01,0.04,0.02,0.09,0.04,0.13c1.25,4.44,2.19,7.44,2.94,9.45c1.37,3.64,3.7,6.84,6.92,9.51
			c2.62,2.17,7.19,4.76,14.07,4.76c4.08,0,7.33-0.87,9.87-2.05C-3941.31,423.71-3943.36,422.19-3945.14,420.25z"/>
		<linearGradient id="SVGID_5_" gradientUnits="userSpaceOnUse" x1="-3902.5408" y1="426.8546" x2="-3902.5408" y2="314.3763">
			<stop  offset="0" style="stop-color:#F1858E"/>
			<stop  offset="1" style="stop-color:#FFF051"/>
		</linearGradient>
		<path class="st5" d="M-3866.03,333.35c0-5.42-2.14-10.37-6.03-13.91c-3.68-3.36-8.55-5.06-14.49-5.06h-41.3h-1.5
			c5.37,0,10.23,1.93,14.07,5.57c3.95,3.75,6.12,8.86,6.12,14.39c0,2.66-0.5,5.89-1.63,10.5l-14.22,57.52
			c-1.08,4.33-1.98,7.49-2.76,9.68c-1.33,3.74-3.56,7.02-6.64,9.75c-1.15,1.01-2.68,2.11-4.65,3.03c2.79,1.35,5.91,2.05,9.25,2.05
			c5.99,0,11.26-2.25,15.24-6.52c3.81-4.08,5.74-9.6,5.74-16.41v-16.25h16.6c5.7,0,10.43-1.63,14.07-4.84
			c3.96-3.5,6.15-8.46,6.15-13.96c0-5.43-2.12-10.35-5.98-13.87c-1.3-1.19-2.76-2.16-4.35-2.93c4.06-0.63,7.5-2.22,10.27-4.75
			C-3868.17,343.78-3866.03,338.82-3866.03,333.35z"/>
		<linearGradient id="SVGID_6_" gradientUnits="userSpaceOnUse" x1="-3929.9983" y1="426.8546" x2="-3929.9983" y2="314.3764">
			<stop  offset="0" style="stop-color:#73788D"/>
			<stop  offset="0.999" style="stop-color:#6EB448"/>
		</linearGradient>
		<path class="st6" d="M-3915.28,319.94c-3.83-3.64-8.7-5.57-14.07-5.57c-6.89,0-11.22,2.84-13.63,5.22
			c-2.57,2.52-4.42,5.48-5.51,8.8c-0.63,1.9-1.24,4.3-1.88,7.33l-0.47,2.1v66.1c0,6.74,1.92,12.23,5.69,16.33
			c1.78,1.93,3.83,3.46,6.1,4.55c1.97-0.92,3.5-2.02,4.65-3.03c3.07-2.73,5.31-6.01,6.64-9.75c0.78-2.19,1.68-5.34,2.76-9.68
			l14.22-57.52c1.12-4.6,1.63-7.84,1.63-10.5C-3909.16,328.81-3911.33,323.7-3915.28,319.94z"/>
	</g>
	<g>
		<path class="st3" d="M-4019.49,439.6c-0.38,0-0.66,0.1-0.86,0.29c-0.2,0.19-0.34,0.42-0.42,0.66c-0.08,0.25-0.17,0.59-0.26,1.02
			l-1.87,8.34l-2.11-7.81c-0.18-0.64-0.31-1.1-0.42-1.38c-0.1-0.28-0.29-0.54-0.56-0.77c-0.27-0.24-0.65-0.36-1.14-0.36
			c-0.48,0-0.86,0.11-1.14,0.34c-0.28,0.23-0.48,0.5-0.6,0.81c-0.12,0.31-0.26,0.77-0.42,1.36l-2.09,7.81l-1.87-8.34
			c-0.14-0.64-0.3-1.13-0.48-1.47c-0.18-0.34-0.54-0.51-1.06-0.51c-0.38,0-0.7,0.13-0.96,0.38c-0.26,0.25-0.39,0.56-0.39,0.94
			c0,0.29,0.07,0.72,0.21,1.28l2.38,9.62c0.07,0.29,0.15,0.6,0.24,0.93c0.09,0.33,0.21,0.62,0.35,0.87
			c0.14,0.24,0.33,0.43,0.56,0.57c0.23,0.13,0.52,0.2,0.88,0.2c0.44,0,0.8-0.11,1.06-0.34c0.27-0.22,0.45-0.48,0.56-0.76
			c0.11-0.28,0.25-0.75,0.43-1.4l2.34-8.57l2.31,8.57c0.19,0.67,0.33,1.14,0.44,1.42c0.1,0.28,0.29,0.52,0.56,0.75
			c0.27,0.22,0.62,0.33,1.06,0.33c0.47,0,0.83-0.11,1.09-0.34c0.26-0.23,0.44-0.49,0.55-0.79c0.11-0.3,0.24-0.78,0.4-1.43l2.38-9.62
			c0.14-0.58,0.21-1.01,0.21-1.28c0-0.38-0.13-0.69-0.4-0.94C-4018.8,439.73-4019.12,439.6-4019.49,439.6z"/>
		<path class="st3" d="M-4000.9,445.06c-0.47-0.48-1.03-0.85-1.69-1.11s-1.39-0.39-2.19-0.39c-0.79,0-1.52,0.13-2.17,0.39
			c-0.66,0.26-1.21,0.62-1.68,1.1c-0.46,0.47-0.82,1.05-1.06,1.71c-0.25,0.67-0.37,1.41-0.37,2.21c0,0.8,0.12,1.53,0.37,2.19
			c0.24,0.66,0.6,1.23,1.07,1.71c0.47,0.48,1.03,0.86,1.67,1.12c0.64,0.26,1.37,0.39,2.17,0.39c0.81,0,1.54-0.13,2.19-0.39
			c0.65-0.26,1.21-0.62,1.68-1.11c0.47-0.48,0.83-1.06,1.07-1.73c0.25-0.67,0.37-1.4,0.37-2.19c0-0.8-0.12-1.53-0.37-2.19
			C-4000.08,446.11-4000.43,445.54-4000.9,445.06z M-4002.85,451.49c-0.48,0.61-1.12,0.91-1.92,0.91c-0.53,0-1-0.14-1.39-0.41
			c-0.39-0.28-0.7-0.67-0.91-1.19c-0.21-0.52-0.32-1.13-0.32-1.82c0-0.7,0.11-1.32,0.32-1.84c0.21-0.53,0.52-0.92,0.92-1.19
			c0.4-0.27,0.85-0.4,1.37-0.4c0.81,0,1.45,0.3,1.92,0.91c0.48,0.6,0.72,1.45,0.72,2.53
			C-4002.14,450.04-4002.38,450.88-4002.85,451.49z"/>
		<path class="st3" d="M-3983.89,443.98c-0.53-0.28-1.07-0.42-1.63-0.42s-1.01,0.14-1.34,0.42c-0.33,0.28-0.66,0.69-0.98,1.24
			c-0.02-0.55-0.13-0.96-0.32-1.24c-0.19-0.28-0.51-0.42-0.95-0.42c-0.86,0-1.3,0.6-1.3,1.79v7.41c0,0.53,0.12,0.94,0.37,1.21
			c0.25,0.27,0.56,0.41,0.95,0.41c0.39,0,0.71-0.14,0.96-0.4c0.25-0.27,0.38-0.67,0.38-1.21v-2.22c0-0.8,0.03-1.48,0.08-2.03
			c0.05-0.56,0.15-1.03,0.28-1.44c0.14-0.4,0.33-0.71,0.58-0.91c0.25-0.2,0.56-0.31,0.95-0.31c0.29,0,0.62,0.06,0.99,0.18
			c0.37,0.12,0.61,0.18,0.71,0.18c0.26,0,0.5-0.11,0.73-0.32c0.22-0.21,0.34-0.48,0.34-0.8
			C-3983.11,444.63-3983.37,444.26-3983.89,443.98z"/>
		<path class="st3" d="M-3965.89,451.81l-2.73-4.29l1.41-1.3c0.72-0.65,1.08-1.17,1.08-1.56c0-0.32-0.11-0.58-0.33-0.79
			c-0.22-0.21-0.5-0.32-0.83-0.32c-0.28,0-0.52,0.07-0.71,0.21c-0.19,0.14-0.48,0.41-0.85,0.8l-2.99,3.14v-6.45
			c0-0.55-0.12-0.96-0.36-1.24c-0.24-0.28-0.57-0.42-0.97-0.42c-0.42,0-0.75,0.15-0.97,0.46c-0.23,0.31-0.34,0.76-0.34,1.35v11.34
			c0,0.53,0.12,0.94,0.35,1.21c0.23,0.27,0.56,0.41,0.96,0.41c0.35,0,0.66-0.14,0.93-0.41c0.27-0.28,0.4-0.67,0.4-1.18v-2.11
			l1.44-1.36l2.35,3.86c0.3,0.46,0.54,0.78,0.71,0.95c0.18,0.18,0.43,0.26,0.75,0.26c0.38,0,0.68-0.12,0.91-0.37
			c0.23-0.24,0.35-0.58,0.35-1c0-0.15-0.04-0.31-0.13-0.47C-3965.55,452.37-3965.69,452.13-3965.89,451.81z"/>
		<path class="st3" d="M-3947.53,439.85h-6.82c-0.41,0-0.75,0.06-1.01,0.18c-0.26,0.12-0.46,0.31-0.58,0.57
			c-0.12,0.26-0.18,0.6-0.18,1.02v10.99c0,0.59,0.13,1.03,0.4,1.33c0.27,0.29,0.62,0.44,1.05,0.44c0.42,0,0.77-0.14,1.04-0.43
			c0.27-0.29,0.4-0.73,0.4-1.33v-4.71h4.76c0.44,0,0.76-0.1,0.98-0.29c0.22-0.19,0.33-0.46,0.33-0.79c0-0.33-0.11-0.6-0.33-0.79
			s-0.55-0.3-0.99-0.3h-4.76v-3.65h5.7c0.46,0,0.8-0.1,1.03-0.31c0.22-0.2,0.34-0.48,0.34-0.81c0-0.33-0.11-0.6-0.34-0.8
			C-3946.73,439.95-3947.07,439.85-3947.53,439.85z"/>
		<path class="st3" d="M-3928.08,450.68c0.01-0.53,0.01-1.02,0.01-1.45c0-0.44,0.01-0.96,0.01-1.59c0-0.99-0.14-1.78-0.41-2.38
			c-0.28-0.6-0.75-1.03-1.42-1.31s-1.59-0.41-2.76-0.41c-1.05,0-1.92,0.14-2.62,0.43c-0.7,0.29-1.22,0.65-1.55,1.09
			c-0.33,0.44-0.5,0.9-0.5,1.36c0,0.3,0.11,0.54,0.33,0.74c0.22,0.19,0.48,0.29,0.77,0.29c0.33,0,0.55-0.06,0.65-0.18
			s0.27-0.37,0.52-0.75c0.24-0.38,0.54-0.66,0.88-0.85c0.34-0.19,0.85-0.28,1.52-0.28c0.79,0,1.3,0.16,1.55,0.49
			c0.25,0.33,0.39,0.84,0.42,1.54c-0.56,0.16-1.08,0.3-1.55,0.41c-0.48,0.11-1.05,0.24-1.72,0.38c-0.67,0.14-1.09,0.22-1.26,0.26
			c-0.81,0.18-1.44,0.52-1.9,1.03c-0.46,0.51-0.69,1.13-0.69,1.86c0,0.54,0.14,1.04,0.42,1.5c0.28,0.46,0.68,0.83,1.19,1.1
			c0.52,0.27,1.12,0.4,1.8,0.4c0.75,0,1.42-0.13,2.02-0.38c0.6-0.25,1.22-0.62,1.87-1.13c0.3,0.49,0.58,0.86,0.85,1.12
			s0.54,0.39,0.81,0.39c0.32,0,0.61-0.11,0.87-0.34c0.26-0.22,0.38-0.47,0.38-0.75c0-0.16-0.08-0.51-0.25-1.05
			C-3928,451.7-3928.08,451.18-3928.08,450.68z M-3930.67,449.41c0,0.92-0.12,1.59-0.36,1.99c-0.21,0.36-0.53,0.66-0.98,0.89
			c-0.45,0.23-0.93,0.35-1.46,0.35c-0.49,0-0.89-0.14-1.2-0.42c-0.31-0.28-0.46-0.63-0.46-1.03c0-0.39,0.13-0.69,0.39-0.91
			c0.26-0.22,0.53-0.36,0.82-0.44c0.29-0.07,0.8-0.19,1.54-0.35c0.74-0.16,1.31-0.31,1.7-0.45V449.41z"/>
		<path class="st3" d="M-3909.98,449.92c-0.27,0-0.5,0.08-0.69,0.25c-0.19,0.17-0.36,0.4-0.53,0.7c-0.29,0.51-0.63,0.88-1.01,1.13
			c-0.38,0.25-0.84,0.37-1.37,0.37c-0.4,0-0.76-0.08-1.09-0.23c-0.33-0.15-0.61-0.38-0.85-0.67c-0.23-0.3-0.41-0.65-0.54-1.07
			c-0.12-0.42-0.18-0.88-0.18-1.38c0-1.07,0.24-1.9,0.72-2.52c0.48-0.61,1.11-0.92,1.9-0.92c0.55,0,1,0.12,1.35,0.37
			c0.35,0.25,0.69,0.62,1.02,1.11c0.18,0.25,0.35,0.44,0.49,0.55c0.15,0.11,0.33,0.17,0.55,0.17c0.34,0,0.63-0.11,0.86-0.33
			c0.24-0.22,0.36-0.49,0.36-0.81c0-0.31-0.11-0.65-0.32-1.01c-0.21-0.36-0.52-0.7-0.92-1.02c-0.4-0.32-0.89-0.58-1.46-0.78
			c-0.57-0.2-1.21-0.3-1.9-0.3c-1.11,0-2.07,0.23-2.86,0.69c-0.8,0.46-1.41,1.11-1.83,1.94c-0.42,0.84-0.63,1.8-0.63,2.89
			c0,1.61,0.46,2.9,1.38,3.85c0.92,0.96,2.21,1.44,3.85,1.44c0.77,0,1.47-0.1,2.09-0.31s1.13-0.48,1.53-0.82
			c0.41-0.34,0.71-0.7,0.91-1.08c0.2-0.38,0.3-0.73,0.3-1.06c0-0.28-0.11-0.54-0.32-0.79
			C-3909.38,450.05-3909.65,449.92-3909.98,449.92z"/>
		<path class="st3" d="M-3890.5,449.32c0.38-0.2,0.57-0.63,0.57-1.3c0-0.72-0.19-1.43-0.56-2.12c-0.37-0.7-0.93-1.26-1.67-1.7
			c-0.74-0.44-1.64-0.66-2.67-0.66c-0.8,0-1.53,0.13-2.18,0.39c-0.66,0.26-1.21,0.62-1.66,1.11c-0.45,0.48-0.79,1.06-1.02,1.73
			c-0.23,0.67-0.35,1.4-0.35,2.19c0,1.67,0.47,2.99,1.42,3.97c0.95,0.97,2.28,1.46,3.99,1.46c0.75,0,1.41-0.1,1.98-0.29
			c0.57-0.2,1.05-0.44,1.43-0.74s0.66-0.6,0.85-0.93c0.19-0.32,0.28-0.6,0.28-0.84c0-0.27-0.08-0.48-0.25-0.63
			c-0.17-0.15-0.39-0.22-0.66-0.22c-0.25,0-0.45,0.06-0.58,0.18c-0.33,0.31-0.6,0.56-0.81,0.74c-0.21,0.18-0.44,0.35-0.68,0.51
			c-0.25,0.16-0.5,0.28-0.76,0.35c-0.26,0.07-0.55,0.11-0.87,0.11c-0.47,0-0.91-0.12-1.3-0.35c-0.39-0.23-0.71-0.58-0.95-1.04
			c-0.24-0.46-0.36-0.99-0.37-1.6h5.2C-3891.43,449.62-3890.89,449.52-3890.5,449.32z M-3897.33,448.11
			c0.09-0.9,0.35-1.57,0.77-2.03c0.43-0.46,0.97-0.69,1.63-0.69c0.7,0,1.26,0.23,1.68,0.68c0.43,0.45,0.67,1.13,0.74,2.04H-3897.33z
			"/>
		<path class="st3" d="M-3871.23,439.99c-0.22-0.26-0.53-0.38-0.93-0.38c-0.4,0-0.71,0.14-0.93,0.42c-0.22,0.28-0.33,0.69-0.33,1.24
			v3.93c-0.5-0.55-1.01-0.95-1.54-1.21c-0.53-0.26-1.17-0.39-1.94-0.39c-1.32,0-2.39,0.46-3.21,1.39c-0.81,0.93-1.22,2.22-1.22,3.89
			c0,0.79,0.1,1.52,0.31,2.19c0.2,0.68,0.51,1.26,0.9,1.76c0.4,0.5,0.87,0.89,1.41,1.15c0.54,0.27,1.13,0.4,1.77,0.4
			c0.48,0,0.92-0.07,1.33-0.2c0.41-0.13,0.78-0.33,1.13-0.58c0.35-0.26,0.7-0.59,1.06-1v0.26c0,0.49,0.12,0.86,0.36,1.13
			c0.24,0.26,0.54,0.39,0.9,0.39c0.37,0,0.67-0.13,0.91-0.38c0.23-0.25,0.35-0.63,0.35-1.14v-11.73
			C-3870.91,440.62-3871.02,440.25-3871.23,439.99z M-3873.91,450.83c-0.23,0.5-0.54,0.88-0.93,1.12c-0.39,0.24-0.81,0.37-1.28,0.37
			c-0.46,0-0.89-0.13-1.28-0.38c-0.39-0.26-0.7-0.64-0.92-1.15c-0.22-0.51-0.34-1.12-0.34-1.84c0-0.68,0.11-1.28,0.32-1.8
			c0.21-0.52,0.51-0.91,0.89-1.19c0.38-0.28,0.82-0.41,1.31-0.41c0.47,0,0.9,0.14,1.29,0.4c0.39,0.27,0.7,0.66,0.94,1.17
			c0.23,0.51,0.35,1.12,0.35,1.83C-3873.57,449.7-3873.68,450.33-3873.91,450.83z"/>
	</g>
</g>
<g>
	<g>
		<linearGradient id="SVGID_7_" gradientUnits="userSpaceOnUse" x1="63.0088" y1="9.0997" x2="63.0088" y2="118.4746">
			<stop  offset="7.204385e-04" style="stop-color:#70BD6B"/>
			<stop  offset="0.9981" style="stop-color:#4CC7F1"/>
		</linearGradient>
		<path class="st7" d="M108.36,114.25c-3.78-4.1-5.69-9.59-5.69-16.33v-66c0-0.06-0.01-0.12-0.03-0.18
			c-1.08-3.93-1.96-6.78-2.68-8.73c-1.32-3.55-3.57-6.74-6.7-9.49c-2.67-2.34-7.39-5.14-14.77-5.14c-5.71,0-10.57,1.6-14.45,4.75
			c-3.29,2.68-5.72,5.96-7.22,9.76c-0.86,2.17-1.76,5.02-2.73,8.69l-0.42-1.87c-1.06-4.98-2.38-8.89-4.02-11.95
			c-3.21-5.96-9.41-9.38-16.99-9.38c-5.47,0-10.38,1.97-14.21,5.71c-3.91,3.81-5.98,8.74-5.98,14.25c0,2.82,0.52,6.18,1.65,10.58
			l14.21,57.47c0.45,1.79,0.96,3.74,1.52,5.8c0.82,3.02,1.94,5.76,3.33,8.13c1.92,3.28,4.53,5.89,7.74,7.74
			c3.23,1.87,7.04,2.81,11.31,2.81c6.92,0,11.5-2.64,14.13-4.85c3.18-2.68,5.49-5.88,6.87-9.51c0.79-2.07,1.72-5.05,2.93-9.39
			c0.01-0.03,0.01-0.05,0.02-0.08l1.58-5.78c0.18-0.67,1.13-0.67,1.31,0L80.62,97c0.01,0.04,0.02,0.09,0.04,0.13
			c1.25,4.44,2.19,7.44,2.94,9.45c1.37,3.64,3.7,6.84,6.92,9.51c2.62,2.17,7.19,4.76,14.07,4.76c3.4,0,6.22-0.61,8.53-1.49
			c0.53-0.2,0.58-0.94,0.09-1.22C111.43,117.13,109.81,115.83,108.36,114.25z"/>
		<linearGradient id="SVGID_8_" gradientUnits="userSpaceOnUse" x1="151.4153" y1="120.8546" x2="151.4153" y2="8.3763">
			<stop  offset="0" style="stop-color:#F1858E"/>
			<stop  offset="1" style="stop-color:#FFF051"/>
		</linearGradient>
		<path class="st8" d="M187.47,27.35c0-5.42-2.14-10.37-6.03-13.91c-3.68-3.36-8.55-5.06-14.49-5.06h-41.3h-1.5
			c5.37,0,10.23,1.93,14.07,5.57c3.95,3.75,6.12,8.86,6.12,14.39c0,2.66-0.5,5.89-1.63,10.5l-14.22,57.52
			c-1.08,4.33-1.98,7.49-2.76,9.68c-1.33,3.74-3.56,7.02-6.63,9.75c-0.89,0.79-2.01,1.62-3.38,2.39c-0.5,0.28-0.45,1.02,0.08,1.23
			c2.44,0.96,5.09,1.46,7.91,1.46c5.99,0,11.26-2.25,15.24-6.52c3.81-4.08,5.74-9.6,5.74-16.41V82.36c0-0.38,0.31-0.68,0.68-0.68
			h15.92c5.7,0,10.43-1.63,14.07-4.84c3.96-3.5,6.15-8.46,6.15-13.96c0-5.43-2.12-10.35-5.98-13.87c-0.85-0.77-1.76-1.45-2.73-2.05
			c-0.52-0.32-0.41-1.09,0.19-1.24c3.28-0.78,6.11-2.25,8.46-4.39C185.33,37.78,187.47,32.82,187.47,27.35z"/>
		<linearGradient id="SVGID_9_" gradientUnits="userSpaceOnUse" x1="123.5016" y1="120.7734" x2="123.5016" y2="8.3764">
			<stop  offset="0" style="stop-color:#73788D"/>
			<stop  offset="0.999" style="stop-color:#6EB448"/>
		</linearGradient>
		<path class="st9" d="M138.22,13.94c-3.83-3.64-8.7-5.57-14.07-5.57c-6.89,0-11.22,2.84-13.63,5.22c-2.57,2.52-4.42,5.48-5.51,8.8
			c-0.63,1.9-1.24,4.3-1.88,7.33l-0.45,2.02c-0.01,0.05-0.02,0.1-0.02,0.15v66.02c0,6.74,1.92,12.23,5.69,16.33
			c1.7,1.84,3.65,3.32,5.79,4.4c0.19,0.1,0.43,0.1,0.63,0c1.82-0.88,3.25-1.92,4.33-2.88c3.07-2.73,5.31-6.01,6.63-9.75
			c0.78-2.19,1.68-5.34,2.76-9.68l14.22-57.52c1.12-4.6,1.63-7.84,1.63-10.5C144.34,22.81,142.17,17.7,138.22,13.94z"/>
	</g>
	<g>
		<path class="st3" d="M34.01,133.6c-0.38,0-0.66,0.1-0.86,0.29c-0.2,0.19-0.34,0.42-0.42,0.66c-0.08,0.25-0.17,0.59-0.26,1.02
			l-1.27,5.65c-0.16,0.69-1.14,0.72-1.32,0.03l-1.39-5.15c-0.18-0.64-0.31-1.1-0.42-1.38c-0.1-0.28-0.29-0.54-0.56-0.77
			c-0.27-0.24-0.65-0.36-1.13-0.36c-0.48,0-0.86,0.11-1.14,0.34c-0.28,0.23-0.48,0.5-0.6,0.81c-0.12,0.31-0.26,0.77-0.42,1.36
			l-1.38,5.13c-0.18,0.69-1.17,0.67-1.32-0.03l-1.27-5.64c-0.14-0.64-0.3-1.13-0.48-1.47c-0.18-0.34-0.54-0.51-1.06-0.51
			c-0.38,0-0.7,0.13-0.96,0.38c-0.26,0.25-0.39,0.56-0.39,0.94c0,0.29,0.07,0.72,0.21,1.28l2.38,9.62c0.07,0.29,0.15,0.6,0.24,0.93
			c0.09,0.33,0.21,0.62,0.35,0.87c0.14,0.24,0.33,0.43,0.56,0.57c0.23,0.13,0.52,0.2,0.88,0.2c0.44,0,0.8-0.11,1.06-0.34
			c0.27-0.22,0.45-0.48,0.56-0.76c0.11-0.28,0.25-0.75,0.43-1.4l1.68-6.14c0.18-0.67,1.13-0.67,1.31,0l1.66,6.14
			c0.19,0.67,0.33,1.14,0.44,1.42c0.1,0.28,0.29,0.52,0.56,0.75c0.27,0.22,0.62,0.33,1.06,0.33c0.47,0,0.83-0.11,1.09-0.34
			c0.26-0.23,0.44-0.49,0.55-0.79c0.11-0.3,0.24-0.78,0.4-1.43l2.38-9.62c0.14-0.58,0.21-1.01,0.21-1.28c0-0.38-0.13-0.69-0.39-0.94
			C34.7,133.73,34.38,133.6,34.01,133.6z"/>
		<path class="st3" d="M52.6,139.06c-0.47-0.48-1.03-0.85-1.69-1.11s-1.39-0.39-2.19-0.39c-0.79,0-1.52,0.13-2.17,0.39
			c-0.66,0.26-1.21,0.62-1.68,1.1c-0.46,0.47-0.82,1.05-1.06,1.71c-0.25,0.67-0.37,1.41-0.37,2.21c0,0.8,0.12,1.53,0.37,2.19
			c0.24,0.66,0.6,1.23,1.07,1.71c0.47,0.48,1.03,0.86,1.67,1.12c0.64,0.26,1.37,0.39,2.17,0.39c0.81,0,1.54-0.13,2.19-0.39
			c0.65-0.26,1.21-0.62,1.68-1.11c0.47-0.48,0.83-1.06,1.07-1.73c0.25-0.67,0.37-1.4,0.37-2.19c0-0.8-0.12-1.53-0.37-2.19
			C53.42,140.11,53.07,139.54,52.6,139.06z M50.65,145.49c-0.48,0.61-1.12,0.91-1.92,0.91c-0.53,0-1-0.14-1.39-0.41
			c-0.39-0.28-0.7-0.67-0.91-1.19c-0.21-0.52-0.32-1.13-0.32-1.82c0-0.7,0.11-1.32,0.32-1.84c0.21-0.53,0.52-0.92,0.92-1.19
			c0.4-0.27,0.85-0.4,1.37-0.4c0.81,0,1.45,0.3,1.92,0.91c0.48,0.6,0.72,1.45,0.72,2.53C51.36,144.04,51.12,144.88,50.65,145.49z"/>
		<path class="st3" d="M69.61,137.98c-0.53-0.28-1.07-0.42-1.63-0.42s-1.01,0.14-1.34,0.42c-0.33,0.28-0.66,0.69-0.98,1.24
			c-0.02-0.55-0.13-0.96-0.32-1.24c-0.19-0.28-0.51-0.42-0.95-0.42c-0.86,0-1.3,0.6-1.3,1.79v7.41c0,0.53,0.12,0.94,0.37,1.21
			c0.25,0.27,0.56,0.41,0.95,0.41c0.39,0,0.71-0.14,0.96-0.4c0.25-0.27,0.38-0.67,0.38-1.21v-2.22c0-0.8,0.03-1.48,0.08-2.03
			c0.05-0.56,0.15-1.03,0.28-1.44c0.14-0.4,0.33-0.71,0.58-0.91c0.25-0.2,0.56-0.31,0.95-0.31c0.29,0,0.62,0.06,0.99,0.18
			c0.37,0.12,0.61,0.18,0.71,0.18c0.26,0,0.5-0.11,0.73-0.32c0.22-0.21,0.34-0.48,0.34-0.8C70.39,138.63,70.13,138.26,69.61,137.98z
			"/>
		<path class="st3" d="M87.61,145.81l-2.42-3.81c-0.18-0.28-0.13-0.64,0.11-0.87l0.99-0.91c0.72-0.65,1.08-1.17,1.08-1.56
			c0-0.32-0.11-0.58-0.33-0.79c-0.22-0.21-0.5-0.32-0.83-0.32c-0.28,0-0.52,0.07-0.71,0.21c-0.19,0.14-0.48,0.41-0.85,0.8
			l-1.82,1.91c-0.42,0.45-1.17,0.14-1.17-0.47v-4.75c0-0.55-0.12-0.96-0.36-1.24c-0.24-0.28-0.57-0.42-0.97-0.42
			c-0.42,0-0.75,0.15-0.97,0.46c-0.23,0.31-0.34,0.76-0.34,1.35v11.34c0,0.53,0.12,0.94,0.35,1.21c0.23,0.27,0.56,0.41,0.96,0.41
			c0.35,0,0.66-0.14,0.93-0.41s0.4-0.67,0.4-1.18v-1.82c0-0.19,0.08-0.37,0.21-0.49l0.62-0.58c0.32-0.3,0.82-0.23,1.05,0.14
			l1.91,3.14c0.3,0.46,0.54,0.78,0.71,0.95c0.18,0.18,0.43,0.26,0.75,0.26c0.38,0,0.68-0.12,0.91-0.37c0.23-0.24,0.35-0.58,0.35-1
			c0-0.15-0.04-0.31-0.13-0.47C87.95,146.37,87.81,146.13,87.61,145.81z"/>
		<path class="st3" d="M105.97,133.85h-6.82c-0.41,0-0.75,0.06-1.01,0.18c-0.26,0.12-0.46,0.31-0.58,0.57
			c-0.12,0.26-0.18,0.6-0.18,1.02v10.99c0,0.59,0.13,1.03,0.4,1.33c0.27,0.29,0.62,0.44,1.05,0.44c0.42,0,0.77-0.14,1.04-0.43
			c0.27-0.29,0.4-0.73,0.4-1.33v-4.03c0-0.38,0.31-0.68,0.68-0.68h4.08c0.44,0,0.76-0.1,0.98-0.29c0.22-0.19,0.33-0.46,0.33-0.79
			c0-0.33-0.11-0.6-0.33-0.79s-0.55-0.3-0.99-0.3h-4.08c-0.38,0-0.68-0.31-0.68-0.68v-2.29c0-0.38,0.31-0.68,0.68-0.68h5.02
			c0.46,0,0.8-0.1,1.03-0.31c0.22-0.2,0.34-0.48,0.34-0.81c0-0.33-0.11-0.6-0.34-0.8C106.77,133.95,106.43,133.85,105.97,133.85z"/>
		<path class="st3" d="M125.42,144.68c0.01-0.53,0.01-1.02,0.01-1.45c0-0.44,0.01-0.96,0.01-1.59c0-0.99-0.14-1.78-0.41-2.38
			c-0.28-0.6-0.75-1.03-1.42-1.31s-1.59-0.41-2.76-0.41c-1.05,0-1.92,0.14-2.62,0.43c-0.7,0.29-1.22,0.65-1.55,1.09
			c-0.33,0.44-0.5,0.9-0.5,1.36c0,0.3,0.11,0.54,0.33,0.74c0.22,0.19,0.48,0.29,0.77,0.29c0.33,0,0.55-0.06,0.65-0.18
			s0.27-0.37,0.52-0.75c0.24-0.38,0.54-0.66,0.88-0.85c0.34-0.19,0.85-0.28,1.52-0.28c0.79,0,1.3,0.16,1.55,0.49
			c0.17,0.22,0.29,0.53,0.36,0.93c0.06,0.34-0.16,0.68-0.5,0.78c-0.35,0.1-0.68,0.18-0.99,0.25c-0.48,0.11-1.05,0.24-1.72,0.38
			c-0.67,0.14-1.09,0.22-1.26,0.26c-0.81,0.18-1.44,0.52-1.9,1.03c-0.46,0.51-0.69,1.13-0.69,1.86c0,0.54,0.14,1.04,0.42,1.5
			c0.28,0.46,0.68,0.83,1.19,1.1c0.52,0.27,1.12,0.4,1.8,0.4c0.75,0,1.42-0.13,2.02-0.38c0.43-0.18,0.87-0.42,1.32-0.73
			c0.29-0.2,0.7-0.12,0.91,0.16c0.16,0.22,0.32,0.41,0.47,0.56c0.27,0.26,0.54,0.39,0.81,0.39c0.32,0,0.62-0.11,0.87-0.34
			c0.26-0.22,0.38-0.47,0.38-0.75c0-0.16-0.08-0.51-0.25-1.05C125.5,145.7,125.42,145.18,125.42,144.68z M122.83,143.41
			c0,0.92-0.12,1.59-0.36,1.99c-0.21,0.36-0.53,0.66-0.98,0.89c-0.45,0.23-0.93,0.35-1.46,0.35c-0.49,0-0.89-0.14-1.2-0.42
			c-0.31-0.28-0.46-0.63-0.46-1.03c0-0.39,0.13-0.69,0.39-0.91c0.26-0.22,0.53-0.36,0.82-0.44c0.29-0.07,0.8-0.19,1.54-0.35
			c0.74-0.16,1.31-0.31,1.7-0.45V143.41z"/>
		<path class="st3" d="M143.52,143.92c-0.27,0-0.5,0.08-0.69,0.25c-0.19,0.17-0.36,0.4-0.53,0.7c-0.29,0.51-0.63,0.88-1.01,1.13
			c-0.38,0.25-0.84,0.37-1.37,0.37c-0.4,0-0.76-0.08-1.09-0.23c-0.33-0.15-0.61-0.38-0.85-0.67c-0.23-0.3-0.41-0.65-0.54-1.07
			c-0.12-0.42-0.18-0.88-0.18-1.38c0-1.05,0.23-1.88,0.7-2.5c0.53-0.69,1.43-1.02,2.29-0.92c0.38,0.05,0.7,0.16,0.97,0.35
			c0.35,0.25,0.69,0.62,1.02,1.11c0.18,0.25,0.35,0.44,0.49,0.55c0.15,0.11,0.33,0.17,0.55,0.17c0.34,0,0.63-0.11,0.86-0.33
			c0.24-0.22,0.36-0.49,0.36-0.81c0-0.31-0.11-0.65-0.32-1.01s-0.52-0.7-0.92-1.02c-0.4-0.32-0.89-0.58-1.46-0.78
			c-0.57-0.2-1.21-0.3-1.9-0.3c-1.11,0-2.07,0.23-2.87,0.69s-1.41,1.11-1.83,1.94c-0.42,0.84-0.63,1.8-0.63,2.89
			c0,1.61,0.46,2.9,1.38,3.85c0.92,0.96,2.21,1.44,3.85,1.44c0.77,0,1.47-0.1,2.09-0.31s1.13-0.48,1.53-0.82
			c0.41-0.34,0.71-0.7,0.91-1.08c0.2-0.38,0.3-0.73,0.3-1.06c0-0.28-0.11-0.54-0.32-0.79C144.12,144.05,143.85,143.92,143.52,143.92
			z"/>
		<path class="st3" d="M163,143.32c0.38-0.2,0.57-0.63,0.57-1.3c0-0.72-0.18-1.43-0.56-2.12c-0.37-0.7-0.93-1.26-1.67-1.7
			c-0.74-0.44-1.64-0.66-2.67-0.66c-0.8,0-1.53,0.13-2.18,0.39c-0.66,0.26-1.21,0.62-1.66,1.11s-0.79,1.06-1.02,1.73
			c-0.23,0.67-0.35,1.4-0.35,2.19c0,1.67,0.47,2.99,1.42,3.97c0.95,0.97,2.28,1.46,3.99,1.46c0.75,0,1.41-0.1,1.98-0.29
			c0.57-0.2,1.05-0.44,1.43-0.74s0.66-0.6,0.85-0.93c0.19-0.32,0.28-0.6,0.28-0.84c0-0.27-0.08-0.48-0.25-0.63s-0.39-0.22-0.66-0.22
			c-0.25,0-0.45,0.06-0.58,0.18c-0.33,0.31-0.6,0.56-0.81,0.74c-0.21,0.18-0.44,0.35-0.68,0.51c-0.25,0.16-0.5,0.28-0.76,0.35
			c-0.26,0.07-0.55,0.11-0.87,0.11c-0.47,0-0.91-0.12-1.3-0.35c-0.39-0.23-0.71-0.58-0.94-1.04c-0.24-0.46-0.36-0.99-0.37-1.6h5.2
			C162.07,143.62,162.61,143.52,163,143.32z M156.99,142.11c-0.44,0-0.78-0.42-0.66-0.85c0.14-0.49,0.34-0.88,0.62-1.18
			c0.43-0.46,0.97-0.69,1.63-0.69c0.7,0,1.26,0.23,1.68,0.68c0.28,0.3,0.49,0.7,0.61,1.21c0.1,0.42-0.23,0.84-0.67,0.84H156.99z"/>
		<path class="st3" d="M182.27,133.99c-0.22-0.26-0.53-0.38-0.93-0.38c-0.4,0-0.71,0.14-0.93,0.42c-0.22,0.28-0.33,0.69-0.33,1.24
			v3.93c-0.5-0.55-1.01-0.95-1.54-1.21c-0.53-0.26-1.17-0.39-1.94-0.39c-1.33,0-2.39,0.46-3.21,1.39c-0.81,0.93-1.22,2.22-1.22,3.89
			c0,0.79,0.1,1.52,0.31,2.19c0.2,0.68,0.51,1.26,0.9,1.76c0.4,0.5,0.87,0.89,1.41,1.15c0.54,0.27,1.13,0.4,1.77,0.4
			c0.48,0,0.92-0.07,1.33-0.2c0.41-0.13,0.78-0.33,1.13-0.58c0.35-0.26,0.7-0.59,1.06-1v0.26c0,0.49,0.12,0.86,0.36,1.13
			c0.24,0.26,0.54,0.39,0.9,0.39c0.37,0,0.67-0.13,0.91-0.38c0.23-0.25,0.35-0.63,0.35-1.14v-11.73
			C182.59,134.62,182.48,134.25,182.27,133.99z M179.59,144.83c-0.23,0.5-0.54,0.88-0.93,1.12c-0.39,0.24-0.81,0.37-1.28,0.37
			c-0.46,0-0.89-0.13-1.28-0.38s-0.7-0.64-0.92-1.15c-0.22-0.51-0.34-1.12-0.34-1.84c0-0.68,0.11-1.28,0.32-1.8
			c0.21-0.52,0.51-0.91,0.89-1.19c0.38-0.28,0.82-0.41,1.31-0.41c0.47,0,0.9,0.14,1.29,0.4c0.39,0.27,0.7,0.66,0.94,1.17
			c0.23,0.51,0.35,1.12,0.35,1.83C179.93,143.7,179.82,144.33,179.59,144.83z"/>
	</g>
</g>
</svg>
