<?xml version="1.0" encoding="utf-8"?>
<!-- Generator: Adobe Illustrator 24.1.0, SVG Export Plug-In . SVG Version: 6.00 Build 0)  -->
<svg version="1.1" id="圖層_1" xmlns="http://www.w3.org/2000/svg" xmlns:xlink="http://www.w3.org/1999/xlink" x="0px" y="0px"
	 viewBox="0 0 2564 548" style="enable-background:new 0 0 2564 548;" xml:space="preserve">
<style type="text/css">
	.st0{fill:url(#SVGID_1_);}
</style>
<g>
	<radialGradient id="SVGID_1_" cx="1282.1465" cy="279.3452" r="924.6623" gradientUnits="userSpaceOnUse">
		<stop  offset="0" style="stop-color:#70BD6B"/>
		<stop  offset="0.0274" style="stop-color:#91AE74"/>
		<stop  offset="0.0614" style="stop-color:#B39F7D"/>
		<stop  offset="0.0962" style="stop-color:#CE9384"/>
		<stop  offset="0.1315" style="stop-color:#E18B89"/>
		<stop  offset="0.1678" style="stop-color:#EC868C"/>
		<stop  offset="0.2064" style="stop-color:#F0848D"/>
		<stop  offset="0.3353" style="stop-color:#4CC7F1"/>
		<stop  offset="0.4669" style="stop-color:#FDEF51"/>
		<stop  offset="0.6405" style="stop-color:#F0848D"/>
		<stop  offset="0.7574" style="stop-color:#FDEF51"/>
		<stop  offset="0.8708" style="stop-color:#7DBBDC"/>
		<stop  offset="1" style="stop-color:#70BD6B"/>
	</radialGradient>
	<path class="st0" d="M0.33,460.79c192.05-7.05,384.12,1.03,576.19,0.99c56.19-0.01,112.39-0.51,168.58-0.79
		c28.67-0.15,57.52,0.76,86.16-0.43c12.67-0.53,25.36-2.01,38.06-1.37c14.45,0.73,28.3,4.19,42.89,3.73
		c12.34-0.39,25.03-2.06,36.82-5.81c10.81-3.44,21.03-8.79,32.55-9.41c9.28-0.5,19.94,2.99,28.32-2.27
		c7.91-4.96,3.84-13.13,0.89-20.18c-5.73-13.69-12.83-26.85-19.85-39.91c-5.74-10.69-16.09-23.11-15.07-35.7
		c0.85-10.53,6.79-22.37,0.55-32.13c-4.41-6.9-12.52-12.37-19.99-15.46c-3.06-1.27-11.97-3.78-12.7,1.97
		c-0.61,4.77,9.29,12.93,11.97,16.23c7.14,8.78,0.31,18.05-8.93,23.5c1.04-0.59,2.07-1.19,3.11-1.78
		c-7.53,0.82-18.6-20.08-15.8-26.23c-1.21,0.7-2.42,1.4-3.64,2.1c4.55-0.22,20.47,13.18,20.54,16.5
		c0.17,7.43-11.69,13.63-14.55,19.98c-2.6,5.77-0.4,5.29,5.03,7.95c13.49,6.59,22.44,19.4,28.78,32.62
		c5.52,11.51,7.36,33.12,19.54,39.42c0.19,0.1,3.65-1.97,3.64-2.1c-0.51-7.46-5.3-15.21-7.68-22.3c-3.08-9.17-5.31-18.76-8.88-27.76
		c-2.83-7.13-5.6-9.82-12.06-13.52c-2.97-1.7-13.35-8.04-11.96-12.99c-1.21,0.7-2.42,1.4-3.64,2.1c2.51-1.11,7.25,4.04,9.76,4.72
		c0.34,0.09,3.6-2.17,3.64-2.1c-1.17-2.55-6.86-7.15-6.01-9.63c-1.21,0.7-2.42,1.4-3.64,2.1c3.5,0.11,6.41,2.64,9.22,4.45
		c0.24,0.15,3.6-2.18,3.64-2.1c-1.63-3.52-4.73-4.99-5.92-8.74c-1.21,0.7-2.42,1.4-3.64,2.1c14.91,3.88,22.14,32.46,28.27,44.63
		c4.83,9.59,11.57,18.68,15.66,28.59c1.23,2.98,1.53,3.18,0.81,5.86c-0.49,1.82-3.88,3.41-2.28,5.41
		c2.15,2.68,15.37-4.43,18.76-6.69c14.99-10,6.42-31.66,21.94-41.59c-1.19,0.69-2.38,1.37-3.58,2.06c1.78-0.8,7.42-3.69,9.07-1.35
		c1.13,1.6,0.06,3.54-1.42,4.51c1.19-0.69,2.38-1.37,3.58-2.06c-5.09,1.29-6.49-8.27-7.13-11.34c-0.62-3.01-4.07-15.19-2.24-18.17
		c-1.21,0.7-2.42,1.4-3.64,2.1c1.56,1.45,3.25,0.43,4.88-1c5.16-4.53,3.32-15.49,1.36-21.2c-3.27-9.5-8.25-17.67-7.92-28.11
		c0.54-17.29,11.86-39.46,26.59-48.56c-1.19,0.69-2.38,1.37-3.58,2.06c4.69-2.2,10.31-3.12,14.49,0.71c1.91,1.75,4.93,6.59,1.6,8.55
		c1.04-0.59,2.07-1.19,3.11-1.78c-12.63,3.38-11.49-11.16-2.66-15.64c17.01-8.62,44.58-3.54,60.05,6.15
		c13.25,8.3,21.41,22.08,25.34,36.94c1.89,7.17,7.07,27.43,0.73,33.23c1.21-0.7,2.42-1.4,3.64-2.1
		c-15.77,6.91-27.28-11.14-17.31-23.89c-1.19,0.69-2.38,1.38-3.57,2.07c3.68-1.96,3.74,1.21,4.11,3.62
		c0.67,4.29-3.51,8.25-6.64,10.15c1.13-0.65,2.26-1.3,3.39-1.95c-11.04,1.75-16.08-12.14-27.26-7.76
		c-6.62,2.6-10.67,7.41-18.04,3.16c-11.49-6.63-26.99-30.57-40.31-13.56c-10.56,13.47,1.86,34.48-6.97,49.46
		c-2.69,4.57-10.48,23.22-1.4,21.91c6.55-0.94,13.61-9.92,19.41-11.92c9.28-3.19,39.34,2.46,20.61,14.05
		c1.19-0.69,2.38-1.37,3.58-2.06c-3.43,1.53-9.23,3.93-12.98,2.02c-3.61-1.84-4.21-5.18-0.45-7.91c-1.21,0.7-2.42,1.4-3.64,2.1
		c6.24,0.2,4.27,6.7,0.99,9.64c1.21-0.7,2.42-1.4,3.64-2.1c-7.61,3.16-24.96,0.22-11.16-8.44c-1.19,0.69-2.38,1.37-3.58,2.06
		c8.03-3.81,18.02-6.41,24.91,0.82c5.11,5.37,6.24,12.4-0.52,16.62c1.19-0.69,2.38-1.37,3.58-2.06c-7.47,2.96-15.38,2.12-23.12,0.6
		c-4.31-0.85-10.69-3.9-15.02-2.57c-6.58,2.01-4.35,9.26-3.66,14.69c2.48,19.63,11.18,42.92,30.33,51.78
		c18.72,8.66,43.99,0.16,58.24-14.01c8.61-8.56,13.14-20.16,14.68-32.05c0.53-4.08,2.73-16.11,0.7-19.77
		c-2.96-5.36-16.56-3.83-21.23-3.28c-6.6,0.79-14.82,4.63-21.3,4.24c-4.03-0.24-3.39,0.87-4.62-4.47
		c-1.44-6.23-1.49-12.61,3.71-17.05c-1.19,0.69-2.38,1.38-3.57,2.07c6.24-3.37,25.01-0.29,13.69,6.99c1.19-0.69,2.38-1.37,3.58-2.06
		c-4.86,1.53-4.63-5.64-1.88-7.87c-1.21,0.7-2.42,1.4-3.64,2.1c2.94-0.9,7.79-0.82,10.48,0.96c4.36,2.9,3.98,1.97-2.01,6.51
		c1.21-0.7,2.42-1.4,3.64-2.1c-5.67,2.67-17.55,3.72-22.81-0.62c-3.65-3.02-4.23-8.96-0.13-12.03c-1.21,0.7-2.42,1.4-3.64,2.1
		c6.28-1.93,54.14-11.65,42.26,6.08c1.21-0.7,2.42-1.4,3.64-2.1c-6.22,2.99-4.05-17.83,0.59-21.73c-1.13,0.66-2.26,1.31-3.38,1.97
		c13.12-7.35,22.71,7.34,15.93,18.9c-2.45,4.19-8.44,6.1-10.56,9.84c-2.12,3.72,0.96,9,2.29,12.62c3.42,9.29,2.32,23.92,14.4,25.05
		c9.77,0.91,19.18-4.09,28.66-5.44c0.41-0.06,3.63-1.82,3.64-2.1c0.06-6.3,2.08-10.6-4.06-12.85c-2.63-0.96-6.07-0.92-8.56,0.3
		c-0.81,0.4-2.79,1.17-3.32,1.92c-2.39,3.41-1.5,15.9-0.18,19.58c3.42,9.46,20.47,6.71,28.72,6.79c13.17,0.13,30.02,0.41,41.58-6.94
		c4.61-2.93,7.72-6.99,4.84-12.47c-1.81-3.46-6.01-5.82-9.63-6.95c-2.94-0.92-10.69,0.29-5.71-3.63c-1.21,0.7-2.42,1.4-3.64,2.1
		c3.07-1.44,6.14-2.88,9.22-4.32c0.4-0.19,3.52-2.21,3.64-2.1c-2.49-2.44-6.08-0.7-9.24-0.15c-2.03,0.35-4.07,0.7-6.1,1.05
		c0.69-3.3,2.72-5.61,6.1-6.95c-1.19,0.69-2.38,1.37-3.58,2.06c0.42-0.2,12.06-5.23,11.75-7.08c-0.95-5.6-26.03,9.23-14.84-2.45
		c5.33-5.56,19.06-8.3,19.33-17.56c0.47-15.94-20.22-19.96-30.97-13.75c-6.96,4.02-13.88,11.52-12.18,20.23
		c2.13,10.9,13.66,9.18,20.99,4.9c4.05-2.36,9.28-5.82,10.21-10.83c1.41-7.6-4.9-10.66-11.23-8.23c-3.39,1.3-11.37,8-4.25,9.59
		c4.45,0.99,6.03-5.5,6.53-8.03c2.84-14.24,7.51-30.85,3.77-45.26c-2.76-10.64-9.11-12.44-17.15-18.45
		c-10.06-7.51-9.71-21.74,0.88-28.7c-1.19,0.69-2.38,1.37-3.58,2.06c18.06-7.02,31.66,16.31,15.72,27.88c1.21-0.7,2.42-1.4,3.64-2.1
		c-11.18,2.5-20.96-12.66-13.09-21.5c-1.21,0.7-2.42,1.4-3.64,2.1c4.05,0.61,7.83,3.76,5.4,8.16c1.21-0.7,2.42-1.4,3.64-2.1
		c-10.19,2.87-7.75-25.59-7.06-30.19c1.17-7.72,4.04-15.06,5.18-22.78c1.56-10.56-0.73-11.43-10.37-10.93
		c-11.82,0.62-30.88,1.81-40.74-6.42c-11.97-9.99-10.69-22.9,1.24-31.33c-1.19,0.69-2.38,1.38-3.57,2.07
		c4.82-2.57,9.89-2.38,14.57-4.82c6.48-3.39,8.37-10.46,14.4-14.5c-1.19,0.69-2.38,1.37-3.58,2.06c9.1-2.74,16.86,2.13,18.49,11.62
		c1.7,9.85-5.53,18.44-5.28,28.32c-0.02-0.6,3.31-1.45,3.64-2.1c3.05-6.15,5.6-13.75,10.1-18.98c-1.21,0.7-2.42,1.4-3.64,2.1
		c4.87,0.33-2.64,14.39-3.69,17.2c0.28-0.75,2.95-1.57,3.64-2.1c4.52-3.46,6.13-8.83,10.76-12.21c-1.21,0.7-2.42,1.4-3.64,2.1
		c3.75-1.28,4.26-0.05,1.54,3.69c-0.81,2.74-1.29,5.53-1.43,8.38c0.06-0.58,3.14-1.6,3.64-2.1c5.05-5.12,8.79-10.87,12.78-16.8
		c5.74-8.55,12.34-12.63,22.06-16.36c13.82-5.31,24.7-5.04,38.51,0.56c11.54,4.68,23.91,10.34,34.83,16.31
		c9.72,5.31,25.71,19.88,24.63,31.89c1.21-0.7,2.42-1.4,3.64-2.1c-10.74-1.8-16.44-10.64-25.55-15.63
		c-8.92-4.89-19.57-5.92-29.2-2.61c-4.64,1.6-9.71,4.44-13.69,7.41c-8.25,6.16-12.46,15.23-17.65,23.8
		c-1.88,3.11-3.8,6.24-6.17,9.01c-1.54,1.84-3.25,3.5-5.15,4.96c2.44,1.63,4.97,3.1,7.61,4.38c10.65,4.31,22.36-0.38,33.64,2.11
		c8.8,1.94,30.96,7.87,14.98,17.92c1.19-0.69,2.38-1.37,3.58-2.06c-6.28,2.18-13.7,4.88-20.4,5.31c-3.13,0.2-5.97-0.04-8.95-1.04
		c-7.58-2.53-9.42-3.69-1.05-9.12c-1.19,0.69-2.38,1.37-3.58,2.06c5.12-2,18.46-2.52,12.04,6.98c1.21-0.7,2.42-1.4,3.64-2.1
		c-5.7,0.49-6.49-3.29-3.56-7.52c-1.21,0.7-2.42,1.4-3.64,2.1c6.01-2.15,12.37,1.45,18.11,3.4c7.99,2.72,7.27,3.17,7.89,11.97
		c1.21-0.7,2.42-1.4,3.64-2.1c-9.48,0.25-18.95,0.23-28.42-0.31c-8.68-0.49-20.37-4.27-28.78-2.43c-1.5,0.33-4.34,1.16-5.35,2.46
		c-2.8,3.59-1.34,12.57-1.37,16.66c-0.07,8.46,0.12,16.91,0.56,25.36c0.53,10.22,2.27,11.36,11.74,15.67
		c7.57,3.45,15.59,5.71,23.35,8.68c6.79,2.6,14.62,8.61,22.02,8.27c6.02-0.28,14.24-4.1,19.53-6.72c2.05-1.02,5.08-2.6,6.63-4.1
		c4.18-4.04,5.44-11.4,7.16-16.65c2.61-8.01,5.56-16.1,6.79-24.48c1.21-8.24,2.08-12.98-6.35-15.58c-3.89-1.2-10.71-1.06-13.96-3.3
		c-4.7-3.25-3.25-9.53,2.22-13.12c-1.19,0.69-2.38,1.37-3.58,2.06c5.72-1.64,19.89,2.13,10.28,8.02c1.19-0.69,2.38-1.37,3.58-2.06
		c-4.56,1.16-11.36-1.65-5.85-6.1c-1.21,0.7-2.42,1.4-3.64,2.1c3.39,1.41,3.58,2.81,1.95,6.02c1.13-0.66,2.26-1.31,3.38-1.97
		c-12.23,6.78-8.11-8.85-7.44-14.31c-1.19,0.69-2.38,1.38-3.57,2.07c7.5-3.75,15.76-3.16,23.76-4.9c0.4-0.09,3.66-1.88,3.64-2.1
		c-1.21-9.91-3.82-20.64-2.18-30.57c0.82-4.98,1.7-9.59,1.88-14.72c0.09-2.61-0.99-7.31,0.99-9.51c4.94-5.47,22.83-3.41,29.34-3.3
		c11.26,0.18,22.45,1.2,33.67,1.95c5.09,0.34,10.34,0.91,14.71-2.18c11.62-8.2-3.09-23.64-11.59-11.92
		c-5.03,6.94-4.72,19.21-5.05,27.4c-0.86,21.56-0.83,43.19-1.23,64.75c-0.51,27.14-1.56,54.25-2.59,81.37
		c-1.03,27.18,0.08,54.43-2.01,81.56c1.21-0.7,2.42-1.4,3.64-2.1c-3.93,0.44-18.32,3.51-21.7,0.24c-3.19-3.08-0.64-16.8-0.61-21.03
		c-1.21,0.7-2.42,1.4-3.64,2.1c10.5-0.38,33.99-6.17,38.93,6.89c3.77,9.98-0.09,24.27-0.65,34.62c-1,18.51,1.53,37.61,2.64,56.1
		c0.53,8.85,5.51,28.3-2.99,34.36c1.21-0.7,2.42-1.4,3.64-2.1c-4.51,1.75-13.45,3.36-17.49-0.4c-4.81-4.47-1.22-27.02-1.21-33.65
		c-1.21,0.7-2.42,1.4-3.64,2.1c19.88-2.74,40.7-1.21,60.65,0.35c9.34,0.73,19.48,3.63,28.19-1.05c4.83-2.59,6.23-5.48,6.71-11.41
		c1.66-20.56,1.77-41.52,2.6-62.14c1.72-42.55,0.4-85.12-0.96-127.66c-0.3-9.54-0.56-19.08-0.6-28.62
		c-0.02-5.54,0.02-11.08,0.16-16.62c0.08-3.38,2.35-13.81,0.72-16.46c-1.26-2.05,0.43-1.52-2.52-2.67
		c-2.04-0.8-11.36,1.51-13.67,1.73c-4.53,0.42-9.08,0.66-13.63,0.68c-3.12,0.01-6.23-0.08-9.34-0.28c-0.01-2.57-0.02-5.15-0.03-7.72
		c-1.21,0.7-2.42,1.4-3.64,2.1c13.51-0.17,26.94-0.02,40.27-2.53c0.39-0.07,3.67-1.93,3.64-2.1c-0.57-3.16-5.05-17.57-1.91-19.68
		c0.02-0.01,0.04-0.03,0.06-0.04c-9.82-0.49-19.78-0.11-29.6,0.22c-5.32,0.18-15.22-1.01-19.97,2.31
		c-6.53,4.58-3.1,16.81-3.07,24.37c0.06,11.11-4.76,31.94,1.26,41.91c12.35,20.44,32.17-22.35,13.41-18.73
		c-3.9,0.75-7.96,5.03-7.99,8.8c-0.13,17.31,39.96,4.11,34.21,21.26c1.21-0.7,2.42-1.4,3.64-2.1c-12.43,1.99-30.53-2.88-41.95,3.82
		c-0.82,0.48-2.32,0.95-2.91,1.7c-2.77,3.49-1.32,10.35-1.35,14.46c-0.06,7.6-0.17,15.2-0.32,22.79
		c-1.03,55.35-2.2,110.59-1.07,165.95c-0.01-0.43,3.22-1.69,3.64-2.1c0.1-0.1,0.2-0.19,0.3-0.29c-1.21,0.7-2.42,1.4-3.64,2.1
		c9.24-2.13,20.42,0.72,29.8,1.08c0.36,0.01,3.63-1.87,3.64-2.1c0.09-6.79,0.07-13.58,0.09-20.37c0.02-6.72-1.52-16.05,1.19-22.31
		c-1.19,0.69-2.38,1.38-3.57,2.07c7.3-3.69,26.02-0.79,33.34,0.99c4.38,1.07,3.43-0.34,5.17,2.9c1.27,2.38,0.88,7.11,1.07,9.72
		c0.63,8.8,0.82,17.64,0.94,26.47c0.06,4.71,2.24,16.22-2.61,19.43c1.19-0.69,2.38-1.37,3.58-2.06c-3.51,0.33-9.96,1.48-12.22-1.49
		c-2.19-2.87,0.01-17.53,0.09-21.31c0.31-16.46,0.78-32.91,0.64-49.37c-1.21,0.7-2.42,1.4-3.64,2.1c4.15-0.76,10.96-3.05,15.06-1.7
		c0.25,0.08,3.64-1.93,3.64-2.1c0.17-15.63,0.24-31.26,0.18-46.89c-0.03-7.4-0.08-14.81-0.17-22.21
		c-0.06-5.68-1.77-13.34,0.74-18.49c-1.19,0.69-2.38,1.38-3.57,2.07c5.07-2.74,22.76-5.44,27.41-1.02
		c2.69,2.56,2.32,10.34,2.54,13.64c0.84,12.23,0.27,24.51,0.07,36.75c-0.39,24.03-2.21,47.95-3.06,71.96
		c-0.11,3.25-0.21,6.5-0.26,9.76c-0.04,1.63-0.05,3.26-0.05,4.89c-0.82,2.44-0.07,3.21,2.26,2.3c3.89,1.73,13.77-0.62,18.2-0.66
		c2.21-0.02,7.14-0.94,9.11,0.02c3.17,1.54,2.52,2.26,2.81,6.57c0.44,6.55,0.53,13.1,0.44,19.66c1.21-0.7,2.42-1.4,3.64-2.1
		c-3.35,0.42-18.39,3.35-20.65,0.9c-2.8-3.04-0.13-19.54-0.04-24.09c0.32-16.78,1.33-33.54,2.47-50.28
		c2.35-34.53,3.41-69.1,3.63-103.71c0.22-33.86-0.25-67.72-0.57-101.58c-0.17-17.66,0.02-35.35-0.33-53.01
		c-0.33-16.54-2.7-32.87-0.96-49.42c-1.21,0.7-2.42,1.4-3.64,2.1c8.98,2.84,14.61,8.84,20.44,15.93
		c6.48,7.88,13.75,14.65,20.63,22.14c6.67,7.26,12.72,15.08,19.32,22.41c3.05,3.39,3.6,3.18,3.24,7.31
		c-0.39,4.4-6.82,11.22-9.34,15.08c-11.08,16.94-23.68,32.82-37.1,47.95c-2.62,2.96-11.8,10.08-11.65,13.88
		c0.07,1.73,3.43,4.81,4.47,6.15c13.52,17.55,28.08,34.31,42.12,51.43c3.96,4.83,11.28,11.11,13.52,17.06
		c2.48,6.56-5.37,14.81-8.86,20.45c-5.72,9.24-11.83,18.23-17.75,27.35c-6.9,10.63-13.82,21.26-20.58,31.98
		c-3.1,4.91-6.09,9.88-9.23,14.76c-1.15,1.79-10.29,13.05-9.86,14.28c1.38,3.94,31.73,2.84,36.35,2.76
		c13.85-0.24,27.47-2.09,40.99-5.08c0.47-0.1,3.47-2.26,3.64-2.1c-26.19-26.39-42.28-59.64-65.22-88.47
		c-4.22-5.31-9.42-9.72-6-16.89c2.89-6.04,10.11-10.26,14.88-14.69c14.5-13.49,24.97-29.56,34.81-46.61
		c2.42-4.2,11.96-15.78,10.51-20.26c-2.02-6.25-14.47-14.16-19.11-18.98c-7.95-8.26-14.44-17.6-21.57-26.53
		c-3.13-3.91-6.28-7.79-9.51-11.62c-2.14-2.53-7.56-6.62-8.81-9.71c-0.1-0.24-1.45-0.87-1.43-0.8c-0.35-1.88,6.84-9.1,8.13-10.69
		c6.12-7.55,12.79-14.57,19.8-21.29c7.36-7.06,13.91-14.4,19.87-22.68c2.22-3.08,7.74-8.81,5.48-10.83
		c-2.03-1.82-7.7-0.9-10.28-0.86c-14.48,0.26-32.32,4.19-45.42-3.81c-1.21,0.7-2.42,1.4-3.64,2.1c14.07-3.96,26.32-6.28,40.86-5.53
		c0.51,0.03,3.4-1.66,3.64-2.1c1.61-3.05,0.72-9.58,0.85-12.89c0.38-9.14,0.63-18.28,0.81-27.43c0.28-14.26,2.98-32.14-0.96-46.07
		c-0.02,0.01-0.05,0.02-0.07,0.03c-1.21,0.65-4.4,1.81-5.24,2.96c-2.81,3.83-1.01,15.05-0.87,19.51c0.29,9.12,0.9,18.21,0.54,27.33
		c-0.3,7.41-0.92,14.81-1.2,22.22c-0.14,3.74-2.39,16.66,0.83,19.54c1.21-0.7,2.42-1.4,3.64-2.1c-4.55-1-14.78-1.63-18.74-3.63
		c-3.41-1.72-2.86-3.65-3.47-8.4c-0.37-2.9-0.65-5.81-0.9-8.72c-1.12-13.46-1.01-27-0.6-40.49c0.19-6.23,3.23-18.77,0.76-25.02
		c-1.48-3.73-0.42-2.73-3.25-2.11c-2.61,0.58-4.11,3.25-4.48,5.54c-0.56,3.57,1.73,8.84,1.91,12.65c0.39,8.04-0.2,16.15-0.09,24.2
		c0.18,13.33-0.97,31.06,3.73,43.69c3.02,8.11,8.88,4.47,16.26,3.62c6.18-0.71,19.12-3.61,24.86-0.68c3.75,1.91,3.04,2.93,3.04,7.51
		c0.01,5.88,0.06,11.75,0.13,17.63c0.3,23.58,1.02,47.15,1.77,70.72c1.44,45.2,2.83,90.35,2.89,135.58
		c0.07,51.31,6.62,102.68,13.13,153.47c1.21-0.7,2.42-1.4,3.64-2.1c-3.69,0.32-7.38,0.65-11.06,0.97c-5.87,0.51-5.48,2.08-6.84-3.79
		c-1.54-6.61,0.07-15.16,0.57-21.85c-1.21,0.7-2.42,1.4-3.64,2.1c7.02-0.41,14.04-0.82,21.06-1.23c0.45-0.03,3.55-1.73,3.64-2.1
		c1.56-6.83,1.05-14.43,1.31-21.38c0.17-4.4-1.32-14.92,1.59-18.63c-1.21,0.7-2.42,1.4-3.64,2.1c6.9-1.45,13.83-2.62,20.86-3.27
		c3.12-0.29,6.24-0.49,9.37-0.6c4.47-0.16,5.47-1.01,7.15,2.22c3.96,7.59,0.57,17.78-6.03,21.94c1.19-0.69,2.38-1.37,3.58-2.06
		c-8.6,3.58-6.12-16.77-6.07-21.55c0.11-11.6,0.53-23.19,0.76-34.79c0.47-23.88-2.31-47.78-0.75-71.57c-1.21,0.7-2.42,1.4-3.64,2.1
		c15.28,2.21,30.57-5.19,45.78-5.88c16.57-0.76,12.59,10.8,12.32,23.92c-0.36,17.74-0.25,35.49-0.25,53.23
		c0,8.97,4.77,31.05-3.47,37.01c1.21-0.7,2.42-1.4,3.64-2.1c-7.04,1.97-9.64,2.4-11.77-3.59c-1.72-4.83-1.23-11.48-1.47-16.53
		c-0.8-16.69-0.73-33.42-0.62-50.12c0.07-10.84,0.38-21.68,0.38-32.52c0-8.12-0.48-16.22-0.88-24.33
		c-0.3-6.09-2.76-16.92-0.27-22.78c2.17-5.09,9.05-9.65,12.81-13.69c5.55-5.98,11.05-11.94,16.96-17.57
		c-1.19,0.69-2.38,1.38-3.57,2.07c7.01-3.74,32.22,33.05,37.01,38.43c1.21-0.7,2.42-1.4,3.64-2.1c-11.45,0.18-22.44,7.65-33.72,9.96
		c-5.41,1.11-12.47,3.03-18,2.24c-4.02-0.58-9.08-3.22-4.13-7.1c-1.21,0.7-2.42,1.4-3.64,2.1c10.27-2.2,53.82-10.22,57.14,3.89
		c0.86,3.63-1.21,7.93-1.72,11.48c-0.73,5.04-0.38,10.14-0.12,15.21c0.6,11.56,1.2,23.04,1.22,34.62
		c0.03,24.38-0.03,48.66,0.67,73.03c0.36,12.52,0.13,25.04,0.48,37.55c0.3,10.92,3.36,24.87,0.33,35.46c1.21-0.7,2.42-1.4,3.64-2.1
		c-2.53,0.72-13.12,2.03-15.62,0.23c-2.57-1.85-1.39-11-1.53-14.14c-0.55-12.06-1.68-24.1-1.62-36.19c-1.21,0.7-2.42,1.4-3.64,2.1
		c15.94-0.19,31.82-1.1,47.66-2.9c0.42-0.05,3.62-1.8,3.64-2.1c3.78-60.49,1.69-121.63,2.37-182.21c0.34-30.4,0.21-60.84,1.11-91.23
		c0.4-13.57,1.28-27.14,1-40.73c-0.15-7.46-0.6-14.95-1.71-22.34c-0.71-4.71-4.05-11.63-2.38-16.05c-1.21,0.7-2.42,1.4-3.64,2.1
		c10.97-4.16,25.89-3.81,37.49-4.32c5.05-0.22,29.25-3.84,27.06,5.08c1.21-0.7,2.42-1.4,3.64-2.1c-11.16,3.73-25.82,2.42-37.51,2.29
		c-4.09-0.05-31.31,1.45-20.74-7.61c-1.21,0.7-2.42,1.4-3.64,2.1c12.65-5.73,58.15-20.24,62.99,0.44
		c1.48,6.32-0.45,14.01-1.39,20.29c-1.31,8.85-2.01,17.48-2.34,26.44c-0.81,22.33,0.17,44.54,1.72,66.81
		c1.58,22.58,3.43,45.19,2.91,67.84c-0.54,23.47-3.55,46.68-2.78,70.2c1.58,48.1,5.5,96.22,8.35,144.26c1.21-0.7,2.42-1.4,3.64-2.1
		c-7.42-3.87-8.3-11.74-9.8-19.28c-1.91-9.61-3.54-19.28-5.06-28.96c-3.29-20.96-5.78-42.04-7.78-63.16
		c-3.92-41.54-5.9-83.23-7.97-124.9c-2.07-41.69-4.23-83.41-8.54-124.94c-2.21-21.26-6.64-42.82-6.1-64.26
		c0.25-9.81,1.48-19.45,1.21-29.29c-0.27-10.02-2.94-22.29-0.17-31.95c-1.21,0.7-2.42,1.4-3.64,2.1c5.66-2.38,2.54,11.23,2.36,14.48
		c-0.5,9.14-1.07,18.28-1.53,27.42c-0.91,18.07-0.97,36.09-0.9,54.17c0.12,31.13-0.66,62.25-2.45,93.32
		c-3.4,59.32-9.54,118.38-17.97,177.18c-5.19,36.21-10.06,72.7-14.43,109.03c-0.39,3.2-3.01,12.65-1.26,15.44
		c1.7,2.7,4.51,1.12,7.62,0.74c9.43-1.16,18.55-2.64,28.1-2.84c16.42-0.34,33.49,3.27,49.78,2.11c2.43-0.17,6.62-0.48,8.65-2.64
		c3.8-4.06,2.28-11.97,1.99-17.21c-0.56-10.05-2.02-20.01-2.09-30.08c-0.15-19.76,0.22-39.53,0.05-59.29
		c-0.1-11.04-0.27-22.08-0.34-33.12c-0.04-7.23-2.51-18.73,2.29-24.74c-1.21,0.7-2.42,1.4-3.64,2.1c8.07-3.25,20.29-1.75,28.84-1.94
		c9.79-0.23,19.59-0.3,29.39-0.23c4.9,0.04,9.8,0.11,14.69,0.23c3.26,0.08,6.53,0.17,9.79,0.28c-0.16,2.41-0.31,4.82-0.47,7.23
		c-0.66,10.45-1.29,20.9-1.58,31.37c-1.18,41.72,9.75,83.53,4.65,125.04c1.21-0.7,2.42-1.4,3.64-2.1c-9.45,0.5-18.9,0.99-28.35,1.49
		c-2.36,0.12-4.73,0.25-7.09,0.37c-3.16,0.96-4.03-0.63-2.62-4.76c-1.07-4.17-0.61-10.33-0.91-14.64
		c-1.34-19.51-3.26-38.97-5.61-58.39c-1.21,0.7-2.42,1.4-3.64,2.1c5.05-0.12,10.11-0.25,15.16-0.37c0.36-0.01,3.66-1.94,3.64-2.1
		c-1.06-8.08-2.12-16.16-3.17-24.24c-1.21,0.7-2.42,1.4-3.64,2.1c14.56,0.54,29.12,1.2,43.67,2.04c6.47,0.37,12.93,0.77,19.39,1.2
		c1.62,0.11,3.23,0.22,4.85,0.33c4.45-1.29,5.87-0.35,4.26,2.82c0.63,2.37-2.44,10.35-2.92,12.41c1.21-0.7,2.43-1.4,3.64-2.1
		c-2.5,0.02-14.12,1.57-15.5-0.04c-0.52-0.61-0.11-1.98-0.39-2.68c-1.5-3.79-0.58-10.22-0.73-14.25
		c-0.63-17.06-0.94-34.13-1.24-51.19c-0.55-30.37-1.12-60.76-1.15-91.13c-1.21,0.7-2.42,1.4-3.64,2.1
		c3.05,2.54,62.86-6.65,43.68,11.63c1.21-0.7,2.42-1.4,3.64-2.1c-9.49,3.24-30.45,4.93-34.9-7.04c-3.02-8.12-0.24-20.99-0.23-29.65
		c0.01-12.75-0.52-25.46-1.66-38.17c-1.21,0.7-2.42,1.4-3.64,2.1c16.87,6.31,11.62-29.08,17.16-35.29c-1.21,0.7-2.43,1.4-3.64,2.1
		c12.61-2.4,14.7-3.34,14.49-18.46c-0.26-19.36-3.92-38.57-6.74-57.67c0.08,0.53-3.51,1.45-3.64,2.1
		c-4.03,20.84-3.45,41.7-3.17,62.82c0.02,1.63,0.04,3.26,0.06,4.89c-1.62,4.46-0.41,6.11,3.64,4.95c2.98,1.4,7.35-0.36,9.97,2.52
		c3.65,4,0.78,16.47,0.8,21.69c0,1.32-0.8,6.03,0.87,7.48c2.58,2.25,8.49-1.21,10.8,0.81c1.66,1.45,1.2,11.12,1.52,13.94
		c0.61,5.4,1.26,10.79,1.83,16.2c0.92,8.77-0.76,22.37,1.97,30.5c-0.01,1.6-0.01,3.2-0.02,4.8c2.89,0.08,5.78,0.16,8.67,0.24
		c1.36,1.33,0.87,2.5,1.14,4.37c0.66,4.57-1.21,10.22-1.42,14.87c-0.41,9.06,0.49,18.15,1.2,27.18c1.64,21.01,1.77,42.1,1.75,63.18
		c-0.01,20.11-0.85,40.22-0.6,60.32c0.12,10.09,0.48,20.17,0.78,30.25c0.23,7.9,3.27,23.04-1.05,30.03c1.21-0.7,2.42-1.4,3.64-2.1
		c-12.24,1.88-11.78-46.83-4.23-52.85c-1.21,0.7-2.43,1.4-3.64,2.1c11.64-3.99,26.07-3.35,38.27-3.42
		c8.87-0.06,20.46,2.69,28.77-0.81c7.56-3.18,8.74-10.74,8.84-18.32c0.11-8.57-1.29-17.19-2.7-25.61
		c-0.58-3.45-0.68-15.92-3.4-18.42c-2.85-2.62-16.27-0.75-19.79-0.6c-7.02,0.31-14.02,1.05-20.99,1.9
		c-14.03,1.71-28.55,2.43-42.28,5.79c-0.42,0.1-3.65,1.82-3.64,2.1c0.21,4.39-1.19,14.02,0.86,17.85c-0.69,3.34,1.04,4.28,5.17,2.81
		c2.52,0.12,5.05,0.23,7.57,0.31c10.94,0.39,21.89,0.52,32.84,0.35c21.91-0.33,43.75-1.84,65.53-4.28c0.41-0.05,3.64-1.83,3.64-2.1
		c0.05-13.32,0.1-26.64,0.15-39.96c-1.21,0.7-2.43,1.4-3.64,2.1c5.87-0.34,11.79-0.26,17.66-0.34c8.19-0.12,18.59-1.88,26.62-0.19
		c5.44,1.15,4.2,0.11,5.09,7.54c1.07,9.04,1.71,18.13,1.97,27.23c0.58,19.99-0.64,39.95-2.56,59.84c1.21-0.7,2.42-1.4,3.64-2.1
		c-3.61,0.91-8.81,2.74-12.65,2.08c-3.53,1.55-5.01,0.79-4.45-2.29c-0.22-2.45-0.4-4.9-0.53-7.36c-0.57-9.84-0.6-19.7-0.47-29.54
		c0.26-19.01,0.95-38,1.23-57.01c0.28-19.11,0.5-38.22,0.52-57.33c0.01-9.95-0.03-19.89-0.14-29.84
		c-0.09-7.56-1.84-15.65,4.13-21.25c-1.21,0.7-2.42,1.4-3.64,2.1c14.27-6.66,31.91-3.47,45.67,2.87c0.21,0.1,3.64-1.96,3.64-2.1
		c-0.8-22.95-40.27-27.94-51.58-9.58c1.21-0.7,2.42-1.4,3.64-2.1c-0.48-10.31,4.21-17.86,12.81-23.52
		c-1.19,0.69-2.38,1.37-3.58,2.06c13.83-6.43,28.09-0.42,34.37,13.25c-0.1-0.21,3.59-1.69,3.64-2.1
		c2.14-17.13-11.82-45.06-32.35-35.42c-8.97,4.21-13.85,12.65-11.53,22.6c-0.1-0.43,3.67-1.57,3.64-2.1
		c-1.14-20.61,11.28-41.79,18.78-60.45c-1.21,0.7-2.42,1.4-3.64,2.1c13.65,32.3,16.23,67.41,17.7,102.07
		c1.54,36.37,6.03,73.26,4.39,109.65c1.21-0.7,2.42-1.4,3.64-2.1c-2.74,0.36-6.45,1.54-9.18,1.21c-5.82-0.7-4.4,0.73-3.87-6.3
		c0.22-2.92-0.95-14.34,1.27-16.17c-1.21,0.7-2.42,1.4-3.64,2.1c5.89-2.18,13.92-2.04,19.98-0.95c14.33,2.58,13.05,11.6,12.47,24.32
		c-1.86,40.49-4.44,80.95-6.96,121.4c1.21-0.7,2.43-1.4,3.64-2.1c-2.21,0.12-14.44,2.27-15.8,0.89c-0.82-0.83-0.33-2.6-0.72-3.58
		c-1.89-4.72-0.93-12.5-1.18-17.54c-0.48-9.7-4.14-26.34,4.06-33.09c-1.21,0.7-2.42,1.4-3.64,2.1c12.92-6.21,31.26-5.45,45.33-5.84
		c13.98-0.38,27.99-0.27,41.97-0.2c21.83,0.11,43.65,0.75,65.47,1.43c46.34,1.45,92.67,3.44,138.99,5.26
		c1.2,0.05,2.47-2.15,3.64-2.1c-68.51-2.7-137.11-6.44-205.69-6.7c-22.11-0.08-44.45-0.67-66.46,1.87
		c-7.28,0.84-17.17,1.04-23.19,6.23c-8.02,6.92-4.65,22.13-4.18,31.87c0.26,5.4-0.78,13.75,1.24,18.81c0.39,0.98-0.1,2.74,0.72,3.58
		c1.36,1.38,13.59-0.77,15.8-0.89c0.4-0.02,3.62-1.82,3.64-2.1c1.8-28.88,3.63-57.76,5.2-86.65c0.77-14.06,1.6-28.13,2.09-42.2
		c0.28-7.97-0.58-13.11-8.68-15.91c-6.35-2.19-18.47-3.25-24.64,0.28c-0.82,0.47-2.51,1.05-3.1,1.81
		c-2.03,2.61-0.91,10.57-1.13,13.86c-0.1,1.54-0.2,3.07-0.29,4.61c-2.01,4.03-1.44,5.46,1.72,4.29c2.02,0.8,9.64-1.27,11.48-1.52
		c0.42-0.06,3.62-1.8,3.64-2.1c1.64-36.39-2.86-73.27-4.39-109.65c-1.46-34.65-4.05-69.77-17.7-102.07c0.08,0.2-3.48,1.7-3.64,2.1
		c-7.51,18.67-19.92,39.86-18.78,60.45c1.21-0.7,2.42-1.4,3.64-2.1c-2.03-8.71,0.8-15.6,8.15-20.63c-1.21,0.7-2.43,1.4-3.64,2.1
		c20.57-8.68,34.26,18.2,32.09,35.55c1.21-0.7,2.42-1.4,3.64-2.1c-12.05-26.22-52.2-16.28-50.88,12.41
		c-0.02-0.53,3.29-1.53,3.64-2.1c1.31-2.85,3.44-4.96,6.39-6.33c-1.13,0.65-2.26,1.3-3.39,1.95c14.81-5.53,40.64-1.3,41.32,18.16
		c1.21-0.7,2.42-1.4,3.64-2.1c-13.6-6.27-34.14-10.58-47.74-1.7c-3.48,2.27-5.2,4.8-5.8,9.12c-1.9,13.63,0.25,29.08,0.24,42.89
		c-0.03,28.23-0.31,56.47-1,84.69c-0.36,14.81-0.99,29.63-0.77,44.45c0.09,5.89-0.95,14.03,0.82,19.66c1.67,5.31,0,5.19,6.82,4.54
		c3.6-0.34,6.97-1.01,10.49-1.89c0.47-0.12,3.6-1.72,3.64-2.1c1.84-19.07,3.04-38.19,2.61-57.36c-0.2-9.1-0.74-18.2-1.74-27.25
		c-0.8-7.26,0.55-8.8-5.38-10.01c-7.7-1.57-17.55,0.05-25.37,0.17c-6.29,0.09-12.63,0-18.91,0.36c-0.39,0.02-3.64,1.85-3.64,2.1
		c-0.05,13.32-0.1,26.64-0.15,39.96c1.21-0.7,2.42-1.4,3.64-2.1c-21.77,2.45-43.62,3.97-65.53,4.28
		c-10.11,0.15-20.22,0.06-30.32-0.26c-2.23-0.07-13.35,1.12-15.15-0.66c-2.16-2.15-0.82-17.09-0.98-20.4
		c-1.21,0.7-2.43,1.4-3.64,2.1c15.86-3.87,33.02-4.92,49.27-6.6c9.23-0.95,18.71-1.76,28-1.12c6.14,0.42,5.88,0.51,6.94,6.11
		c2.34,12.31,12.62,46.2-0.58,54.94c1.19-0.69,2.38-1.37,3.58-2.06c-9.43,2.98-20.9,0.48-30.72,0.63
		c-10.49,0.15-23.06-0.41-33.23,2.47c-4.02,1.14-8.17,3.51-9.77,7.45c-3.04,7.51-3.94,51.64,8.07,48.21
		c8.69-2.48,4.67-18.28,4.5-24.38c-1.34-49.93,1.6-100.11-1.31-149.98c-0.66-11.34-2.15-22.65-2.12-34.02
		c0.01-5.18,3.14-15.55,1.47-20.43c-1.56-4.55-0.61-2.02-5.44-3.39c-7.65-2.17-2.35,0.93-4.32-4.92c-0.73-2.18-0.18-7.52-0.27-9.5
		c-0.59-12.45-2.12-24.83-3.53-37.2c-0.26-2.32-0.53-4.64-0.78-6.96c-0.26-2.33-0.51-4.65-0.73-6.98c-1.4-0.08-2.79-0.15-4.19-0.23
		c-4.54-1.55-5.72,0.99-7.53-3.65c-3.49-8.95,6.48-23.99-5.35-27.87c-2.12-0.69-5.4,0.19-7.18-0.77c-2.94-1.58-1.83-5.52-1.89-9.82
		c-0.09-6.46-0.28-12.93-0.31-19.39c-0.07-14.64,0.69-29.03,3.48-43.43c-1.21,0.7-2.42,1.4-3.64,2.1c1.85,12.52,3.92,25,5.29,37.6
		c0.61,5.66,5.69,31.49-0.91,35.35c0.92-0.52,1.83-1.04,2.75-1.56c-4.05,0.73-7.68-0.34-11,2.5c-9.54,8.19,0.86,25.04-8.94,33.57
		c1.21-0.7,2.42-1.4,3.64-2.1c-1.67,0.93-3.28,0.85-4.83-0.23c-0.24-0.09-3.65,1.98-3.64,2.1c1.28,14.29,1.78,28.59,1.63,42.94
		c-0.09,8.68-3.73,23.08,3.51,29.65c7.11,6.46,25.3,5.81,33.25,1.37c2.54-1.42,5.38-3.4,5.56-6.61c0.38-6.64-7.69-6.62-12.44-6.93
		c-7.11-0.47-14.3,0.02-21.41,0.42c-2.37,0.13-11.27,2.02-13.35,0.28c-0.08-0.07-3.64,1.92-3.64,2.1
		c0.03,30.38,0.6,60.76,1.15,91.13c0.31,17.06,0.61,34.13,1.24,51.19c0.14,3.86-0.76,10.19,0.7,13.83c0.28,0.69-0.17,2.43,0.39,3
		c1.5,1.54,13.53,0.14,15.54,0.13c0.43,0,3.55-1.74,3.64-2.1c0.73-3.09,2.23-6.76,2.34-9.93c0.25-6.92,0.64-5.01-6.1-5.47
		c-7.27-0.49-14.54-0.95-21.82-1.37c-14.55-0.83-29.11-1.49-43.67-2.04c-0.35-0.01-3.66,1.95-3.64,2.1
		c1.06,8.08,2.12,16.16,3.17,24.24c1.21-0.7,2.42-1.4,3.64-2.1c-5.05,0.12-10.11,0.25-15.16,0.37c-0.36,0.01-3.66,1.93-3.64,2.1
		c2.35,19.42,4.26,38.88,5.61,58.39c0.3,4.33-0.63,10.75,0.91,14.64c0.09,1.63,0.17,3.25,0.26,4.88c3.15-0.17,6.3-0.33,9.45-0.5
		c9.45-0.5,18.9-0.99,28.35-1.49c0.42-0.02,3.6-1.79,3.64-2.1c2.77-22.53,0.3-44.76-2.09-67.2c-2.4-22.54-3.2-44.85-2.2-67.5
		c0.21-4.83,0.49-9.65,0.77-14.48c0.19-3.22,0.4-6.43,0.6-9.65c1.87-3.98,1.16-5.61-2.13-4.9c-3.53-1.93-13.08-0.32-17.14-0.38
		c-4.9-0.06-9.8-0.09-14.69-0.07c-11.43,0.03-22.86,0.26-34.28,0.7c-4.88,0.19-10.21-0.41-14.69,1.79
		c-6.52,3.19-5.41,9.55-5.41,16.36c-0.02,22.79,0.51,45.58,0.43,68.37c-0.06,16.84-0.69,33.69,0.86,50.47
		c0.65,7.08,5,24.79-0.34,30.73c1.21-0.7,2.42-1.4,3.64-2.1c-8.02,2.58-18.49,0.04-26.87-0.45c-11.04-0.65-22.11-1.13-33.16-0.65
		c-5.49,0.24-10.98,0.67-16.41,1.47c-2.68,0.39-9.33,3.08-11.81,2.1c-3.63-1.43-2.35-0.85-2.75-4.63
		c-0.97-9.28,2.23-20.49,3.53-29.65c1.61-11.39,3.35-22.76,4.99-34.14c8.94-61.86,16.46-124.13,21.66-186.43
		c3.18-38.06,5.28-76.2,5.78-114.39c0.28-21.35-0.39-42.73,0.28-64.07c0.34-10.81,0.95-21.62,1.56-32.42
		c0.17-3.02,3.83-26.23,0.31-27.76c-2.67-1.17-5.88,4.38-6.38,5.64c-3.06,7.77,0.85,23.42,1.01,31.66
		c0.22,11.49-1.56,22.86-1.19,34.35c0.7,22.22,4.87,44.42,7,66.54c2.11,22,3.66,44.04,4.96,66.1c2.95,49.85,4.6,99.77,8.48,149.56
		c1.97,25.23,4.5,50.42,8.07,75.47c1.73,12.12,3.69,24.21,5.95,36.25c1.61,8.58,2.13,19.61,10.72,24.1c0.19,0.1,3.65-1.97,3.64-2.1
		c-2.52-42.57-5.17-85.13-7.56-127.71c-2.22-39.55,3.37-78.73,1.45-118.26c-1.92-39.5-7.27-79.39-3.3-118.97
		c0.97-9.67,6.62-24.57,2.15-33.85c-4.35-9.03-19.1-7.26-27.18-6.34c-10.9,1.25-29.76,2.88-38.52,10.83
		c-6.36,5.77,0.45,6.84,5.65,7.22c10.73,0.78,21.62,0.66,32.37,0.23c5.18-0.21,18.95,1.77,22.83-3.6c6.19-8.57-22.01-5.8-26.17-5.62
		c-10.36,0.45-20.83,1.26-31.07,2.95c-2.54,0.42-5.34,0.5-7.54,2c-5.83,3.97-1.09,11.14-0.13,17.52c2.79,18.64,1.63,37.6,0.94,56.34
		c-3.46,93.24,2.09,187.05-3.72,280.17c1.21-0.7,2.42-1.4,3.64-2.1c-15.84,1.79-31.72,2.71-47.66,2.9c-0.38,0-3.64,1.86-3.64,2.1
		c-0.05,10.12,0.74,20.21,1.31,30.31c0.32,5.7-1.56,17.2,2.78,20.3c2.27,1.62,15.33,1.41,18.25-2.58
		c4.09-5.58,0.18-23.91-0.08-30.67c-0.44-11.6-0.22-23.19-0.47-34.79c-0.54-25.31-0.97-50.51-0.88-75.83
		c0.04-11.72-0.22-23.4-0.92-35.1c-0.56-9.41,0.64-17.55,1.29-26.71c0.76-10.7-6.32-10.51-15.58-11.09
		c-11.98-0.74-24.48,0.19-36.33,2.06c-3.18,0.5-10.14,1.66-10.55,5.79c-1.29,12.86,51.67-7.86,57.81-7.95
		c0.49-0.01,3.46-2.29,3.64-2.1c-7.61-8.53-14.4-17.73-21.93-26.32c-4.01-4.58-9.39-13.24-15.4-11.94
		c-8.1,1.76-15.24,14.05-20.34,19.54c-3.41,3.68-9.36,8.1-11.82,12.45c-2.31,4.1-1.37,9.58-1.2,14.26
		c0.43,11.69,1.39,23.35,1.34,35.06c-0.04,8.86-0.26,17.73-0.33,26.59c-0.12,13.98-0.16,27.96,0.15,41.93
		c0.19,8.67-1.47,22.05,2.01,30.23c2.55,5.99,8.07,5.09,13.73,1.87c9.43-5.35,5.09-18.51,5.03-27.74c-0.1-15.1-0.07-30.2,0.01-45.3
		c0.04-6.8,0.14-13.59,0.29-20.38c0.1-4.6,1.6-11.89,0.14-16.48c-2.63-8.26-14.59-5.22-21.19-4.04c-11.9,2.13-24.98,6.5-37.1,4.74
		c-0.33-0.05-3.62,1.87-3.64,2.1c-1.24,18.97,0.95,37.73,0.93,56.73c-0.01,18.91-1.26,37.82-0.97,56.72
		c0.11,6.77-0.98,17.56,7.44,13.71c3.8-1.74,7.69-4.49,8.95-8.5c0.75-2.37,1.04-15.1-0.68-17.16c-2.19-2.64-22.83,1.41-25.73,1.84
		c-3.26,0.49-11.81,0.33-14.65,3.92c-2.73,3.47-1.78,10.61-1.97,14.96c-0.35,8.23,0.38,17.29-1.47,25.37c1.21-0.7,2.42-1.4,3.64-2.1
		c-7.02,0.41-14.04,0.82-21.06,1.23c-0.41,0.02-3.62,1.81-3.64,2.1c-0.49,6.52-2.07,15.37-0.57,21.85c1.2,5.19-0.61,3.4,4.63,3.98
		c3.86,0.43,9.41-0.82,13.28-1.16c0.38-0.03,3.66-1.92,3.64-2.1c-5.33-41.6-8.5-82.84-11.73-124.59
		c-2.04-26.38-1.18-52.81-1.75-79.25c-0.79-36.54-2.24-73.05-3.28-109.58c-0.51-17.84-0.95-35.69-1.1-53.54
		c-0.04-5.11,1.79-15.44-2.22-17.76c-4.32-2.51-13.86-0.49-18.58-0.15c-4.75,0.34-14.54,3.61-19.15,2.4
		c-7.34-1.92-6.27-18.4-6.84-24.71c-1.16-12.94-1.21-25.9-1.09-38.87c0.05-5.16,0.37-10.49-0.42-15.6
		c-0.5-3.25-3.32-8.49,0.67-10.86c-1.04,0.59-2.07,1.19-3.11,1.78c2.78,1.52,1.45,8.08,1.35,10.75c-0.37,10.3-0.89,20.6-0.95,30.91
		c-0.06,10.47,0.19,20.97,1.27,31.38c0.29,2.87,0.65,5.74,1.09,8.6c-0.71,4.26,0.97,5.62,5.05,4.08c4.66,1.96,11.55,2.58,16.56,3.69
		c0.6,0.13,3.3-2.41,3.64-2.1c-4.82-4.31-0.53-26.6-0.19-32.48c0.37-6.42,0.74-12.78,0.67-19.22c-0.13-11.31-3.52-26.03,0.17-36.87
		c-1.19,0.69-2.38,1.38-3.57,2.07c3.36-1.81,2.78,14.08,2.82,16.37c0.14,9.6,0.01,19.21-0.19,28.8c-0.18,9.14-0.43,18.29-0.81,27.43
		c-0.14,3.42,0.79,9.78-0.85,12.89c1.21-0.7,2.42-1.4,3.64-2.1c-14.54-0.75-26.79,1.57-40.86,5.53c-0.59,0.16-3.27,2.33-3.64,2.1
		c11.37,6.95,26.78,4.69,39.45,4.08c2.85-0.14,16.41-2.03,17.88,1.2c1.11,2.45-13.43,18.64-15.46,21.04
		c-6,7.06-13.06,13.05-19.46,19.73c-4.68,4.88-17.49,15.53-18.65,22.3c-0.51,2.97-0.56,2.08,2.6,5.11
		c3.77,3.62,7.02,8.01,10.34,12.05c5.44,6.61,10.58,13.4,15.73,20.22c5.68,7.52,12.31,14.2,19.06,20.76
		c2.88,2.8,7.19,5.73,9.38,9.08c2.77,4.24,2.34,3.71-0.47,8.68c-9.67,17.08-19.14,34.94-32.32,49.61
		c-6.71,7.47-28.8,20.98-26.33,32.39c1.57,7.24,11.36,15.78,15.56,21.84c5.75,8.29,11.21,16.78,16.75,25.21
		c11.98,18.21,24.45,35.89,39.84,51.41c1.21-0.7,2.42-1.4,3.64-2.1c-22.28,4.93-45.01,6.44-67.71,3.72
		c-1.34-0.16-9.46-0.92-9.63-1.41c-0.16-0.48,3.44-4.7,3.82-5.25c2.93-4.15,5.66-8.43,8.37-12.72c5.65-8.97,11.29-17.95,17.03-26.87
		c11.66-18.11,24.02-35.88,34.89-54.48c5.3-9.07-0.1-12.7-6-19.99c-14.22-17.56-28.91-34.73-43.03-52.37
		c-2.14-2.67-9.05-8.9-9.21-12.61c-0.11-2.43,8.49-9.19,10.48-11.41c3.39-3.79,6.74-7.62,10.02-11.51
		c6.49-7.7,12.74-15.61,18.66-23.76c3.41-4.69,6.7-9.47,9.89-14.32c2.58-3.93,8.53-10.34,9.34-15.08c1.14-6.69-12.38-17.91-17-23.34
		c-6.96-8.18-15.16-15.13-22.03-23.34c-7.27-8.7-13.31-17.53-24.6-21.1c-0.26-0.08-3.61,1.88-3.64,2.1
		c-1.66,15.77,0.46,31.31,0.92,47.08c0.52,17.58,0.18,35.22,0.35,52.81c0.33,34.7,0.82,69.41,0.6,104.11
		c-0.21,33.8-1.19,67.58-3.46,101.3c-1.13,16.75-2.2,33.5-2.58,50.29c-0.13,5.91-2.68,18.89-0.06,24.06
		c-0.75,2.96,0.65,3.82,4.19,2.58c1.38,0,2.76-0.01,4.14-0.01c4.15-0.1,8.26-0.53,12.37-1.05c0.41-0.05,3.63-1.82,3.64-2.1
		c0.06-4.45,2.17-23.2-0.97-26.2c-1.62-1.55-10.89-0.08-13.66-0.03c-3.79,0.07-9.95,1.58-13.65,0.5c-4.66,1.81-6.17,0.27-4.52-4.61
		c0.03-1.63,0.05-3.26,0.08-4.88c0.1-4.88,0.29-9.75,0.51-14.62c0.44-9.75,1.09-19.49,1.62-29.23c1.27-23.35,2.53-47.53,1.14-70.94
		c-0.56-9.29,0.47-15.59-9.88-16.26c-6.09-0.39-17.21-1.42-22.28,3.61c-5.51,5.47-2.3,19.4-2.23,26.82
		c0.18,20.56,0.13,41.13-0.09,61.69c1.21-0.7,2.42-1.4,3.64-2.1c-4.05-1.34-10.87,0.93-15.06,1.7c-0.42,0.08-3.64,1.82-3.64,2.1
		c0.1,11.52-0.07,23.04-0.32,34.56c-0.14,6.58-0.31,13.17-0.41,19.75c-0.04,2.85-1.34,12.25-0.14,14.81
		c2.3,4.9,10.36,4.66,15.11,1.49c5.21-3.49,3.65-9.52,3.62-15.39c-0.07-11.41-0.16-22.92-1.24-34.29c-0.19-1.99-0.02-7.27-1.61-8.86
		c-2.89-2.88-18.45-1.97-22.14-2.14c-5.47-0.25-13.4-2.15-17.96,1.94c-4.02,3.6-2.48,11.72-2.49,16.83
		c-0.02,8.88,0,17.76-0.12,26.64c1.21-0.7,2.42-1.4,3.64-2.1c-9.02-0.35-26.32-5.94-33.73,1.31c1.21-0.7,2.42-1.4,3.64-2.1
		c-0.7-34.23-0.86-68.46-0.3-102.7c0.28-16.87,0.74-33.73,1.11-50.59c0.2-9.28,0.38-18.57,0.5-27.85c0.08-6.6-1.86-16.24,1.43-22.06
		c-1.19,0.69-2.38,1.38-3.57,2.07c11.74-5.82,28.77-1.4,41.16-3.39c0.55-0.09,3.48-1.63,3.64-2.1
		c3.58-10.68-13.87-10.57-20.03-11.14c-7.27-0.67-22.41-9.19-10.07-16.67c-1.13,0.65-2.26,1.3-3.39,1.95
		c12.53-1.16,7.82,15.12,2.06,20.34c1.19-0.69,2.38-1.38,3.57-2.07c-15.1,7.46-13.85-17.34-13.47-24.94
		c0.27-5.42,0.53-10.77,0.49-16.2c-0.04-5.6-2.66-23,0.3-27.3c-1.21,0.7-2.42,1.4-3.64,2.1c10.31-4.83,27.93-2.11,39.04-2.13
		c3.74-0.01,7.62-0.78,8.89,1.39c2.21,3.78,1.72,13.76,2.56,18.44c1.21-0.7,2.42-1.4,3.64-2.1c-13.32,2.51-26.77,2.36-40.27,2.53
		c-0.37,0-3.64,1.87-3.64,2.1c0,1.31-0.77,6.81,0.03,7.72c0.85,0.98,7.95,0.28,9.34,0.28c6.83-0.02,13.65-0.59,20.42-1.44
		c3.73-0.47,7.59-2.41,9.36,1c2.07,3.98-0.65,14.69-0.75,19.53c-0.56,27.3,1.11,54.59,1.76,81.87c0.67,27.87,0.88,55.83-0.12,83.69
		c-0.5,14.08-1.33,28.15-1.96,42.23c-0.42,9.34,3.11,27.64-4.45,34.49c1.19-0.69,2.38-1.38,3.57-2.07
		c-10.03,5.11-23.77,0.9-34.53,0.46c-17.99-0.74-35.76-2.56-53.7-0.09c-0.41,0.06-3.64,1.83-3.64,2.1
		c-0.02,9.35-5.39,33.21,6.24,35.43c4.57,0.87,9.74,0.14,13.79-2.14c10.72-6.03,6.08-22.94,5.42-33.16
		c-1.62-25.23-2.94-49.88-1.55-75.07c0.34-6.1,2.12-17.13-2.65-22.03c-8.05-8.26-26.95-3.4-36.85-3.04
		c-0.38,0.01-3.64,1.86-3.64,2.1c-0.03,3.69-2.39,18.12,0.61,21.03c3.48,3.36,17.31,0.25,21.7-0.24c0.42-0.05,3.61-1.79,3.64-2.1
		c2.02-26.29,0.96-52.68,1.91-79.01c0.95-26.3,2.08-52.6,2.59-78.91c0.45-23.24,0.4-46.54,1.33-69.76
		c0.27-6.85-0.37-25.34,6.65-29.42c-0.77,0.44-1.54,0.87-2.31,1.31c9.06-2.05,11.58,11.29,5.91,16.29c1.21-0.7,2.42-1.4,3.64-2.1
		c-10.31,2.8-23.18-0.37-33.73-0.91c-12.26-0.63-26.44-2.05-38.39,1.52c-2.6,0.77-6.98,2.29-8.97,4.4
		c-4.8,5.09-2.07,15.9-3.31,22.57c-2.1,11.28,0.07,22.01,1.46,33.38c1.21-0.7,2.42-1.4,3.64-2.1c-12.96,2.82-29.88-0.39-28.69,16.97
		c0.97,14.1,19.1-0.35,10.6-3.88c-0.43-0.18-3.22,1.77-3.64,2.1c-6.08,4.91,2.22,7.03,6.58,5.7c2.27-0.69,8.52-5.08,8.84-5.28
		c0.08-0.05,0.16-0.1,0.24-0.15c-5.79-4.02-11.04-6.54-17.74-3.58c-4.36,1.93-9.29,6.41-7.13,11.83c2.43,6.13,14.95,3.16,20.44,7.25
		c4.89,3.65,3.06,10.8,2.04,16.39c-2.1,11.56-6.13,34.08-16.49,41.01c1.19-0.69,2.38-1.37,3.58-2.06c-10.56,4.32-19,8.59-29.99,3.57
		c-10.81-4.93-22.13-8.26-33.02-12.95c-3.63-1.56-10.57-3.77-12.73-7.34c-2.22-3.66-1.06-11.9-1.21-16.09
		c-0.25-6.91-0.31-13.84-0.22-20.75c0.06-4.23-1.04-10.61,1.28-14.31c-1.21,0.7-2.42,1.4-3.64,2.1c8.48-1.9,19.61,1.34,28.19,1.88
		c10.26,0.65,20.51,0.73,30.78,0.46c0.37-0.01,3.65-1.9,3.64-2.1c-0.68-9.58-0.73-9.53-9.83-12.63c-5.22-1.78-10.93-4.96-16.34-2.66
		c-2.77,1.18-6.97,4.16-5.11,7.73c1.58,3.03,6.58,2.1,8.68-0.2c7.86-8.58-7.72-9.17-12.8-6.57c-0.85,0.43-1.67,0.95-2.48,1.44
		c-0.88,0.54-3.01,1.66-3.72,2.41c-2.71,2.87-2.85,1.38-1.16,4.02c1.09,1.69,5.8,2.98,7.63,3.43c8.79,2.13,21.37-1.77,29.41-5.97
		c1.62-0.84,3.86-1.88,5.02-3.1c7.36-7.72-3.55-10.98-9.82-13.25c-8.43-3.05-16.97-4.36-25.9-3.52c-5.25,0.49-24.79,0.4-22.54-6.68
		c0.86-2.72,6.28-6.96,8.05-9.66c2.37-3.62,4.35-7.49,6.56-11.21c5.76-9.71,13.1-18.25,24.91-20.33c8.77-1.55,17.78,0.33,25.34,4.99
		c8.3,5.12,13.86,12.94,23.93,14.63c0.32,0.05,3.62-1.87,3.64-2.1c1.52-16.89-21.98-30.48-34.69-36.28
		c-16.06-7.33-33.77-20.07-52.4-16.21c-8.71,1.81-17.8,5.79-25.57,10.26c-12.64,7.28-17.44,20.7-27.43,30.83
		c1.21-0.7,2.42-1.4,3.64-2.1c0.03-0.27,2.28-12.9,2.89-12.37c-0.07-0.07-3.01,0.33-3.06,0.33c-0.57,0.02-1.51,0.9-2,1.14
		c-5.79,2.84-7.41,9.38-12.33,13.14c1.21-0.7,2.42-1.4,3.64-2.1c1.32-3.52,9.96-18.69,2.34-16.44c-6.78,2-9.84,15.17-12.39,20.32
		c1.21-0.7,2.42-1.4,3.64-2.1c-0.26-10.33,7.86-19.71,4.98-30.05c-2.33-8.38-10.02-12.87-18.26-9.86
		c-7.77,2.84-10.02,11.62-16.64,15.78c1.19-0.69,2.38-1.37,3.58-2.06c-7,1.38-13.12,3.07-18.71,7.58
		c-8.74,7.05-8.84,15.01-2.79,24.03c6.52,9.71,17.21,10.81,28.18,11.68c6.5,0.51,12.77,0.21,19.26-0.11
		c6.26-0.32,8.49-0.24,8.46,6.58c-0.05,13.07-6.43,25.47-6.63,38.77c-0.06,4.19,3.63,26.33,11.13,16.98
		c4.39-5.47-3.49-10.48-8.27-6.53c-9.64,7.96,2.73,25.5,13.97,21.03c11.5-4.57,12.75-21.71,2.59-28.62
		c-6.71-4.57-16.3-1.99-22.16,3.16c-7.67,6.74-7.38,19.34,0.38,25.84c8.55,7.16,16.34,8.73,18.9,20.96
		c1.87,8.92,0.5,18.4-1.07,27.25c-1.08,6.1-1.24,17.71-4.9,22.61c1.21-0.7,2.42-1.4,3.64-2.1c-5.32-0.33-4.09-5.2-0.32-7.59
		c-1.19,0.69-2.38,1.37-3.58,2.06c4.39-1.39,8.5-1.71,10.63,3.26c2.89,6.76-4.19,12.29-8.99,15.42c1.19-0.69,2.38-1.37,3.58-2.06
		c-20.37,8.12-21.73-14.87-8.79-25.11c-1.13,0.66-2.26,1.31-3.38,1.97c10.16-5.69,22.7-2.53,28.09,8.2
		c6.95,13.85-13.88,21.27-23.3,27.58c-0.02,0.01-0.04,0.03-0.06,0.04c4.78,1.18,7.52-0.52,12.09-1.59c2.63-0.62,11.92-2.77,6.3,2.16
		c1.19-0.69,2.38-1.38,3.57-2.07c-2.83,1.54-6.16,2.88-8.91,4.72c-1.58,1.06-6.33,3.15-5.98,5.74c0.5,3.69,11.16-2.95,14.78,0.59
		c1.21-0.7,2.42-1.4,3.64-2.1c-2.12,1-10.68,3.44-12.85,6.42c-2.58,3.54-1.93,1.52,0.54,2.74c3.16,1.57,6.92,1.08,10.2,3.28
		c6.79,4.53,8.01,11.61,0.52,16.57c1.19-0.69,2.38-1.37,3.58-2.06c-17.9,6.51-38.22,6.04-56.94,4.47
		c-6.68-0.56-9.56-1.42-10.94-8.52c-0.96-4.97-0.64-12.16,0.62-17.01c-1.21,0.7-2.42,1.4-3.64,2.1
		c12.52-5.33,12.45,4.36,12.37,12.68c1.21-0.7,2.42-1.4,3.64-2.1c-9.34,1.33-26.66,10.53-35.17,3.5c-4.84-4-4.65-14.13-6.68-19.87
		c-2.3-6.53-6.55-11.98-1.52-17.25c4.57-4.78,10.13-7.62,10.96-15.01c0.96-8.58-5.46-16.17-14.3-14.11
		c-3.67,0.86-9.1,4.06-11.11,7.32c-2.97,4.82-3.31,23.74,5.35,16.86c2.66-2.11,4.22-5.35,2.03-8.41
		c-4.11-5.76-16.96-3.17-22.42-2.11c-6.94,1.35-18.72,0.59-24.46,5.9c-12.95,11.97,13.06,16.7,21.4,13.4
		c3.6-1.43,11.01-5.99,9.31-8.41c-2.6-3.7-12.54-3.1-15.87-0.04c-4.29,3.94-2.87,9.18,2.7,7.44c5.24-1.63,7.76-7.76,1.75-10.25
		c-4.84-2.01-12.68,0.56-16.76,3.99c-3.93,3.3-4.87,7.51-4.52,12.5c0.12,1.74,0.81,8.96,2.55,9.79c2.15,1.02,11.81-2.87,14.15-3.33
		c7.11-1.41,15.29-3.27,22.52-1.87c11.09,2.14,9.02,7.63,8.57,16.66c-0.61,12.44-3.91,24.97-11.81,34.83
		c-12.05,15.03-36.54,21.85-54.4,13.63c-13-5.99-21.02-19.11-25.68-32.11c-2.44-6.82-8.88-25.85-4.56-32.28
		c-1.21,0.7-2.42,1.4-3.64,2.1c4.85-1.35,11.58,2.02,16.41,2.88c7.15,1.27,14.9,2.14,21.72-0.91c3.79-1.69,7.99-4.23,8.48-8.55
		c1.88-16.63-19.97-15.64-29.31-10.97c-2.46,1.23-9.98,4.89-9.62,7.78c0.64,5.04,14.69,4,18.27,2.13c4.55-2.37,9.3-11.32,1.27-10.98
		c-5.51,0.23-7.84,7.91-2.03,10.16c4.86,1.88,11.37-1.64,15.56-4.3c4.7-2.98,9.03-7.17,3.74-11.93c-6.54-5.89-19.99-4.2-27.14-1.01
		c-7.01,3.13-12.7,8.46-19.26,12.28c0.77-0.44,1.54-0.87,2.31-1.31c-4.99,1.8-3.06-7.4-2.74-10.25c0.84-7.36,5.35-10.75,7.57-17.36
		c4.72-14.06-6.92-37.57,7.91-47.35c-1.19,0.69-2.38,1.37-3.58,2.06c16.84-5.38,22.69,18.4,36.91,20.95
		c6,1.07,12.84-4.32,17.85-7.35c-1.13,0.65-2.26,1.3-3.39,1.95c10.57-4.65,16.22,10.64,26.78,8.03c2.91-0.72,6.83-3.81,8.43-6.11
		c3.12-4.52,3.28-11.69-3.07-9.33c-5.57,2.07-6.91,9.21-6.21,14.45c1.53,11.62,18.15,18.12,25.56,7.91
		c6.71-9.25-2.1-35.4-5.93-43.95c-10.58-23.68-32.99-34.28-58.2-34.92c-11.24-0.28-24.73,1.8-33.55,9.7
		c-7.88,7.06-1.77,17.95,7.65,12.69c10.33-5.77-3.87-14.37-11.7-11.62c-17.54,6.16-29.02,29.22-31.78,46.16
		c-1.83,11.19,1.84,20.07,5.96,30.15c2.46,6.02,6.51,19.33,0.28,24.52c1.21-0.7,2.42-1.4,3.64-2.1c-0.77,0.05-0.98-0.48-1.48-0.95
		c-0.09-0.08-3.47,1.82-3.64,2.1c-1.3,2.11,1.32,12.11,1.58,13.84c0.56,3.65,1.17,13.97,5.61,15.49c1.74,0.6,4.43-0.48,5.75-1.89
		c7.68-8.2-9.33-2.91-13.34,0.25c-11.63,9.15-5.83,24.99-14.24,35.44c-0.84,1.05-15.19,10.82-17.59,6.78
		c-0.85-1.43,3.36-5.63,3.33-7.88c-0.07-5.58-8.6-15.94-11.1-20.48c-3.72-6.72-7.16-13.53-10.42-20.48
		c-4.92-10.5-11.05-31.85-23.74-35.15c-0.31-0.08-3.64,2.1-3.64,2.1c1.2,3.75,4.3,5.22,5.92,8.74c1.21-0.7,2.42-1.4,3.64-2.1
		c-2.81-1.8-5.72-4.34-9.22-4.45c-0.45-0.01-3.51,1.72-3.64,2.1c-0.72,2.13,4.92,7.24,6.01,9.63c1.21-0.7,2.42-1.4,3.64-2.1
		c-3.87-1.04-7.35-6.84-11.35-3.82c-3.78,2.85-0.87,5.49,2.54,8.88c4.03,4.01,9.43,5.28,13.59,8.97c4.49,3.99,6.05,10.32,7.84,15.8
		c2.61,7.97,4.89,16.05,7.62,23.99c2.22,6.47,6.48,13.34,6.95,20.14c1.21-0.7,2.42-1.4,3.64-2.1c-11.9-6.15-13.65-26.7-18.84-37.96
		c-6.35-13.76-15.53-27.28-29.49-34.09c-5.34-2.61-7.9-2.04-5.03-7.95c2.99-6.15,14.01-11.9,14.27-18.86
		c0.16-4.29-14.79-17.88-20.26-17.62c-0.55,0.03-3.42,1.63-3.64,2.1c-2.51,5.51,8,26.4,14.73,26.35c2.1-0.02,5.3-2.34,6.81-3.44
		c7.03-5.13,13.88-13.09,8.71-21.07c-2.12-3.26-16.3-15.1-12.77-19.43c-1.21,0.7-2.42,1.4-3.64,2.1
		c11.77-2.4,30.45,14.32,31.37,25.43c0.9,10.85-6.4,22.36-2.81,33.06c1.35,4.01,4.22,7.88,6.25,11.56
		c7.56,13.65,14.99,27.39,21.82,41.41c3.49,7.16,16,26.36,6.67,32.94c1.21-0.7,2.42-1.4,3.64-2.1c-9.93,3.88-21.56-0.2-31.97,1.62
		c-15.92,2.78-30.12,10.7-46.35,13.01c-17.42,2.48-33.3,0.85-50.53-1.35c-18.19-2.33-36.41,0.44-54.64,0.74
		c-75.68,1.23-151.46,0.84-227.15,1c-130.56,0.27-261.08-3.61-391.65-3.83c-68.33-0.12-136.69,0.35-204.97,2.86
		C2.71,458.74,1.55,460.75,0.33,460.79L0.33,460.79z"/>
</g>
</svg>
