<?xml version="1.0" encoding="utf-8"?>
<!-- Generator: Adobe Illustrator 24.1.0, SVG Export Plug-In . SVG Version: 6.00 Build 0)  -->
<svg version="1.1" id="圖層_1" xmlns="http://www.w3.org/2000/svg" xmlns:xlink="http://www.w3.org/1999/xlink" x="0px" y="0px"
	 viewBox="0 0 319 92" style="enable-background:new 0 0 319 92;" xml:space="preserve">
<style type="text/css">
	.st0{fill:#4CC7F1;}
	.st1{fill:url(#SVGID_1_);}
	.st2{fill:#FFFFFF;}
</style>
<g>
	<g>
		<path class="st0" d="M300,23.43H45.34c0.07,0.52,0.06,1.07-0.1,1.66c-0.93,3.39-3.45,8.5-3.45,12.32c0,3.82-0.48,23.23-4.99,29.63
			c-4.52,6.4-4.62,9.46-4.36,14.31c0.02,0.36,0.02,0.72,0.02,1.07c1.29,0.51,2.69,0.81,4.15,0.81H300c6.2,0,11.28-5.08,11.28-11.28
			V34.71C311.28,28.5,306.2,23.43,300,23.43z"/>
		<g>
			<linearGradient id="SVGID_1_" gradientUnits="userSpaceOnUse" x1="5.28" y1="47.4177" x2="38.8331" y2="47.4177">
				<stop  offset="7.204385e-04" style="stop-color:#70BD6B"/>
				<stop  offset="0.9981" style="stop-color:#4CC7F1"/>
			</linearGradient>
			<path class="st1" d="M25.88,81.36c-0.26-4.85-0.15-7.91,4.36-14.31s5-25.81,4.99-29.63c0-3.82,2.52-8.93,3.45-12.32
				c0.93-3.39-2.82-5.25-1.56-8.6c1.26-3.35,1.87-5.14-1.67-5.61c-3.54-0.47-3.22-4.51-6.5-2.87c-1.22,0.61-1.41,2.27-2.42,3.61
				c-1,1.34-6.74,1.51-8.76,8.64C15.76,27.4,8.12,36.2,5.91,48.14c-2.2,11.94,1.95,13.63,3.03,21.19
				c1.08,7.56,10.79,7.8,12.93,14.44C24.03,90.42,26.14,86.21,25.88,81.36z"/>
		</g>
	</g>
	<g>
		<g>
			<path class="st2" d="M80.45,43.7v21.06h-4.22V50.06l-5.4,14.69h-3.68l-5.4-14.63v14.63h-4.25V43.7h5.16l6.4,15.84l6.28-15.84
				H80.45z"/>
			<path class="st2" d="M94.47,48.83c1.01,0.66,1.72,1.56,2.14,2.68v-3.47h4.22v16.71h-4.22v-3.5c-0.42,1.13-1.14,2.03-2.14,2.7
				c-1.01,0.67-2.21,1.01-3.62,1.01c-1.41,0-2.67-0.34-3.8-1.03c-1.13-0.68-2.01-1.67-2.64-2.97c-0.63-1.3-0.95-2.82-0.95-4.57
				c0-1.75,0.32-3.27,0.95-4.57c0.63-1.3,1.51-2.29,2.64-2.97c1.13-0.68,2.39-1.03,3.8-1.03C92.26,47.83,93.47,48.16,94.47,48.83z
				 M88.98,52.84c-0.8,0.87-1.21,2.05-1.21,3.56c0,1.51,0.4,2.69,1.21,3.55c0.8,0.86,1.87,1.28,3.2,1.28c1.29,0,2.35-0.44,3.18-1.31
				c0.83-0.87,1.25-2.05,1.25-3.51c0-1.49-0.42-2.67-1.25-3.54c-0.83-0.87-1.9-1.31-3.18-1.31C90.85,51.54,89.79,51.97,88.98,52.84z
				"/>
			<path class="st2" d="M114.85,48.83c1,0.66,1.71,1.56,2.16,2.68v-9.08h4.22v22.32h-4.22v-3.5c-0.44,1.13-1.16,2.03-2.16,2.7
				c-1,0.67-2.2,1.01-3.6,1.01c-1.41,0-2.67-0.34-3.8-1.03c-1.13-0.68-2.01-1.67-2.64-2.97c-0.63-1.3-0.95-2.82-0.95-4.57
				c0-1.75,0.32-3.27,0.95-4.57c0.63-1.3,1.51-2.29,2.64-2.97c1.13-0.68,2.39-1.03,3.8-1.03C112.65,47.83,113.86,48.16,114.85,48.83
				z M109.38,52.84c-0.8,0.87-1.21,2.05-1.21,3.56c0,1.51,0.4,2.69,1.21,3.55c0.8,0.86,1.87,1.28,3.2,1.28
				c1.29,0,2.35-0.44,3.18-1.31c0.83-0.87,1.25-2.05,1.25-3.51c0-1.49-0.42-2.67-1.25-3.54c-0.83-0.87-1.9-1.31-3.18-1.31
				C111.25,51.54,110.18,51.97,109.38,52.84z"/>
			<path class="st2" d="M140.66,57.21h-12.25c0.06,1.49,0.46,2.58,1.21,3.29c0.74,0.7,1.67,1.06,2.78,1.06
				c0.98,0,1.8-0.24,2.46-0.72c0.65-0.48,1.07-1.14,1.25-1.96h4.49c-0.22,1.17-0.69,2.21-1.42,3.14c-0.72,0.93-1.65,1.65-2.79,2.17
				c-1.14,0.52-2.4,0.78-3.79,0.78c-1.63,0-3.08-0.35-4.34-1.04c-1.27-0.69-2.25-1.68-2.96-2.97c-0.7-1.29-1.06-2.81-1.06-4.56
				c0-1.75,0.35-3.27,1.06-4.57c0.7-1.3,1.69-2.29,2.96-2.97c1.27-0.68,2.72-1.03,4.34-1.03c1.65,0,3.09,0.34,4.33,1.03
				c1.24,0.68,2.19,1.62,2.87,2.82c0.67,1.2,1.01,2.56,1.01,4.09C140.81,56.19,140.76,56.67,140.66,57.21z M135.46,52.24
				c-0.77-0.7-1.73-1.06-2.85-1.06c-1.15,0-2.11,0.35-2.9,1.06c-0.78,0.7-1.22,1.74-1.3,3.11h8.11
				C136.59,53.98,136.23,52.94,135.46,52.24z"/>
			<path class="st2" d="M150.64,41.57c0.48-0.43,1.12-0.65,1.9-0.65c0.78,0,1.42,0.22,1.9,0.65c0.48,0.43,0.72,0.99,0.72,1.67
				c0,0.66-0.24,1.21-0.72,1.64c-0.48,0.43-1.12,0.65-1.9,0.65c-0.78,0-1.42-0.22-1.9-0.65c-0.48-0.43-0.72-0.98-0.72-1.64
				C149.92,42.56,150.16,42,150.64,41.57z M154.66,48.04v16.71h-4.25V48.04H154.66z"/>
			<path class="st2" d="M173.09,49.7c1.15,1.27,1.72,3.05,1.72,5.34v9.71h-4.22v-9.23c0-1.33-0.34-2.36-1.03-3.09
				c-0.68-0.73-1.62-1.1-2.81-1.1c-1.21,0-2.17,0.39-2.9,1.18c-0.72,0.78-1.09,1.91-1.09,3.38v8.87h-4.25V48.04h4.25v3.35
				c0.44-1.13,1.17-2.01,2.19-2.64s2.19-0.95,3.51-0.95C170.4,47.8,171.94,48.43,173.09,49.7z"/>
			<path class="st2" d="M199.6,43.46v3.38h-5.88v17.92h-4.25V46.84h-5.85v-3.38H199.6z"/>
			<path class="st2" d="M212.12,48.83c1.01,0.66,1.72,1.56,2.14,2.68v-3.47h4.22v16.71h-4.22v-3.5c-0.42,1.13-1.14,2.03-2.14,2.7
				c-1.01,0.67-2.21,1.01-3.62,1.01c-1.41,0-2.68-0.34-3.8-1.03c-1.13-0.68-2.01-1.67-2.64-2.97c-0.63-1.3-0.95-2.82-0.95-4.57
				c0-1.75,0.32-3.27,0.95-4.57c0.63-1.3,1.51-2.29,2.64-2.97c1.13-0.68,2.39-1.03,3.8-1.03C209.91,47.83,211.12,48.16,212.12,48.83
				z M206.63,52.84c-0.8,0.87-1.21,2.05-1.21,3.56c0,1.51,0.4,2.69,1.21,3.55c0.8,0.86,1.87,1.28,3.2,1.28
				c1.29,0,2.35-0.44,3.18-1.31c0.83-0.87,1.25-2.05,1.25-3.51c0-1.49-0.42-2.67-1.25-3.54c-0.83-0.87-1.9-1.31-3.18-1.31
				C208.5,51.54,207.44,51.97,206.63,52.84z"/>
			<path class="st2" d="M222.59,41.57c0.48-0.43,1.12-0.65,1.9-0.65c0.78,0,1.42,0.22,1.9,0.65c0.48,0.43,0.72,0.99,0.72,1.67
				c0,0.66-0.24,1.21-0.72,1.64c-0.48,0.43-1.12,0.65-1.9,0.65c-0.78,0-1.42-0.22-1.9-0.65c-0.48-0.43-0.72-0.98-0.72-1.64
				C221.87,42.56,222.11,42,222.59,41.57z M226.6,48.04v16.71h-4.25V48.04H226.6z"/>
			<path class="st2" d="M254.39,48.04l-4.49,16.71h-4.71L241.6,52.6l-3.68,12.16h-4.71l-4.47-16.71H233l2.72,12.91l3.71-12.91h4.49
				l3.74,12.91l2.74-12.91H254.39z"/>
			<path class="st2" d="M266.67,48.83c1.01,0.66,1.72,1.56,2.14,2.68v-3.47h4.22v16.71h-4.22v-3.5c-0.42,1.13-1.14,2.03-2.14,2.7
				c-1.01,0.67-2.21,1.01-3.62,1.01c-1.41,0-2.67-0.34-3.8-1.03c-1.13-0.68-2.01-1.67-2.64-2.97c-0.63-1.3-0.95-2.82-0.95-4.57
				c0-1.75,0.32-3.27,0.95-4.57c0.63-1.3,1.51-2.29,2.64-2.97c1.13-0.68,2.39-1.03,3.8-1.03C264.45,47.83,265.66,48.16,266.67,48.83
				z M261.18,52.84c-0.81,0.87-1.21,2.05-1.21,3.56c0,1.51,0.4,2.69,1.21,3.55c0.8,0.86,1.87,1.28,3.2,1.28
				c1.29,0,2.35-0.44,3.18-1.31c0.83-0.87,1.25-2.05,1.25-3.51c0-1.49-0.42-2.67-1.25-3.54c-0.83-0.87-1.9-1.31-3.18-1.31
				C263.04,51.54,261.98,51.97,261.18,52.84z"/>
			<path class="st2" d="M291.46,49.7c1.15,1.27,1.72,3.05,1.72,5.34v9.71h-4.22v-9.23c0-1.33-0.34-2.36-1.03-3.09
				c-0.68-0.73-1.62-1.1-2.81-1.1c-1.21,0-2.17,0.39-2.9,1.18c-0.72,0.78-1.09,1.91-1.09,3.38v8.87h-4.25V48.04h4.25v3.35
				c0.44-1.13,1.17-2.01,2.19-2.64c1.02-0.63,2.19-0.95,3.51-0.95C288.78,47.8,290.32,48.43,291.46,49.7z"/>
		</g>
	</g>
</g>
</svg>
